%TF.GenerationSoftware,KiCad,Pcbnew,7.0.9*%
%TF.CreationDate,2024-02-13T17:02:03-03:00*%
%TF.ProjectId,pedido_casamento_smd,70656469-646f-45f6-9361-73616d656e74,rev?*%
%TF.SameCoordinates,Original*%
%TF.FileFunction,Paste,Top*%
%TF.FilePolarity,Positive*%
%FSLAX46Y46*%
G04 Gerber Fmt 4.6, Leading zero omitted, Abs format (unit mm)*
G04 Created by KiCad (PCBNEW 7.0.9) date 2024-02-13 17:02:03*
%MOMM*%
%LPD*%
G01*
G04 APERTURE LIST*
G04 Aperture macros list*
%AMRoundRect*
0 Rectangle with rounded corners*
0 $1 Rounding radius*
0 $2 $3 $4 $5 $6 $7 $8 $9 X,Y pos of 4 corners*
0 Add a 4 corners polygon primitive as box body*
4,1,4,$2,$3,$4,$5,$6,$7,$8,$9,$2,$3,0*
0 Add four circle primitives for the rounded corners*
1,1,$1+$1,$2,$3*
1,1,$1+$1,$4,$5*
1,1,$1+$1,$6,$7*
1,1,$1+$1,$8,$9*
0 Add four rect primitives between the rounded corners*
20,1,$1+$1,$2,$3,$4,$5,0*
20,1,$1+$1,$4,$5,$6,$7,0*
20,1,$1+$1,$6,$7,$8,$9,0*
20,1,$1+$1,$8,$9,$2,$3,0*%
G04 Aperture macros list end*
%ADD10RoundRect,0.250000X0.375000X0.625000X-0.375000X0.625000X-0.375000X-0.625000X0.375000X-0.625000X0*%
%ADD11RoundRect,0.250000X-0.350000X-0.450000X0.350000X-0.450000X0.350000X0.450000X-0.350000X0.450000X0*%
%ADD12RoundRect,0.250000X0.350000X0.450000X-0.350000X0.450000X-0.350000X-0.450000X0.350000X-0.450000X0*%
%ADD13RoundRect,0.250000X-0.375000X-0.625000X0.375000X-0.625000X0.375000X0.625000X-0.375000X0.625000X0*%
%ADD14RoundRect,0.250000X0.625000X-0.375000X0.625000X0.375000X-0.625000X0.375000X-0.625000X-0.375000X0*%
%ADD15RoundRect,0.250000X-0.625000X0.375000X-0.625000X-0.375000X0.625000X-0.375000X0.625000X0.375000X0*%
G04 APERTURE END LIST*
D10*
%TO.C,D22*%
X219560600Y-116430600D03*
X216760600Y-116430600D03*
%TD*%
D11*
%TO.C,R2*%
X109134400Y-122758200D03*
X111134400Y-122758200D03*
%TD*%
D12*
%TO.C,R3*%
X138100000Y-97300000D03*
X136100000Y-97300000D03*
%TD*%
D13*
%TO.C,D136*%
X210416600Y-135305800D03*
X213216600Y-135305800D03*
%TD*%
%TO.C,D55*%
X148587000Y-119329200D03*
X151387000Y-119329200D03*
%TD*%
%TO.C,D52*%
X142189200Y-106400600D03*
X144989200Y-106400600D03*
%TD*%
D10*
%TO.C,D25*%
X203733400Y-123698000D03*
X200933400Y-123698000D03*
%TD*%
D14*
%TO.C,D93*%
X147500800Y-138646400D03*
X147500800Y-135846400D03*
%TD*%
D15*
%TO.C,D128*%
X166855600Y-134100000D03*
X166855600Y-136900000D03*
%TD*%
D10*
%TO.C,D127*%
X195509800Y-136370201D03*
X192709800Y-136370201D03*
%TD*%
D13*
%TO.C,D77*%
X182118000Y-106375200D03*
X184918000Y-106375200D03*
%TD*%
D10*
%TO.C,D9*%
X222989600Y-103603600D03*
X220189600Y-103603600D03*
%TD*%
%TO.C,D67*%
X153723800Y-105537000D03*
X150923800Y-105537000D03*
%TD*%
D13*
%TO.C,D54*%
X146301000Y-115138200D03*
X149101000Y-115138200D03*
%TD*%
%TO.C,D68*%
X153746200Y-102108000D03*
X156546200Y-102108000D03*
%TD*%
%TO.C,D21*%
X194723600Y-116430600D03*
X197523600Y-116430600D03*
%TD*%
D14*
%TO.C,D31*%
X107318000Y-109553200D03*
X107318000Y-106753200D03*
%TD*%
D13*
%TO.C,D38*%
X119129000Y-102057200D03*
X121929000Y-102057200D03*
%TD*%
%TO.C,D79*%
X185166000Y-115112800D03*
X187966000Y-115112800D03*
%TD*%
D10*
%TO.C,D139*%
X224421000Y-135229600D03*
X221621000Y-135229600D03*
%TD*%
D13*
%TO.C,D78*%
X183896000Y-110769400D03*
X186696000Y-110769400D03*
%TD*%
%TO.C,D135*%
X208090000Y-139217400D03*
X210890000Y-139217400D03*
%TD*%
D14*
%TO.C,D92*%
X147450000Y-146383200D03*
X147450000Y-143583200D03*
%TD*%
D13*
%TO.C,D83*%
X109547200Y-138811000D03*
X112347200Y-138811000D03*
%TD*%
%TO.C,D71*%
X169418000Y-119303800D03*
X172218000Y-119303800D03*
%TD*%
D10*
%TO.C,D63*%
X166172800Y-117373400D03*
X163372800Y-117373400D03*
%TD*%
D15*
%TO.C,D124*%
X166855600Y-144133000D03*
X166855600Y-146933000D03*
%TD*%
D13*
%TO.C,D107*%
X174577200Y-136700401D03*
X177377200Y-136700401D03*
%TD*%
D11*
%TO.C,R14*%
X222100000Y-152650000D03*
X224100000Y-152650000D03*
%TD*%
D15*
%TO.C,D5*%
X202793600Y-100044600D03*
X202793600Y-102844600D03*
%TD*%
D13*
%TO.C,D23*%
X196440600Y-120621600D03*
X199240600Y-120621600D03*
%TD*%
%TO.C,D19*%
X193011600Y-112239600D03*
X195811600Y-112239600D03*
%TD*%
D14*
%TO.C,D95*%
X154358800Y-150584400D03*
X154358800Y-147784400D03*
%TD*%
D13*
%TO.C,D89*%
X124082000Y-136372600D03*
X126882000Y-136372600D03*
%TD*%
%TO.C,D33*%
X109474000Y-104597200D03*
X112274000Y-104597200D03*
%TD*%
%TO.C,D70*%
X163525200Y-102133400D03*
X166325200Y-102133400D03*
%TD*%
%TO.C,D51*%
X138935000Y-115138200D03*
X141735000Y-115138200D03*
%TD*%
D14*
%TO.C,D32*%
X107318000Y-114630200D03*
X107318000Y-111830200D03*
%TD*%
D11*
%TO.C,R12*%
X206200000Y-150750000D03*
X208200000Y-150750000D03*
%TD*%
D14*
%TO.C,D98*%
X161420000Y-146383200D03*
X161420000Y-143583200D03*
%TD*%
D13*
%TO.C,D138*%
X218598400Y-131648200D03*
X221398400Y-131648200D03*
%TD*%
D14*
%TO.C,D105*%
X172748400Y-146583400D03*
X172748400Y-143783400D03*
%TD*%
D13*
%TO.C,D114*%
X132842000Y-153769201D03*
X135642000Y-153769201D03*
%TD*%
D14*
%TO.C,D122*%
X167008000Y-152032400D03*
X167008000Y-149232400D03*
%TD*%
%TO.C,D125*%
X190579200Y-151054401D03*
X190579200Y-148254401D03*
%TD*%
D10*
%TO.C,D1*%
X111534400Y-127635000D03*
X108734400Y-127635000D03*
%TD*%
D13*
%TO.C,D72*%
X171511000Y-115112800D03*
X174311000Y-115112800D03*
%TD*%
%TO.C,D103*%
X174323200Y-154074001D03*
X177123200Y-154074001D03*
%TD*%
D10*
%TO.C,D20*%
X221211600Y-112239600D03*
X218411600Y-112239600D03*
%TD*%
D14*
%TO.C,D97*%
X161470800Y-138646400D03*
X161470800Y-135846400D03*
%TD*%
D13*
%TO.C,D76*%
X178308000Y-115112800D03*
X181108000Y-115112800D03*
%TD*%
%TO.C,D88*%
X119227600Y-153720800D03*
X122027600Y-153720800D03*
%TD*%
%TO.C,D65*%
X159816800Y-112014000D03*
X162616800Y-112014000D03*
%TD*%
%TO.C,D115*%
X137747200Y-136370201D03*
X140547200Y-136370201D03*
%TD*%
D14*
%TO.C,D91*%
X147450000Y-154866800D03*
X147450000Y-152066800D03*
%TD*%
D13*
%TO.C,D86*%
X114322400Y-153720800D03*
X117122400Y-153720800D03*
%TD*%
D10*
%TO.C,D24*%
X217594600Y-120621600D03*
X214794600Y-120621600D03*
%TD*%
D11*
%TO.C,R10*%
X180750000Y-157900000D03*
X182750000Y-157900000D03*
%TD*%
D13*
%TO.C,D85*%
X114322400Y-136398000D03*
X117122400Y-136398000D03*
%TD*%
%TO.C,D102*%
X179555600Y-154076400D03*
X182355600Y-154076400D03*
%TD*%
%TO.C,D100*%
X179041600Y-147142200D03*
X181841600Y-147142200D03*
%TD*%
%TO.C,D43*%
X124079000Y-102057200D03*
X126879000Y-102057200D03*
%TD*%
%TO.C,D47*%
X131315000Y-115138200D03*
X134115000Y-115138200D03*
%TD*%
D10*
%TO.C,D50*%
X141487000Y-102057200D03*
X138687000Y-102057200D03*
%TD*%
D13*
%TO.C,D39*%
X119126000Y-119456200D03*
X121926000Y-119456200D03*
%TD*%
D14*
%TO.C,D132*%
X202364800Y-141326201D03*
X202364800Y-138526201D03*
%TD*%
D11*
%TO.C,R7*%
X124350000Y-157450000D03*
X126350000Y-157450000D03*
%TD*%
D13*
%TO.C,D129*%
X192328800Y-154076400D03*
X195128800Y-154076400D03*
%TD*%
D14*
%TO.C,D6*%
X211302600Y-102717600D03*
X211302600Y-99917600D03*
%TD*%
D13*
%TO.C,D7*%
X216059600Y-98904600D03*
X218859600Y-98904600D03*
%TD*%
%TO.C,D143*%
X217909600Y-149428200D03*
X220709600Y-149428200D03*
%TD*%
D10*
%TO.C,D26*%
X212877400Y-123698000D03*
X210077400Y-123698000D03*
%TD*%
%TO.C,D74*%
X177806000Y-106375200D03*
X175006000Y-106375200D03*
%TD*%
D14*
%TO.C,D120*%
X167008000Y-157022800D03*
X167008000Y-154222800D03*
%TD*%
%TO.C,D99*%
X161420000Y-154866800D03*
X161420000Y-152066800D03*
%TD*%
%TO.C,D133*%
X202364800Y-146183000D03*
X202364800Y-143383000D03*
%TD*%
D13*
%TO.C,D61*%
X153746200Y-119329200D03*
X156546200Y-119329200D03*
%TD*%
D14*
%TO.C,D134*%
X202364800Y-151054401D03*
X202364800Y-148254401D03*
%TD*%
D11*
%TO.C,R9*%
X125500000Y-98000000D03*
X127500000Y-98000000D03*
%TD*%
D13*
%TO.C,D34*%
X109474000Y-116916200D03*
X112274000Y-116916200D03*
%TD*%
D14*
%TO.C,D104*%
X172748400Y-151542400D03*
X172748400Y-148742400D03*
%TD*%
%TO.C,D96*%
X156898800Y-143980400D03*
X156898800Y-141180400D03*
%TD*%
D13*
%TO.C,D53*%
X144269000Y-110794800D03*
X147069000Y-110794800D03*
%TD*%
%TO.C,D116*%
X137747200Y-153743801D03*
X140547200Y-153743801D03*
%TD*%
D12*
%TO.C,R15*%
X216650000Y-125650000D03*
X214650000Y-125650000D03*
%TD*%
D13*
%TO.C,D113*%
X132842000Y-136395601D03*
X135642000Y-136395601D03*
%TD*%
%TO.C,D48*%
X133601000Y-110794800D03*
X136401000Y-110794800D03*
%TD*%
%TO.C,D36*%
X114170000Y-102057200D03*
X116970000Y-102057200D03*
%TD*%
D14*
%TO.C,D121*%
X190579200Y-141379400D03*
X190579200Y-138579400D03*
%TD*%
D13*
%TO.C,D140*%
X223774000Y-139369800D03*
X226574000Y-139369800D03*
%TD*%
D14*
%TO.C,D110*%
X130660600Y-141275401D03*
X130660600Y-138475401D03*
%TD*%
%TO.C,D119*%
X142827200Y-151054401D03*
X142827200Y-148254401D03*
%TD*%
D13*
%TO.C,D131*%
X197259400Y-154051000D03*
X200059400Y-154051000D03*
%TD*%
%TO.C,D144*%
X217452400Y-155727400D03*
X220252400Y-155727400D03*
%TD*%
%TO.C,D137*%
X213639400Y-131648200D03*
X216439400Y-131648200D03*
%TD*%
D14*
%TO.C,D94*%
X152326800Y-143980400D03*
X152326800Y-141180400D03*
%TD*%
%TO.C,D82*%
X107445000Y-143904200D03*
X107445000Y-141104200D03*
%TD*%
%TO.C,D118*%
X142776400Y-146183000D03*
X142776400Y-143383000D03*
%TD*%
D13*
%TO.C,D130*%
X197513400Y-136370201D03*
X200313400Y-136370201D03*
%TD*%
D14*
%TO.C,D3*%
X206933800Y-107035600D03*
X206933800Y-104235600D03*
%TD*%
%TO.C,D4*%
X206933800Y-129720800D03*
X206933800Y-126920800D03*
%TD*%
D13*
%TO.C,D16*%
X191106600Y-108302600D03*
X193906600Y-108302600D03*
%TD*%
D10*
%TO.C,D73*%
X176028000Y-110769400D03*
X173228000Y-110769400D03*
%TD*%
D13*
%TO.C,D62*%
X158623000Y-119354600D03*
X161423000Y-119354600D03*
%TD*%
%TO.C,D101*%
X184070800Y-150266400D03*
X186870800Y-150266400D03*
%TD*%
%TO.C,D44*%
X124079000Y-119456200D03*
X126879000Y-119456200D03*
%TD*%
D14*
%TO.C,D106*%
X172672200Y-141836600D03*
X172672200Y-139036600D03*
%TD*%
D13*
%TO.C,D49*%
X135331200Y-106400600D03*
X138131200Y-106400600D03*
%TD*%
D14*
%TO.C,D126*%
X166855600Y-141986000D03*
X166855600Y-139186000D03*
%TD*%
D13*
%TO.C,D75*%
X178308000Y-102031800D03*
X181108000Y-102031800D03*
%TD*%
%TO.C,D87*%
X119227600Y-136372600D03*
X122027600Y-136372600D03*
%TD*%
%TO.C,D142*%
X217833400Y-145592800D03*
X220633400Y-145592800D03*
%TD*%
D14*
%TO.C,D117*%
X142725600Y-141326201D03*
X142725600Y-138526201D03*
%TD*%
%TO.C,D112*%
X130660600Y-151054401D03*
X130660600Y-148254401D03*
%TD*%
D13*
%TO.C,D46*%
X129283000Y-119329200D03*
X132083000Y-119329200D03*
%TD*%
D14*
%TO.C,D81*%
X107419600Y-148974000D03*
X107419600Y-146174000D03*
%TD*%
%TO.C,D123*%
X190579200Y-146129200D03*
X190579200Y-143329200D03*
%TD*%
D11*
%TO.C,R5*%
X164600000Y-106750000D03*
X166600000Y-106750000D03*
%TD*%
D13*
%TO.C,D80*%
X187452000Y-119303800D03*
X190252000Y-119303800D03*
%TD*%
D10*
%TO.C,D109*%
X185829400Y-139217400D03*
X183029400Y-139217400D03*
%TD*%
D13*
%TO.C,D69*%
X158594600Y-102082600D03*
X161394600Y-102082600D03*
%TD*%
%TO.C,D141*%
X220497400Y-142163800D03*
X223297400Y-142163800D03*
%TD*%
D10*
%TO.C,D64*%
X168001600Y-114503200D03*
X165201600Y-114503200D03*
%TD*%
D13*
%TO.C,D84*%
X109575600Y-151282400D03*
X112375600Y-151282400D03*
%TD*%
D10*
%TO.C,D17*%
X223055600Y-108302600D03*
X220255600Y-108302600D03*
%TD*%
D13*
%TO.C,D90*%
X124082000Y-153746200D03*
X126882000Y-153746200D03*
%TD*%
%TO.C,D108*%
X179682600Y-136702800D03*
X182482600Y-136702800D03*
%TD*%
%TO.C,D66*%
X155318000Y-109296200D03*
X158118000Y-109296200D03*
%TD*%
%TO.C,D10*%
X191233600Y-103603600D03*
X194033600Y-103603600D03*
%TD*%
D14*
%TO.C,D111*%
X130660600Y-146183000D03*
X130660600Y-143383000D03*
%TD*%
D13*
%TO.C,D37*%
X114170000Y-119456200D03*
X116970000Y-119456200D03*
%TD*%
%TO.C,D8*%
X195424600Y-98904600D03*
X198224600Y-98904600D03*
%TD*%
M02*
