%TF.GenerationSoftware,KiCad,Pcbnew,7.0.9*%
%TF.CreationDate,2024-02-13T17:02:03-03:00*%
%TF.ProjectId,pedido_casamento_smd,70656469-646f-45f6-9361-73616d656e74,rev?*%
%TF.SameCoordinates,Original*%
%TF.FileFunction,Legend,Bot*%
%TF.FilePolarity,Positive*%
%FSLAX46Y46*%
G04 Gerber Fmt 4.6, Leading zero omitted, Abs format (unit mm)*
G04 Created by KiCad (PCBNEW 7.0.9) date 2024-02-13 17:02:03*
%MOMM*%
%LPD*%
G01*
G04 APERTURE LIST*
%ADD10C,0.150000*%
%ADD11C,0.120000*%
G04 APERTURE END LIST*
D10*
X139411904Y-145054819D02*
X139411904Y-145864342D01*
X139411904Y-145864342D02*
X139364285Y-145959580D01*
X139364285Y-145959580D02*
X139316666Y-146007200D01*
X139316666Y-146007200D02*
X139221428Y-146054819D01*
X139221428Y-146054819D02*
X139030952Y-146054819D01*
X139030952Y-146054819D02*
X138935714Y-146007200D01*
X138935714Y-146007200D02*
X138888095Y-145959580D01*
X138888095Y-145959580D02*
X138840476Y-145864342D01*
X138840476Y-145864342D02*
X138840476Y-145054819D01*
X138221428Y-145483390D02*
X138316666Y-145435771D01*
X138316666Y-145435771D02*
X138364285Y-145388152D01*
X138364285Y-145388152D02*
X138411904Y-145292914D01*
X138411904Y-145292914D02*
X138411904Y-145245295D01*
X138411904Y-145245295D02*
X138364285Y-145150057D01*
X138364285Y-145150057D02*
X138316666Y-145102438D01*
X138316666Y-145102438D02*
X138221428Y-145054819D01*
X138221428Y-145054819D02*
X138030952Y-145054819D01*
X138030952Y-145054819D02*
X137935714Y-145102438D01*
X137935714Y-145102438D02*
X137888095Y-145150057D01*
X137888095Y-145150057D02*
X137840476Y-145245295D01*
X137840476Y-145245295D02*
X137840476Y-145292914D01*
X137840476Y-145292914D02*
X137888095Y-145388152D01*
X137888095Y-145388152D02*
X137935714Y-145435771D01*
X137935714Y-145435771D02*
X138030952Y-145483390D01*
X138030952Y-145483390D02*
X138221428Y-145483390D01*
X138221428Y-145483390D02*
X138316666Y-145531009D01*
X138316666Y-145531009D02*
X138364285Y-145578628D01*
X138364285Y-145578628D02*
X138411904Y-145673866D01*
X138411904Y-145673866D02*
X138411904Y-145864342D01*
X138411904Y-145864342D02*
X138364285Y-145959580D01*
X138364285Y-145959580D02*
X138316666Y-146007200D01*
X138316666Y-146007200D02*
X138221428Y-146054819D01*
X138221428Y-146054819D02*
X138030952Y-146054819D01*
X138030952Y-146054819D02*
X137935714Y-146007200D01*
X137935714Y-146007200D02*
X137888095Y-145959580D01*
X137888095Y-145959580D02*
X137840476Y-145864342D01*
X137840476Y-145864342D02*
X137840476Y-145673866D01*
X137840476Y-145673866D02*
X137888095Y-145578628D01*
X137888095Y-145578628D02*
X137935714Y-145531009D01*
X137935714Y-145531009D02*
X138030952Y-145483390D01*
X191004819Y-129138095D02*
X191814342Y-129138095D01*
X191814342Y-129138095D02*
X191909580Y-129185714D01*
X191909580Y-129185714D02*
X191957200Y-129233333D01*
X191957200Y-129233333D02*
X192004819Y-129328571D01*
X192004819Y-129328571D02*
X192004819Y-129519047D01*
X192004819Y-129519047D02*
X191957200Y-129614285D01*
X191957200Y-129614285D02*
X191909580Y-129661904D01*
X191909580Y-129661904D02*
X191814342Y-129709523D01*
X191814342Y-129709523D02*
X191004819Y-129709523D01*
X191004819Y-130661904D02*
X191004819Y-130185714D01*
X191004819Y-130185714D02*
X191481009Y-130138095D01*
X191481009Y-130138095D02*
X191433390Y-130185714D01*
X191433390Y-130185714D02*
X191385771Y-130280952D01*
X191385771Y-130280952D02*
X191385771Y-130519047D01*
X191385771Y-130519047D02*
X191433390Y-130614285D01*
X191433390Y-130614285D02*
X191481009Y-130661904D01*
X191481009Y-130661904D02*
X191576247Y-130709523D01*
X191576247Y-130709523D02*
X191814342Y-130709523D01*
X191814342Y-130709523D02*
X191909580Y-130661904D01*
X191909580Y-130661904D02*
X191957200Y-130614285D01*
X191957200Y-130614285D02*
X192004819Y-130519047D01*
X192004819Y-130519047D02*
X192004819Y-130280952D01*
X192004819Y-130280952D02*
X191957200Y-130185714D01*
X191957200Y-130185714D02*
X191909580Y-130138095D01*
X172186504Y-144922318D02*
X172186504Y-145731841D01*
X172186504Y-145731841D02*
X172138885Y-145827079D01*
X172138885Y-145827079D02*
X172091266Y-145874699D01*
X172091266Y-145874699D02*
X171996028Y-145922318D01*
X171996028Y-145922318D02*
X171805552Y-145922318D01*
X171805552Y-145922318D02*
X171710314Y-145874699D01*
X171710314Y-145874699D02*
X171662695Y-145827079D01*
X171662695Y-145827079D02*
X171615076Y-145731841D01*
X171615076Y-145731841D02*
X171615076Y-144922318D01*
X171091266Y-145922318D02*
X170900790Y-145922318D01*
X170900790Y-145922318D02*
X170805552Y-145874699D01*
X170805552Y-145874699D02*
X170757933Y-145827079D01*
X170757933Y-145827079D02*
X170662695Y-145684222D01*
X170662695Y-145684222D02*
X170615076Y-145493746D01*
X170615076Y-145493746D02*
X170615076Y-145112794D01*
X170615076Y-145112794D02*
X170662695Y-145017556D01*
X170662695Y-145017556D02*
X170710314Y-144969937D01*
X170710314Y-144969937D02*
X170805552Y-144922318D01*
X170805552Y-144922318D02*
X170996028Y-144922318D01*
X170996028Y-144922318D02*
X171091266Y-144969937D01*
X171091266Y-144969937D02*
X171138885Y-145017556D01*
X171138885Y-145017556D02*
X171186504Y-145112794D01*
X171186504Y-145112794D02*
X171186504Y-145350889D01*
X171186504Y-145350889D02*
X171138885Y-145446127D01*
X171138885Y-145446127D02*
X171091266Y-145493746D01*
X171091266Y-145493746D02*
X170996028Y-145541365D01*
X170996028Y-145541365D02*
X170805552Y-145541365D01*
X170805552Y-145541365D02*
X170710314Y-145493746D01*
X170710314Y-145493746D02*
X170662695Y-145446127D01*
X170662695Y-145446127D02*
X170615076Y-145350889D01*
X130104819Y-140833333D02*
X129628628Y-140500000D01*
X130104819Y-140261905D02*
X129104819Y-140261905D01*
X129104819Y-140261905D02*
X129104819Y-140642857D01*
X129104819Y-140642857D02*
X129152438Y-140738095D01*
X129152438Y-140738095D02*
X129200057Y-140785714D01*
X129200057Y-140785714D02*
X129295295Y-140833333D01*
X129295295Y-140833333D02*
X129438152Y-140833333D01*
X129438152Y-140833333D02*
X129533390Y-140785714D01*
X129533390Y-140785714D02*
X129581009Y-140738095D01*
X129581009Y-140738095D02*
X129628628Y-140642857D01*
X129628628Y-140642857D02*
X129628628Y-140261905D01*
X130104819Y-141785714D02*
X130104819Y-141214286D01*
X130104819Y-141500000D02*
X129104819Y-141500000D01*
X129104819Y-141500000D02*
X129247676Y-141404762D01*
X129247676Y-141404762D02*
X129342914Y-141309524D01*
X129342914Y-141309524D02*
X129390533Y-141214286D01*
X219989285Y-111104819D02*
X219989285Y-110104819D01*
X219989285Y-110104819D02*
X219751190Y-110104819D01*
X219751190Y-110104819D02*
X219608333Y-110152438D01*
X219608333Y-110152438D02*
X219513095Y-110247676D01*
X219513095Y-110247676D02*
X219465476Y-110342914D01*
X219465476Y-110342914D02*
X219417857Y-110533390D01*
X219417857Y-110533390D02*
X219417857Y-110676247D01*
X219417857Y-110676247D02*
X219465476Y-110866723D01*
X219465476Y-110866723D02*
X219513095Y-110961961D01*
X219513095Y-110961961D02*
X219608333Y-111057200D01*
X219608333Y-111057200D02*
X219751190Y-111104819D01*
X219751190Y-111104819D02*
X219989285Y-111104819D01*
X218465476Y-111104819D02*
X219036904Y-111104819D01*
X218751190Y-111104819D02*
X218751190Y-110104819D01*
X218751190Y-110104819D02*
X218846428Y-110247676D01*
X218846428Y-110247676D02*
X218941666Y-110342914D01*
X218941666Y-110342914D02*
X219036904Y-110390533D01*
X218132142Y-110104819D02*
X217513095Y-110104819D01*
X217513095Y-110104819D02*
X217846428Y-110485771D01*
X217846428Y-110485771D02*
X217703571Y-110485771D01*
X217703571Y-110485771D02*
X217608333Y-110533390D01*
X217608333Y-110533390D02*
X217560714Y-110581009D01*
X217560714Y-110581009D02*
X217513095Y-110676247D01*
X217513095Y-110676247D02*
X217513095Y-110914342D01*
X217513095Y-110914342D02*
X217560714Y-111009580D01*
X217560714Y-111009580D02*
X217608333Y-111057200D01*
X217608333Y-111057200D02*
X217703571Y-111104819D01*
X217703571Y-111104819D02*
X217989285Y-111104819D01*
X217989285Y-111104819D02*
X218084523Y-111057200D01*
X218084523Y-111057200D02*
X218132142Y-111009580D01*
X171904819Y-110133333D02*
X171428628Y-109800000D01*
X171904819Y-109561905D02*
X170904819Y-109561905D01*
X170904819Y-109561905D02*
X170904819Y-109942857D01*
X170904819Y-109942857D02*
X170952438Y-110038095D01*
X170952438Y-110038095D02*
X171000057Y-110085714D01*
X171000057Y-110085714D02*
X171095295Y-110133333D01*
X171095295Y-110133333D02*
X171238152Y-110133333D01*
X171238152Y-110133333D02*
X171333390Y-110085714D01*
X171333390Y-110085714D02*
X171381009Y-110038095D01*
X171381009Y-110038095D02*
X171428628Y-109942857D01*
X171428628Y-109942857D02*
X171428628Y-109561905D01*
X171238152Y-110990476D02*
X171904819Y-110990476D01*
X170857200Y-110752381D02*
X171571485Y-110514286D01*
X171571485Y-110514286D02*
X171571485Y-111133333D01*
X150209094Y-125334019D02*
X150209094Y-126143542D01*
X150209094Y-126143542D02*
X150161475Y-126238780D01*
X150161475Y-126238780D02*
X150113856Y-126286400D01*
X150113856Y-126286400D02*
X150018618Y-126334019D01*
X150018618Y-126334019D02*
X149828142Y-126334019D01*
X149828142Y-126334019D02*
X149732904Y-126286400D01*
X149732904Y-126286400D02*
X149685285Y-126238780D01*
X149685285Y-126238780D02*
X149637666Y-126143542D01*
X149637666Y-126143542D02*
X149637666Y-125334019D01*
X148637666Y-126334019D02*
X149209094Y-126334019D01*
X148923380Y-126334019D02*
X148923380Y-125334019D01*
X148923380Y-125334019D02*
X149018618Y-125476876D01*
X149018618Y-125476876D02*
X149113856Y-125572114D01*
X149113856Y-125572114D02*
X149209094Y-125619733D01*
X147685285Y-126334019D02*
X148256713Y-126334019D01*
X147970999Y-126334019D02*
X147970999Y-125334019D01*
X147970999Y-125334019D02*
X148066237Y-125476876D01*
X148066237Y-125476876D02*
X148161475Y-125572114D01*
X148161475Y-125572114D02*
X148256713Y-125619733D01*
X166840057Y-105524761D02*
X166792438Y-105429523D01*
X166792438Y-105429523D02*
X166697200Y-105334285D01*
X166697200Y-105334285D02*
X166554342Y-105191428D01*
X166554342Y-105191428D02*
X166506723Y-105096190D01*
X166506723Y-105096190D02*
X166506723Y-105000952D01*
X166744819Y-105048571D02*
X166697200Y-104953333D01*
X166697200Y-104953333D02*
X166601961Y-104858095D01*
X166601961Y-104858095D02*
X166411485Y-104810476D01*
X166411485Y-104810476D02*
X166078152Y-104810476D01*
X166078152Y-104810476D02*
X165887676Y-104858095D01*
X165887676Y-104858095D02*
X165792438Y-104953333D01*
X165792438Y-104953333D02*
X165744819Y-105048571D01*
X165744819Y-105048571D02*
X165744819Y-105239047D01*
X165744819Y-105239047D02*
X165792438Y-105334285D01*
X165792438Y-105334285D02*
X165887676Y-105429523D01*
X165887676Y-105429523D02*
X166078152Y-105477142D01*
X166078152Y-105477142D02*
X166411485Y-105477142D01*
X166411485Y-105477142D02*
X166601961Y-105429523D01*
X166601961Y-105429523D02*
X166697200Y-105334285D01*
X166697200Y-105334285D02*
X166744819Y-105239047D01*
X166744819Y-105239047D02*
X166744819Y-105048571D01*
X165840057Y-105858095D02*
X165792438Y-105905714D01*
X165792438Y-105905714D02*
X165744819Y-106000952D01*
X165744819Y-106000952D02*
X165744819Y-106239047D01*
X165744819Y-106239047D02*
X165792438Y-106334285D01*
X165792438Y-106334285D02*
X165840057Y-106381904D01*
X165840057Y-106381904D02*
X165935295Y-106429523D01*
X165935295Y-106429523D02*
X166030533Y-106429523D01*
X166030533Y-106429523D02*
X166173390Y-106381904D01*
X166173390Y-106381904D02*
X166744819Y-105810476D01*
X166744819Y-105810476D02*
X166744819Y-106429523D01*
X138810904Y-114774019D02*
X138810904Y-115583542D01*
X138810904Y-115583542D02*
X138763285Y-115678780D01*
X138763285Y-115678780D02*
X138715666Y-115726400D01*
X138715666Y-115726400D02*
X138620428Y-115774019D01*
X138620428Y-115774019D02*
X138429952Y-115774019D01*
X138429952Y-115774019D02*
X138334714Y-115726400D01*
X138334714Y-115726400D02*
X138287095Y-115678780D01*
X138287095Y-115678780D02*
X138239476Y-115583542D01*
X138239476Y-115583542D02*
X138239476Y-114774019D01*
X137858523Y-114774019D02*
X137191857Y-114774019D01*
X137191857Y-114774019D02*
X137620428Y-115774019D01*
X198164285Y-115554819D02*
X198164285Y-114554819D01*
X198164285Y-114554819D02*
X197926190Y-114554819D01*
X197926190Y-114554819D02*
X197783333Y-114602438D01*
X197783333Y-114602438D02*
X197688095Y-114697676D01*
X197688095Y-114697676D02*
X197640476Y-114792914D01*
X197640476Y-114792914D02*
X197592857Y-114983390D01*
X197592857Y-114983390D02*
X197592857Y-115126247D01*
X197592857Y-115126247D02*
X197640476Y-115316723D01*
X197640476Y-115316723D02*
X197688095Y-115411961D01*
X197688095Y-115411961D02*
X197783333Y-115507200D01*
X197783333Y-115507200D02*
X197926190Y-115554819D01*
X197926190Y-115554819D02*
X198164285Y-115554819D01*
X196640476Y-115554819D02*
X197211904Y-115554819D01*
X196926190Y-115554819D02*
X196926190Y-114554819D01*
X196926190Y-114554819D02*
X197021428Y-114697676D01*
X197021428Y-114697676D02*
X197116666Y-114792914D01*
X197116666Y-114792914D02*
X197211904Y-114840533D01*
X196069047Y-114983390D02*
X196164285Y-114935771D01*
X196164285Y-114935771D02*
X196211904Y-114888152D01*
X196211904Y-114888152D02*
X196259523Y-114792914D01*
X196259523Y-114792914D02*
X196259523Y-114745295D01*
X196259523Y-114745295D02*
X196211904Y-114650057D01*
X196211904Y-114650057D02*
X196164285Y-114602438D01*
X196164285Y-114602438D02*
X196069047Y-114554819D01*
X196069047Y-114554819D02*
X195878571Y-114554819D01*
X195878571Y-114554819D02*
X195783333Y-114602438D01*
X195783333Y-114602438D02*
X195735714Y-114650057D01*
X195735714Y-114650057D02*
X195688095Y-114745295D01*
X195688095Y-114745295D02*
X195688095Y-114792914D01*
X195688095Y-114792914D02*
X195735714Y-114888152D01*
X195735714Y-114888152D02*
X195783333Y-114935771D01*
X195783333Y-114935771D02*
X195878571Y-114983390D01*
X195878571Y-114983390D02*
X196069047Y-114983390D01*
X196069047Y-114983390D02*
X196164285Y-115031009D01*
X196164285Y-115031009D02*
X196211904Y-115078628D01*
X196211904Y-115078628D02*
X196259523Y-115173866D01*
X196259523Y-115173866D02*
X196259523Y-115364342D01*
X196259523Y-115364342D02*
X196211904Y-115459580D01*
X196211904Y-115459580D02*
X196164285Y-115507200D01*
X196164285Y-115507200D02*
X196069047Y-115554819D01*
X196069047Y-115554819D02*
X195878571Y-115554819D01*
X195878571Y-115554819D02*
X195783333Y-115507200D01*
X195783333Y-115507200D02*
X195735714Y-115459580D01*
X195735714Y-115459580D02*
X195688095Y-115364342D01*
X195688095Y-115364342D02*
X195688095Y-115173866D01*
X195688095Y-115173866D02*
X195735714Y-115078628D01*
X195735714Y-115078628D02*
X195783333Y-115031009D01*
X195783333Y-115031009D02*
X195878571Y-114983390D01*
X187911904Y-126804819D02*
X187911904Y-127614342D01*
X187911904Y-127614342D02*
X187864285Y-127709580D01*
X187864285Y-127709580D02*
X187816666Y-127757200D01*
X187816666Y-127757200D02*
X187721428Y-127804819D01*
X187721428Y-127804819D02*
X187530952Y-127804819D01*
X187530952Y-127804819D02*
X187435714Y-127757200D01*
X187435714Y-127757200D02*
X187388095Y-127709580D01*
X187388095Y-127709580D02*
X187340476Y-127614342D01*
X187340476Y-127614342D02*
X187340476Y-126804819D01*
X186435714Y-127138152D02*
X186435714Y-127804819D01*
X186673809Y-126757200D02*
X186911904Y-127471485D01*
X186911904Y-127471485D02*
X186292857Y-127471485D01*
X147254819Y-109585714D02*
X146254819Y-109585714D01*
X146254819Y-109585714D02*
X146254819Y-109823809D01*
X146254819Y-109823809D02*
X146302438Y-109966666D01*
X146302438Y-109966666D02*
X146397676Y-110061904D01*
X146397676Y-110061904D02*
X146492914Y-110109523D01*
X146492914Y-110109523D02*
X146683390Y-110157142D01*
X146683390Y-110157142D02*
X146826247Y-110157142D01*
X146826247Y-110157142D02*
X147016723Y-110109523D01*
X147016723Y-110109523D02*
X147111961Y-110061904D01*
X147111961Y-110061904D02*
X147207200Y-109966666D01*
X147207200Y-109966666D02*
X147254819Y-109823809D01*
X147254819Y-109823809D02*
X147254819Y-109585714D01*
X146254819Y-110490476D02*
X146254819Y-111109523D01*
X146254819Y-111109523D02*
X146635771Y-110776190D01*
X146635771Y-110776190D02*
X146635771Y-110919047D01*
X146635771Y-110919047D02*
X146683390Y-111014285D01*
X146683390Y-111014285D02*
X146731009Y-111061904D01*
X146731009Y-111061904D02*
X146826247Y-111109523D01*
X146826247Y-111109523D02*
X147064342Y-111109523D01*
X147064342Y-111109523D02*
X147159580Y-111061904D01*
X147159580Y-111061904D02*
X147207200Y-111014285D01*
X147207200Y-111014285D02*
X147254819Y-110919047D01*
X147254819Y-110919047D02*
X147254819Y-110633333D01*
X147254819Y-110633333D02*
X147207200Y-110538095D01*
X147207200Y-110538095D02*
X147159580Y-110490476D01*
X146254819Y-112014285D02*
X146254819Y-111538095D01*
X146254819Y-111538095D02*
X146731009Y-111490476D01*
X146731009Y-111490476D02*
X146683390Y-111538095D01*
X146683390Y-111538095D02*
X146635771Y-111633333D01*
X146635771Y-111633333D02*
X146635771Y-111871428D01*
X146635771Y-111871428D02*
X146683390Y-111966666D01*
X146683390Y-111966666D02*
X146731009Y-112014285D01*
X146731009Y-112014285D02*
X146826247Y-112061904D01*
X146826247Y-112061904D02*
X147064342Y-112061904D01*
X147064342Y-112061904D02*
X147159580Y-112014285D01*
X147159580Y-112014285D02*
X147207200Y-111966666D01*
X147207200Y-111966666D02*
X147254819Y-111871428D01*
X147254819Y-111871428D02*
X147254819Y-111633333D01*
X147254819Y-111633333D02*
X147207200Y-111538095D01*
X147207200Y-111538095D02*
X147159580Y-111490476D01*
X154314285Y-109154819D02*
X154314285Y-108154819D01*
X154314285Y-108154819D02*
X154076190Y-108154819D01*
X154076190Y-108154819D02*
X153933333Y-108202438D01*
X153933333Y-108202438D02*
X153838095Y-108297676D01*
X153838095Y-108297676D02*
X153790476Y-108392914D01*
X153790476Y-108392914D02*
X153742857Y-108583390D01*
X153742857Y-108583390D02*
X153742857Y-108726247D01*
X153742857Y-108726247D02*
X153790476Y-108916723D01*
X153790476Y-108916723D02*
X153838095Y-109011961D01*
X153838095Y-109011961D02*
X153933333Y-109107200D01*
X153933333Y-109107200D02*
X154076190Y-109154819D01*
X154076190Y-109154819D02*
X154314285Y-109154819D01*
X152885714Y-108488152D02*
X152885714Y-109154819D01*
X153123809Y-108107200D02*
X153361904Y-108821485D01*
X153361904Y-108821485D02*
X152742857Y-108821485D01*
X152409523Y-108250057D02*
X152361904Y-108202438D01*
X152361904Y-108202438D02*
X152266666Y-108154819D01*
X152266666Y-108154819D02*
X152028571Y-108154819D01*
X152028571Y-108154819D02*
X151933333Y-108202438D01*
X151933333Y-108202438D02*
X151885714Y-108250057D01*
X151885714Y-108250057D02*
X151838095Y-108345295D01*
X151838095Y-108345295D02*
X151838095Y-108440533D01*
X151838095Y-108440533D02*
X151885714Y-108583390D01*
X151885714Y-108583390D02*
X152457142Y-109154819D01*
X152457142Y-109154819D02*
X151838095Y-109154819D01*
X219964285Y-109054819D02*
X219964285Y-108054819D01*
X219964285Y-108054819D02*
X219726190Y-108054819D01*
X219726190Y-108054819D02*
X219583333Y-108102438D01*
X219583333Y-108102438D02*
X219488095Y-108197676D01*
X219488095Y-108197676D02*
X219440476Y-108292914D01*
X219440476Y-108292914D02*
X219392857Y-108483390D01*
X219392857Y-108483390D02*
X219392857Y-108626247D01*
X219392857Y-108626247D02*
X219440476Y-108816723D01*
X219440476Y-108816723D02*
X219488095Y-108911961D01*
X219488095Y-108911961D02*
X219583333Y-109007200D01*
X219583333Y-109007200D02*
X219726190Y-109054819D01*
X219726190Y-109054819D02*
X219964285Y-109054819D01*
X219011904Y-108150057D02*
X218964285Y-108102438D01*
X218964285Y-108102438D02*
X218869047Y-108054819D01*
X218869047Y-108054819D02*
X218630952Y-108054819D01*
X218630952Y-108054819D02*
X218535714Y-108102438D01*
X218535714Y-108102438D02*
X218488095Y-108150057D01*
X218488095Y-108150057D02*
X218440476Y-108245295D01*
X218440476Y-108245295D02*
X218440476Y-108340533D01*
X218440476Y-108340533D02*
X218488095Y-108483390D01*
X218488095Y-108483390D02*
X219059523Y-109054819D01*
X219059523Y-109054819D02*
X218440476Y-109054819D01*
X218107142Y-108054819D02*
X217440476Y-108054819D01*
X217440476Y-108054819D02*
X217869047Y-109054819D01*
X161842294Y-144922318D02*
X161842294Y-145731841D01*
X161842294Y-145731841D02*
X161794675Y-145827079D01*
X161794675Y-145827079D02*
X161747056Y-145874699D01*
X161747056Y-145874699D02*
X161651818Y-145922318D01*
X161651818Y-145922318D02*
X161461342Y-145922318D01*
X161461342Y-145922318D02*
X161366104Y-145874699D01*
X161366104Y-145874699D02*
X161318485Y-145827079D01*
X161318485Y-145827079D02*
X161270866Y-145731841D01*
X161270866Y-145731841D02*
X161270866Y-144922318D01*
X160270866Y-145922318D02*
X160842294Y-145922318D01*
X160556580Y-145922318D02*
X160556580Y-144922318D01*
X160556580Y-144922318D02*
X160651818Y-145065175D01*
X160651818Y-145065175D02*
X160747056Y-145160413D01*
X160747056Y-145160413D02*
X160842294Y-145208032D01*
X159937532Y-144922318D02*
X159318485Y-144922318D01*
X159318485Y-144922318D02*
X159651818Y-145303270D01*
X159651818Y-145303270D02*
X159508961Y-145303270D01*
X159508961Y-145303270D02*
X159413723Y-145350889D01*
X159413723Y-145350889D02*
X159366104Y-145398508D01*
X159366104Y-145398508D02*
X159318485Y-145493746D01*
X159318485Y-145493746D02*
X159318485Y-145731841D01*
X159318485Y-145731841D02*
X159366104Y-145827079D01*
X159366104Y-145827079D02*
X159413723Y-145874699D01*
X159413723Y-145874699D02*
X159508961Y-145922318D01*
X159508961Y-145922318D02*
X159794675Y-145922318D01*
X159794675Y-145922318D02*
X159889913Y-145874699D01*
X159889913Y-145874699D02*
X159937532Y-145827079D01*
X148804819Y-110035714D02*
X147804819Y-110035714D01*
X147804819Y-110035714D02*
X147804819Y-110273809D01*
X147804819Y-110273809D02*
X147852438Y-110416666D01*
X147852438Y-110416666D02*
X147947676Y-110511904D01*
X147947676Y-110511904D02*
X148042914Y-110559523D01*
X148042914Y-110559523D02*
X148233390Y-110607142D01*
X148233390Y-110607142D02*
X148376247Y-110607142D01*
X148376247Y-110607142D02*
X148566723Y-110559523D01*
X148566723Y-110559523D02*
X148661961Y-110511904D01*
X148661961Y-110511904D02*
X148757200Y-110416666D01*
X148757200Y-110416666D02*
X148804819Y-110273809D01*
X148804819Y-110273809D02*
X148804819Y-110035714D01*
X148138152Y-111464285D02*
X148804819Y-111464285D01*
X147757200Y-111226190D02*
X148471485Y-110988095D01*
X148471485Y-110988095D02*
X148471485Y-111607142D01*
X147804819Y-112178571D02*
X147804819Y-112273809D01*
X147804819Y-112273809D02*
X147852438Y-112369047D01*
X147852438Y-112369047D02*
X147900057Y-112416666D01*
X147900057Y-112416666D02*
X147995295Y-112464285D01*
X147995295Y-112464285D02*
X148185771Y-112511904D01*
X148185771Y-112511904D02*
X148423866Y-112511904D01*
X148423866Y-112511904D02*
X148614342Y-112464285D01*
X148614342Y-112464285D02*
X148709580Y-112416666D01*
X148709580Y-112416666D02*
X148757200Y-112369047D01*
X148757200Y-112369047D02*
X148804819Y-112273809D01*
X148804819Y-112273809D02*
X148804819Y-112178571D01*
X148804819Y-112178571D02*
X148757200Y-112083333D01*
X148757200Y-112083333D02*
X148709580Y-112035714D01*
X148709580Y-112035714D02*
X148614342Y-111988095D01*
X148614342Y-111988095D02*
X148423866Y-111940476D01*
X148423866Y-111940476D02*
X148185771Y-111940476D01*
X148185771Y-111940476D02*
X147995295Y-111988095D01*
X147995295Y-111988095D02*
X147900057Y-112035714D01*
X147900057Y-112035714D02*
X147852438Y-112083333D01*
X147852438Y-112083333D02*
X147804819Y-112178571D01*
X213459580Y-107083333D02*
X213507200Y-107035714D01*
X213507200Y-107035714D02*
X213554819Y-106892857D01*
X213554819Y-106892857D02*
X213554819Y-106797619D01*
X213554819Y-106797619D02*
X213507200Y-106654762D01*
X213507200Y-106654762D02*
X213411961Y-106559524D01*
X213411961Y-106559524D02*
X213316723Y-106511905D01*
X213316723Y-106511905D02*
X213126247Y-106464286D01*
X213126247Y-106464286D02*
X212983390Y-106464286D01*
X212983390Y-106464286D02*
X212792914Y-106511905D01*
X212792914Y-106511905D02*
X212697676Y-106559524D01*
X212697676Y-106559524D02*
X212602438Y-106654762D01*
X212602438Y-106654762D02*
X212554819Y-106797619D01*
X212554819Y-106797619D02*
X212554819Y-106892857D01*
X212554819Y-106892857D02*
X212602438Y-107035714D01*
X212602438Y-107035714D02*
X212650057Y-107083333D01*
X212554819Y-107416667D02*
X212554819Y-108035714D01*
X212554819Y-108035714D02*
X212935771Y-107702381D01*
X212935771Y-107702381D02*
X212935771Y-107845238D01*
X212935771Y-107845238D02*
X212983390Y-107940476D01*
X212983390Y-107940476D02*
X213031009Y-107988095D01*
X213031009Y-107988095D02*
X213126247Y-108035714D01*
X213126247Y-108035714D02*
X213364342Y-108035714D01*
X213364342Y-108035714D02*
X213459580Y-107988095D01*
X213459580Y-107988095D02*
X213507200Y-107940476D01*
X213507200Y-107940476D02*
X213554819Y-107845238D01*
X213554819Y-107845238D02*
X213554819Y-107559524D01*
X213554819Y-107559524D02*
X213507200Y-107464286D01*
X213507200Y-107464286D02*
X213459580Y-107416667D01*
X197889285Y-117554819D02*
X197889285Y-116554819D01*
X197889285Y-116554819D02*
X197651190Y-116554819D01*
X197651190Y-116554819D02*
X197508333Y-116602438D01*
X197508333Y-116602438D02*
X197413095Y-116697676D01*
X197413095Y-116697676D02*
X197365476Y-116792914D01*
X197365476Y-116792914D02*
X197317857Y-116983390D01*
X197317857Y-116983390D02*
X197317857Y-117126247D01*
X197317857Y-117126247D02*
X197365476Y-117316723D01*
X197365476Y-117316723D02*
X197413095Y-117411961D01*
X197413095Y-117411961D02*
X197508333Y-117507200D01*
X197508333Y-117507200D02*
X197651190Y-117554819D01*
X197651190Y-117554819D02*
X197889285Y-117554819D01*
X196984523Y-116554819D02*
X196365476Y-116554819D01*
X196365476Y-116554819D02*
X196698809Y-116935771D01*
X196698809Y-116935771D02*
X196555952Y-116935771D01*
X196555952Y-116935771D02*
X196460714Y-116983390D01*
X196460714Y-116983390D02*
X196413095Y-117031009D01*
X196413095Y-117031009D02*
X196365476Y-117126247D01*
X196365476Y-117126247D02*
X196365476Y-117364342D01*
X196365476Y-117364342D02*
X196413095Y-117459580D01*
X196413095Y-117459580D02*
X196460714Y-117507200D01*
X196460714Y-117507200D02*
X196555952Y-117554819D01*
X196555952Y-117554819D02*
X196841666Y-117554819D01*
X196841666Y-117554819D02*
X196936904Y-117507200D01*
X196936904Y-117507200D02*
X196984523Y-117459580D01*
X195746428Y-116554819D02*
X195651190Y-116554819D01*
X195651190Y-116554819D02*
X195555952Y-116602438D01*
X195555952Y-116602438D02*
X195508333Y-116650057D01*
X195508333Y-116650057D02*
X195460714Y-116745295D01*
X195460714Y-116745295D02*
X195413095Y-116935771D01*
X195413095Y-116935771D02*
X195413095Y-117173866D01*
X195413095Y-117173866D02*
X195460714Y-117364342D01*
X195460714Y-117364342D02*
X195508333Y-117459580D01*
X195508333Y-117459580D02*
X195555952Y-117507200D01*
X195555952Y-117507200D02*
X195651190Y-117554819D01*
X195651190Y-117554819D02*
X195746428Y-117554819D01*
X195746428Y-117554819D02*
X195841666Y-117507200D01*
X195841666Y-117507200D02*
X195889285Y-117459580D01*
X195889285Y-117459580D02*
X195936904Y-117364342D01*
X195936904Y-117364342D02*
X195984523Y-117173866D01*
X195984523Y-117173866D02*
X195984523Y-116935771D01*
X195984523Y-116935771D02*
X195936904Y-116745295D01*
X195936904Y-116745295D02*
X195889285Y-116650057D01*
X195889285Y-116650057D02*
X195841666Y-116602438D01*
X195841666Y-116602438D02*
X195746428Y-116554819D01*
X150753694Y-134362318D02*
X150753694Y-135171841D01*
X150753694Y-135171841D02*
X150706075Y-135267079D01*
X150706075Y-135267079D02*
X150658456Y-135314699D01*
X150658456Y-135314699D02*
X150563218Y-135362318D01*
X150563218Y-135362318D02*
X150372742Y-135362318D01*
X150372742Y-135362318D02*
X150277504Y-135314699D01*
X150277504Y-135314699D02*
X150229885Y-135267079D01*
X150229885Y-135267079D02*
X150182266Y-135171841D01*
X150182266Y-135171841D02*
X150182266Y-134362318D01*
X149182266Y-135362318D02*
X149753694Y-135362318D01*
X149467980Y-135362318D02*
X149467980Y-134362318D01*
X149467980Y-134362318D02*
X149563218Y-134505175D01*
X149563218Y-134505175D02*
X149658456Y-134600413D01*
X149658456Y-134600413D02*
X149753694Y-134648032D01*
X148801313Y-134457556D02*
X148753694Y-134409937D01*
X148753694Y-134409937D02*
X148658456Y-134362318D01*
X148658456Y-134362318D02*
X148420361Y-134362318D01*
X148420361Y-134362318D02*
X148325123Y-134409937D01*
X148325123Y-134409937D02*
X148277504Y-134457556D01*
X148277504Y-134457556D02*
X148229885Y-134552794D01*
X148229885Y-134552794D02*
X148229885Y-134648032D01*
X148229885Y-134648032D02*
X148277504Y-134790889D01*
X148277504Y-134790889D02*
X148848932Y-135362318D01*
X148848932Y-135362318D02*
X148229885Y-135362318D01*
X140554819Y-110035714D02*
X139554819Y-110035714D01*
X139554819Y-110035714D02*
X139554819Y-110273809D01*
X139554819Y-110273809D02*
X139602438Y-110416666D01*
X139602438Y-110416666D02*
X139697676Y-110511904D01*
X139697676Y-110511904D02*
X139792914Y-110559523D01*
X139792914Y-110559523D02*
X139983390Y-110607142D01*
X139983390Y-110607142D02*
X140126247Y-110607142D01*
X140126247Y-110607142D02*
X140316723Y-110559523D01*
X140316723Y-110559523D02*
X140411961Y-110511904D01*
X140411961Y-110511904D02*
X140507200Y-110416666D01*
X140507200Y-110416666D02*
X140554819Y-110273809D01*
X140554819Y-110273809D02*
X140554819Y-110035714D01*
X139888152Y-111464285D02*
X140554819Y-111464285D01*
X139507200Y-111226190D02*
X140221485Y-110988095D01*
X140221485Y-110988095D02*
X140221485Y-111607142D01*
X140554819Y-112511904D02*
X140554819Y-111940476D01*
X140554819Y-112226190D02*
X139554819Y-112226190D01*
X139554819Y-112226190D02*
X139697676Y-112130952D01*
X139697676Y-112130952D02*
X139792914Y-112035714D01*
X139792914Y-112035714D02*
X139840533Y-111940476D01*
X220039285Y-119804819D02*
X220039285Y-118804819D01*
X220039285Y-118804819D02*
X219801190Y-118804819D01*
X219801190Y-118804819D02*
X219658333Y-118852438D01*
X219658333Y-118852438D02*
X219563095Y-118947676D01*
X219563095Y-118947676D02*
X219515476Y-119042914D01*
X219515476Y-119042914D02*
X219467857Y-119233390D01*
X219467857Y-119233390D02*
X219467857Y-119376247D01*
X219467857Y-119376247D02*
X219515476Y-119566723D01*
X219515476Y-119566723D02*
X219563095Y-119661961D01*
X219563095Y-119661961D02*
X219658333Y-119757200D01*
X219658333Y-119757200D02*
X219801190Y-119804819D01*
X219801190Y-119804819D02*
X220039285Y-119804819D01*
X219086904Y-118900057D02*
X219039285Y-118852438D01*
X219039285Y-118852438D02*
X218944047Y-118804819D01*
X218944047Y-118804819D02*
X218705952Y-118804819D01*
X218705952Y-118804819D02*
X218610714Y-118852438D01*
X218610714Y-118852438D02*
X218563095Y-118900057D01*
X218563095Y-118900057D02*
X218515476Y-118995295D01*
X218515476Y-118995295D02*
X218515476Y-119090533D01*
X218515476Y-119090533D02*
X218563095Y-119233390D01*
X218563095Y-119233390D02*
X219134523Y-119804819D01*
X219134523Y-119804819D02*
X218515476Y-119804819D01*
X218039285Y-119804819D02*
X217848809Y-119804819D01*
X217848809Y-119804819D02*
X217753571Y-119757200D01*
X217753571Y-119757200D02*
X217705952Y-119709580D01*
X217705952Y-119709580D02*
X217610714Y-119566723D01*
X217610714Y-119566723D02*
X217563095Y-119376247D01*
X217563095Y-119376247D02*
X217563095Y-118995295D01*
X217563095Y-118995295D02*
X217610714Y-118900057D01*
X217610714Y-118900057D02*
X217658333Y-118852438D01*
X217658333Y-118852438D02*
X217753571Y-118804819D01*
X217753571Y-118804819D02*
X217944047Y-118804819D01*
X217944047Y-118804819D02*
X218039285Y-118852438D01*
X218039285Y-118852438D02*
X218086904Y-118900057D01*
X218086904Y-118900057D02*
X218134523Y-118995295D01*
X218134523Y-118995295D02*
X218134523Y-119233390D01*
X218134523Y-119233390D02*
X218086904Y-119328628D01*
X218086904Y-119328628D02*
X218039285Y-119376247D01*
X218039285Y-119376247D02*
X217944047Y-119423866D01*
X217944047Y-119423866D02*
X217753571Y-119423866D01*
X217753571Y-119423866D02*
X217658333Y-119376247D01*
X217658333Y-119376247D02*
X217610714Y-119328628D01*
X217610714Y-119328628D02*
X217563095Y-119233390D01*
X219989285Y-113254819D02*
X219989285Y-112254819D01*
X219989285Y-112254819D02*
X219751190Y-112254819D01*
X219751190Y-112254819D02*
X219608333Y-112302438D01*
X219608333Y-112302438D02*
X219513095Y-112397676D01*
X219513095Y-112397676D02*
X219465476Y-112492914D01*
X219465476Y-112492914D02*
X219417857Y-112683390D01*
X219417857Y-112683390D02*
X219417857Y-112826247D01*
X219417857Y-112826247D02*
X219465476Y-113016723D01*
X219465476Y-113016723D02*
X219513095Y-113111961D01*
X219513095Y-113111961D02*
X219608333Y-113207200D01*
X219608333Y-113207200D02*
X219751190Y-113254819D01*
X219751190Y-113254819D02*
X219989285Y-113254819D01*
X218465476Y-113254819D02*
X219036904Y-113254819D01*
X218751190Y-113254819D02*
X218751190Y-112254819D01*
X218751190Y-112254819D02*
X218846428Y-112397676D01*
X218846428Y-112397676D02*
X218941666Y-112492914D01*
X218941666Y-112492914D02*
X219036904Y-112540533D01*
X217513095Y-113254819D02*
X218084523Y-113254819D01*
X217798809Y-113254819D02*
X217798809Y-112254819D01*
X217798809Y-112254819D02*
X217894047Y-112397676D01*
X217894047Y-112397676D02*
X217989285Y-112492914D01*
X217989285Y-112492914D02*
X218084523Y-112540533D01*
X150843219Y-129438495D02*
X151652742Y-129438495D01*
X151652742Y-129438495D02*
X151747980Y-129486114D01*
X151747980Y-129486114D02*
X151795600Y-129533733D01*
X151795600Y-129533733D02*
X151843219Y-129628971D01*
X151843219Y-129628971D02*
X151843219Y-129819447D01*
X151843219Y-129819447D02*
X151795600Y-129914685D01*
X151795600Y-129914685D02*
X151747980Y-129962304D01*
X151747980Y-129962304D02*
X151652742Y-130009923D01*
X151652742Y-130009923D02*
X150843219Y-130009923D01*
X150843219Y-130390876D02*
X150843219Y-131009923D01*
X150843219Y-131009923D02*
X151224171Y-130676590D01*
X151224171Y-130676590D02*
X151224171Y-130819447D01*
X151224171Y-130819447D02*
X151271790Y-130914685D01*
X151271790Y-130914685D02*
X151319409Y-130962304D01*
X151319409Y-130962304D02*
X151414647Y-131009923D01*
X151414647Y-131009923D02*
X151652742Y-131009923D01*
X151652742Y-131009923D02*
X151747980Y-130962304D01*
X151747980Y-130962304D02*
X151795600Y-130914685D01*
X151795600Y-130914685D02*
X151843219Y-130819447D01*
X151843219Y-130819447D02*
X151843219Y-130533733D01*
X151843219Y-130533733D02*
X151795600Y-130438495D01*
X151795600Y-130438495D02*
X151747980Y-130390876D01*
X226304819Y-151607142D02*
X225828628Y-151273809D01*
X226304819Y-151035714D02*
X225304819Y-151035714D01*
X225304819Y-151035714D02*
X225304819Y-151416666D01*
X225304819Y-151416666D02*
X225352438Y-151511904D01*
X225352438Y-151511904D02*
X225400057Y-151559523D01*
X225400057Y-151559523D02*
X225495295Y-151607142D01*
X225495295Y-151607142D02*
X225638152Y-151607142D01*
X225638152Y-151607142D02*
X225733390Y-151559523D01*
X225733390Y-151559523D02*
X225781009Y-151511904D01*
X225781009Y-151511904D02*
X225828628Y-151416666D01*
X225828628Y-151416666D02*
X225828628Y-151035714D01*
X226304819Y-152559523D02*
X226304819Y-151988095D01*
X226304819Y-152273809D02*
X225304819Y-152273809D01*
X225304819Y-152273809D02*
X225447676Y-152178571D01*
X225447676Y-152178571D02*
X225542914Y-152083333D01*
X225542914Y-152083333D02*
X225590533Y-151988095D01*
X225304819Y-152892857D02*
X225304819Y-153511904D01*
X225304819Y-153511904D02*
X225685771Y-153178571D01*
X225685771Y-153178571D02*
X225685771Y-153321428D01*
X225685771Y-153321428D02*
X225733390Y-153416666D01*
X225733390Y-153416666D02*
X225781009Y-153464285D01*
X225781009Y-153464285D02*
X225876247Y-153511904D01*
X225876247Y-153511904D02*
X226114342Y-153511904D01*
X226114342Y-153511904D02*
X226209580Y-153464285D01*
X226209580Y-153464285D02*
X226257200Y-153416666D01*
X226257200Y-153416666D02*
X226304819Y-153321428D01*
X226304819Y-153321428D02*
X226304819Y-153035714D01*
X226304819Y-153035714D02*
X226257200Y-152940476D01*
X226257200Y-152940476D02*
X226209580Y-152892857D01*
X148214285Y-131204819D02*
X148214285Y-130204819D01*
X148214285Y-130204819D02*
X147976190Y-130204819D01*
X147976190Y-130204819D02*
X147833333Y-130252438D01*
X147833333Y-130252438D02*
X147738095Y-130347676D01*
X147738095Y-130347676D02*
X147690476Y-130442914D01*
X147690476Y-130442914D02*
X147642857Y-130633390D01*
X147642857Y-130633390D02*
X147642857Y-130776247D01*
X147642857Y-130776247D02*
X147690476Y-130966723D01*
X147690476Y-130966723D02*
X147738095Y-131061961D01*
X147738095Y-131061961D02*
X147833333Y-131157200D01*
X147833333Y-131157200D02*
X147976190Y-131204819D01*
X147976190Y-131204819D02*
X148214285Y-131204819D01*
X146738095Y-130204819D02*
X147214285Y-130204819D01*
X147214285Y-130204819D02*
X147261904Y-130681009D01*
X147261904Y-130681009D02*
X147214285Y-130633390D01*
X147214285Y-130633390D02*
X147119047Y-130585771D01*
X147119047Y-130585771D02*
X146880952Y-130585771D01*
X146880952Y-130585771D02*
X146785714Y-130633390D01*
X146785714Y-130633390D02*
X146738095Y-130681009D01*
X146738095Y-130681009D02*
X146690476Y-130776247D01*
X146690476Y-130776247D02*
X146690476Y-131014342D01*
X146690476Y-131014342D02*
X146738095Y-131109580D01*
X146738095Y-131109580D02*
X146785714Y-131157200D01*
X146785714Y-131157200D02*
X146880952Y-131204819D01*
X146880952Y-131204819D02*
X147119047Y-131204819D01*
X147119047Y-131204819D02*
X147214285Y-131157200D01*
X147214285Y-131157200D02*
X147261904Y-131109580D01*
X146119047Y-130633390D02*
X146214285Y-130585771D01*
X146214285Y-130585771D02*
X146261904Y-130538152D01*
X146261904Y-130538152D02*
X146309523Y-130442914D01*
X146309523Y-130442914D02*
X146309523Y-130395295D01*
X146309523Y-130395295D02*
X146261904Y-130300057D01*
X146261904Y-130300057D02*
X146214285Y-130252438D01*
X146214285Y-130252438D02*
X146119047Y-130204819D01*
X146119047Y-130204819D02*
X145928571Y-130204819D01*
X145928571Y-130204819D02*
X145833333Y-130252438D01*
X145833333Y-130252438D02*
X145785714Y-130300057D01*
X145785714Y-130300057D02*
X145738095Y-130395295D01*
X145738095Y-130395295D02*
X145738095Y-130442914D01*
X145738095Y-130442914D02*
X145785714Y-130538152D01*
X145785714Y-130538152D02*
X145833333Y-130585771D01*
X145833333Y-130585771D02*
X145928571Y-130633390D01*
X145928571Y-130633390D02*
X146119047Y-130633390D01*
X146119047Y-130633390D02*
X146214285Y-130681009D01*
X146214285Y-130681009D02*
X146261904Y-130728628D01*
X146261904Y-130728628D02*
X146309523Y-130823866D01*
X146309523Y-130823866D02*
X146309523Y-131014342D01*
X146309523Y-131014342D02*
X146261904Y-131109580D01*
X146261904Y-131109580D02*
X146214285Y-131157200D01*
X146214285Y-131157200D02*
X146119047Y-131204819D01*
X146119047Y-131204819D02*
X145928571Y-131204819D01*
X145928571Y-131204819D02*
X145833333Y-131157200D01*
X145833333Y-131157200D02*
X145785714Y-131109580D01*
X145785714Y-131109580D02*
X145738095Y-131014342D01*
X145738095Y-131014342D02*
X145738095Y-130823866D01*
X145738095Y-130823866D02*
X145785714Y-130728628D01*
X145785714Y-130728628D02*
X145833333Y-130681009D01*
X145833333Y-130681009D02*
X145928571Y-130633390D01*
X147604819Y-146310714D02*
X146604819Y-146310714D01*
X146604819Y-146310714D02*
X146604819Y-146548809D01*
X146604819Y-146548809D02*
X146652438Y-146691666D01*
X146652438Y-146691666D02*
X146747676Y-146786904D01*
X146747676Y-146786904D02*
X146842914Y-146834523D01*
X146842914Y-146834523D02*
X147033390Y-146882142D01*
X147033390Y-146882142D02*
X147176247Y-146882142D01*
X147176247Y-146882142D02*
X147366723Y-146834523D01*
X147366723Y-146834523D02*
X147461961Y-146786904D01*
X147461961Y-146786904D02*
X147557200Y-146691666D01*
X147557200Y-146691666D02*
X147604819Y-146548809D01*
X147604819Y-146548809D02*
X147604819Y-146310714D01*
X146604819Y-147786904D02*
X146604819Y-147310714D01*
X146604819Y-147310714D02*
X147081009Y-147263095D01*
X147081009Y-147263095D02*
X147033390Y-147310714D01*
X147033390Y-147310714D02*
X146985771Y-147405952D01*
X146985771Y-147405952D02*
X146985771Y-147644047D01*
X146985771Y-147644047D02*
X147033390Y-147739285D01*
X147033390Y-147739285D02*
X147081009Y-147786904D01*
X147081009Y-147786904D02*
X147176247Y-147834523D01*
X147176247Y-147834523D02*
X147414342Y-147834523D01*
X147414342Y-147834523D02*
X147509580Y-147786904D01*
X147509580Y-147786904D02*
X147557200Y-147739285D01*
X147557200Y-147739285D02*
X147604819Y-147644047D01*
X147604819Y-147644047D02*
X147604819Y-147405952D01*
X147604819Y-147405952D02*
X147557200Y-147310714D01*
X147557200Y-147310714D02*
X147509580Y-147263095D01*
X146604819Y-148167857D02*
X146604819Y-148834523D01*
X146604819Y-148834523D02*
X147604819Y-148405952D01*
X125017666Y-152450819D02*
X125350999Y-151974628D01*
X125589094Y-152450819D02*
X125589094Y-151450819D01*
X125589094Y-151450819D02*
X125208142Y-151450819D01*
X125208142Y-151450819D02*
X125112904Y-151498438D01*
X125112904Y-151498438D02*
X125065285Y-151546057D01*
X125065285Y-151546057D02*
X125017666Y-151641295D01*
X125017666Y-151641295D02*
X125017666Y-151784152D01*
X125017666Y-151784152D02*
X125065285Y-151879390D01*
X125065285Y-151879390D02*
X125112904Y-151927009D01*
X125112904Y-151927009D02*
X125208142Y-151974628D01*
X125208142Y-151974628D02*
X125589094Y-151974628D01*
X124160523Y-151450819D02*
X124350999Y-151450819D01*
X124350999Y-151450819D02*
X124446237Y-151498438D01*
X124446237Y-151498438D02*
X124493856Y-151546057D01*
X124493856Y-151546057D02*
X124589094Y-151688914D01*
X124589094Y-151688914D02*
X124636713Y-151879390D01*
X124636713Y-151879390D02*
X124636713Y-152260342D01*
X124636713Y-152260342D02*
X124589094Y-152355580D01*
X124589094Y-152355580D02*
X124541475Y-152403200D01*
X124541475Y-152403200D02*
X124446237Y-152450819D01*
X124446237Y-152450819D02*
X124255761Y-152450819D01*
X124255761Y-152450819D02*
X124160523Y-152403200D01*
X124160523Y-152403200D02*
X124112904Y-152355580D01*
X124112904Y-152355580D02*
X124065285Y-152260342D01*
X124065285Y-152260342D02*
X124065285Y-152022247D01*
X124065285Y-152022247D02*
X124112904Y-151927009D01*
X124112904Y-151927009D02*
X124160523Y-151879390D01*
X124160523Y-151879390D02*
X124255761Y-151831771D01*
X124255761Y-151831771D02*
X124446237Y-151831771D01*
X124446237Y-151831771D02*
X124541475Y-151879390D01*
X124541475Y-151879390D02*
X124589094Y-151927009D01*
X124589094Y-151927009D02*
X124636713Y-152022247D01*
X205961904Y-110704819D02*
X205961904Y-111514342D01*
X205961904Y-111514342D02*
X205914285Y-111609580D01*
X205914285Y-111609580D02*
X205866666Y-111657200D01*
X205866666Y-111657200D02*
X205771428Y-111704819D01*
X205771428Y-111704819D02*
X205580952Y-111704819D01*
X205580952Y-111704819D02*
X205485714Y-111657200D01*
X205485714Y-111657200D02*
X205438095Y-111609580D01*
X205438095Y-111609580D02*
X205390476Y-111514342D01*
X205390476Y-111514342D02*
X205390476Y-110704819D01*
X204961904Y-110800057D02*
X204914285Y-110752438D01*
X204914285Y-110752438D02*
X204819047Y-110704819D01*
X204819047Y-110704819D02*
X204580952Y-110704819D01*
X204580952Y-110704819D02*
X204485714Y-110752438D01*
X204485714Y-110752438D02*
X204438095Y-110800057D01*
X204438095Y-110800057D02*
X204390476Y-110895295D01*
X204390476Y-110895295D02*
X204390476Y-110990533D01*
X204390476Y-110990533D02*
X204438095Y-111133390D01*
X204438095Y-111133390D02*
X205009523Y-111704819D01*
X205009523Y-111704819D02*
X204390476Y-111704819D01*
X164714285Y-147304819D02*
X164714285Y-146304819D01*
X164714285Y-146304819D02*
X164476190Y-146304819D01*
X164476190Y-146304819D02*
X164333333Y-146352438D01*
X164333333Y-146352438D02*
X164238095Y-146447676D01*
X164238095Y-146447676D02*
X164190476Y-146542914D01*
X164190476Y-146542914D02*
X164142857Y-146733390D01*
X164142857Y-146733390D02*
X164142857Y-146876247D01*
X164142857Y-146876247D02*
X164190476Y-147066723D01*
X164190476Y-147066723D02*
X164238095Y-147161961D01*
X164238095Y-147161961D02*
X164333333Y-147257200D01*
X164333333Y-147257200D02*
X164476190Y-147304819D01*
X164476190Y-147304819D02*
X164714285Y-147304819D01*
X163285714Y-146304819D02*
X163476190Y-146304819D01*
X163476190Y-146304819D02*
X163571428Y-146352438D01*
X163571428Y-146352438D02*
X163619047Y-146400057D01*
X163619047Y-146400057D02*
X163714285Y-146542914D01*
X163714285Y-146542914D02*
X163761904Y-146733390D01*
X163761904Y-146733390D02*
X163761904Y-147114342D01*
X163761904Y-147114342D02*
X163714285Y-147209580D01*
X163714285Y-147209580D02*
X163666666Y-147257200D01*
X163666666Y-147257200D02*
X163571428Y-147304819D01*
X163571428Y-147304819D02*
X163380952Y-147304819D01*
X163380952Y-147304819D02*
X163285714Y-147257200D01*
X163285714Y-147257200D02*
X163238095Y-147209580D01*
X163238095Y-147209580D02*
X163190476Y-147114342D01*
X163190476Y-147114342D02*
X163190476Y-146876247D01*
X163190476Y-146876247D02*
X163238095Y-146781009D01*
X163238095Y-146781009D02*
X163285714Y-146733390D01*
X163285714Y-146733390D02*
X163380952Y-146685771D01*
X163380952Y-146685771D02*
X163571428Y-146685771D01*
X163571428Y-146685771D02*
X163666666Y-146733390D01*
X163666666Y-146733390D02*
X163714285Y-146781009D01*
X163714285Y-146781009D02*
X163761904Y-146876247D01*
X162571428Y-146304819D02*
X162476190Y-146304819D01*
X162476190Y-146304819D02*
X162380952Y-146352438D01*
X162380952Y-146352438D02*
X162333333Y-146400057D01*
X162333333Y-146400057D02*
X162285714Y-146495295D01*
X162285714Y-146495295D02*
X162238095Y-146685771D01*
X162238095Y-146685771D02*
X162238095Y-146923866D01*
X162238095Y-146923866D02*
X162285714Y-147114342D01*
X162285714Y-147114342D02*
X162333333Y-147209580D01*
X162333333Y-147209580D02*
X162380952Y-147257200D01*
X162380952Y-147257200D02*
X162476190Y-147304819D01*
X162476190Y-147304819D02*
X162571428Y-147304819D01*
X162571428Y-147304819D02*
X162666666Y-147257200D01*
X162666666Y-147257200D02*
X162714285Y-147209580D01*
X162714285Y-147209580D02*
X162761904Y-147114342D01*
X162761904Y-147114342D02*
X162809523Y-146923866D01*
X162809523Y-146923866D02*
X162809523Y-146685771D01*
X162809523Y-146685771D02*
X162761904Y-146495295D01*
X162761904Y-146495295D02*
X162714285Y-146400057D01*
X162714285Y-146400057D02*
X162666666Y-146352438D01*
X162666666Y-146352438D02*
X162571428Y-146304819D01*
X219964285Y-121904819D02*
X219964285Y-120904819D01*
X219964285Y-120904819D02*
X219726190Y-120904819D01*
X219726190Y-120904819D02*
X219583333Y-120952438D01*
X219583333Y-120952438D02*
X219488095Y-121047676D01*
X219488095Y-121047676D02*
X219440476Y-121142914D01*
X219440476Y-121142914D02*
X219392857Y-121333390D01*
X219392857Y-121333390D02*
X219392857Y-121476247D01*
X219392857Y-121476247D02*
X219440476Y-121666723D01*
X219440476Y-121666723D02*
X219488095Y-121761961D01*
X219488095Y-121761961D02*
X219583333Y-121857200D01*
X219583333Y-121857200D02*
X219726190Y-121904819D01*
X219726190Y-121904819D02*
X219964285Y-121904819D01*
X218440476Y-121904819D02*
X219011904Y-121904819D01*
X218726190Y-121904819D02*
X218726190Y-120904819D01*
X218726190Y-120904819D02*
X218821428Y-121047676D01*
X218821428Y-121047676D02*
X218916666Y-121142914D01*
X218916666Y-121142914D02*
X219011904Y-121190533D01*
X217535714Y-120904819D02*
X218011904Y-120904819D01*
X218011904Y-120904819D02*
X218059523Y-121381009D01*
X218059523Y-121381009D02*
X218011904Y-121333390D01*
X218011904Y-121333390D02*
X217916666Y-121285771D01*
X217916666Y-121285771D02*
X217678571Y-121285771D01*
X217678571Y-121285771D02*
X217583333Y-121333390D01*
X217583333Y-121333390D02*
X217535714Y-121381009D01*
X217535714Y-121381009D02*
X217488095Y-121476247D01*
X217488095Y-121476247D02*
X217488095Y-121714342D01*
X217488095Y-121714342D02*
X217535714Y-121809580D01*
X217535714Y-121809580D02*
X217583333Y-121857200D01*
X217583333Y-121857200D02*
X217678571Y-121904819D01*
X217678571Y-121904819D02*
X217916666Y-121904819D01*
X217916666Y-121904819D02*
X218011904Y-121857200D01*
X218011904Y-121857200D02*
X218059523Y-121809580D01*
X188916666Y-152004819D02*
X189249999Y-151528628D01*
X189488094Y-152004819D02*
X189488094Y-151004819D01*
X189488094Y-151004819D02*
X189107142Y-151004819D01*
X189107142Y-151004819D02*
X189011904Y-151052438D01*
X189011904Y-151052438D02*
X188964285Y-151100057D01*
X188964285Y-151100057D02*
X188916666Y-151195295D01*
X188916666Y-151195295D02*
X188916666Y-151338152D01*
X188916666Y-151338152D02*
X188964285Y-151433390D01*
X188964285Y-151433390D02*
X189011904Y-151481009D01*
X189011904Y-151481009D02*
X189107142Y-151528628D01*
X189107142Y-151528628D02*
X189488094Y-151528628D01*
X188345237Y-151433390D02*
X188440475Y-151385771D01*
X188440475Y-151385771D02*
X188488094Y-151338152D01*
X188488094Y-151338152D02*
X188535713Y-151242914D01*
X188535713Y-151242914D02*
X188535713Y-151195295D01*
X188535713Y-151195295D02*
X188488094Y-151100057D01*
X188488094Y-151100057D02*
X188440475Y-151052438D01*
X188440475Y-151052438D02*
X188345237Y-151004819D01*
X188345237Y-151004819D02*
X188154761Y-151004819D01*
X188154761Y-151004819D02*
X188059523Y-151052438D01*
X188059523Y-151052438D02*
X188011904Y-151100057D01*
X188011904Y-151100057D02*
X187964285Y-151195295D01*
X187964285Y-151195295D02*
X187964285Y-151242914D01*
X187964285Y-151242914D02*
X188011904Y-151338152D01*
X188011904Y-151338152D02*
X188059523Y-151385771D01*
X188059523Y-151385771D02*
X188154761Y-151433390D01*
X188154761Y-151433390D02*
X188345237Y-151433390D01*
X188345237Y-151433390D02*
X188440475Y-151481009D01*
X188440475Y-151481009D02*
X188488094Y-151528628D01*
X188488094Y-151528628D02*
X188535713Y-151623866D01*
X188535713Y-151623866D02*
X188535713Y-151814342D01*
X188535713Y-151814342D02*
X188488094Y-151909580D01*
X188488094Y-151909580D02*
X188440475Y-151957200D01*
X188440475Y-151957200D02*
X188345237Y-152004819D01*
X188345237Y-152004819D02*
X188154761Y-152004819D01*
X188154761Y-152004819D02*
X188059523Y-151957200D01*
X188059523Y-151957200D02*
X188011904Y-151909580D01*
X188011904Y-151909580D02*
X187964285Y-151814342D01*
X187964285Y-151814342D02*
X187964285Y-151623866D01*
X187964285Y-151623866D02*
X188011904Y-151528628D01*
X188011904Y-151528628D02*
X188059523Y-151481009D01*
X188059523Y-151481009D02*
X188154761Y-151433390D01*
X119775238Y-154490057D02*
X119870476Y-154442438D01*
X119870476Y-154442438D02*
X119965714Y-154347200D01*
X119965714Y-154347200D02*
X120108571Y-154204342D01*
X120108571Y-154204342D02*
X120203809Y-154156723D01*
X120203809Y-154156723D02*
X120299047Y-154156723D01*
X120251428Y-154394819D02*
X120346666Y-154347200D01*
X120346666Y-154347200D02*
X120441904Y-154251961D01*
X120441904Y-154251961D02*
X120489523Y-154061485D01*
X120489523Y-154061485D02*
X120489523Y-153728152D01*
X120489523Y-153728152D02*
X120441904Y-153537676D01*
X120441904Y-153537676D02*
X120346666Y-153442438D01*
X120346666Y-153442438D02*
X120251428Y-153394819D01*
X120251428Y-153394819D02*
X120060952Y-153394819D01*
X120060952Y-153394819D02*
X119965714Y-153442438D01*
X119965714Y-153442438D02*
X119870476Y-153537676D01*
X119870476Y-153537676D02*
X119822857Y-153728152D01*
X119822857Y-153728152D02*
X119822857Y-154061485D01*
X119822857Y-154061485D02*
X119870476Y-154251961D01*
X119870476Y-154251961D02*
X119965714Y-154347200D01*
X119965714Y-154347200D02*
X120060952Y-154394819D01*
X120060952Y-154394819D02*
X120251428Y-154394819D01*
X119489523Y-153394819D02*
X118870476Y-153394819D01*
X118870476Y-153394819D02*
X119203809Y-153775771D01*
X119203809Y-153775771D02*
X119060952Y-153775771D01*
X119060952Y-153775771D02*
X118965714Y-153823390D01*
X118965714Y-153823390D02*
X118918095Y-153871009D01*
X118918095Y-153871009D02*
X118870476Y-153966247D01*
X118870476Y-153966247D02*
X118870476Y-154204342D01*
X118870476Y-154204342D02*
X118918095Y-154299580D01*
X118918095Y-154299580D02*
X118965714Y-154347200D01*
X118965714Y-154347200D02*
X119060952Y-154394819D01*
X119060952Y-154394819D02*
X119346666Y-154394819D01*
X119346666Y-154394819D02*
X119441904Y-154347200D01*
X119441904Y-154347200D02*
X119489523Y-154299580D01*
X117666666Y-136929580D02*
X117714285Y-136977200D01*
X117714285Y-136977200D02*
X117857142Y-137024819D01*
X117857142Y-137024819D02*
X117952380Y-137024819D01*
X117952380Y-137024819D02*
X118095237Y-136977200D01*
X118095237Y-136977200D02*
X118190475Y-136881961D01*
X118190475Y-136881961D02*
X118238094Y-136786723D01*
X118238094Y-136786723D02*
X118285713Y-136596247D01*
X118285713Y-136596247D02*
X118285713Y-136453390D01*
X118285713Y-136453390D02*
X118238094Y-136262914D01*
X118238094Y-136262914D02*
X118190475Y-136167676D01*
X118190475Y-136167676D02*
X118095237Y-136072438D01*
X118095237Y-136072438D02*
X117952380Y-136024819D01*
X117952380Y-136024819D02*
X117857142Y-136024819D01*
X117857142Y-136024819D02*
X117714285Y-136072438D01*
X117714285Y-136072438D02*
X117666666Y-136120057D01*
X116714285Y-137024819D02*
X117285713Y-137024819D01*
X116999999Y-137024819D02*
X116999999Y-136024819D01*
X116999999Y-136024819D02*
X117095237Y-136167676D01*
X117095237Y-136167676D02*
X117190475Y-136262914D01*
X117190475Y-136262914D02*
X117285713Y-136310533D01*
X154254819Y-148185714D02*
X153254819Y-148185714D01*
X153254819Y-148185714D02*
X153254819Y-148423809D01*
X153254819Y-148423809D02*
X153302438Y-148566666D01*
X153302438Y-148566666D02*
X153397676Y-148661904D01*
X153397676Y-148661904D02*
X153492914Y-148709523D01*
X153492914Y-148709523D02*
X153683390Y-148757142D01*
X153683390Y-148757142D02*
X153826247Y-148757142D01*
X153826247Y-148757142D02*
X154016723Y-148709523D01*
X154016723Y-148709523D02*
X154111961Y-148661904D01*
X154111961Y-148661904D02*
X154207200Y-148566666D01*
X154207200Y-148566666D02*
X154254819Y-148423809D01*
X154254819Y-148423809D02*
X154254819Y-148185714D01*
X153588152Y-149614285D02*
X154254819Y-149614285D01*
X153207200Y-149376190D02*
X153921485Y-149138095D01*
X153921485Y-149138095D02*
X153921485Y-149757142D01*
X153254819Y-150614285D02*
X153254819Y-150138095D01*
X153254819Y-150138095D02*
X153731009Y-150090476D01*
X153731009Y-150090476D02*
X153683390Y-150138095D01*
X153683390Y-150138095D02*
X153635771Y-150233333D01*
X153635771Y-150233333D02*
X153635771Y-150471428D01*
X153635771Y-150471428D02*
X153683390Y-150566666D01*
X153683390Y-150566666D02*
X153731009Y-150614285D01*
X153731009Y-150614285D02*
X153826247Y-150661904D01*
X153826247Y-150661904D02*
X154064342Y-150661904D01*
X154064342Y-150661904D02*
X154159580Y-150614285D01*
X154159580Y-150614285D02*
X154207200Y-150566666D01*
X154207200Y-150566666D02*
X154254819Y-150471428D01*
X154254819Y-150471428D02*
X154254819Y-150233333D01*
X154254819Y-150233333D02*
X154207200Y-150138095D01*
X154207200Y-150138095D02*
X154159580Y-150090476D01*
X190659580Y-140233333D02*
X190707200Y-140185714D01*
X190707200Y-140185714D02*
X190754819Y-140042857D01*
X190754819Y-140042857D02*
X190754819Y-139947619D01*
X190754819Y-139947619D02*
X190707200Y-139804762D01*
X190707200Y-139804762D02*
X190611961Y-139709524D01*
X190611961Y-139709524D02*
X190516723Y-139661905D01*
X190516723Y-139661905D02*
X190326247Y-139614286D01*
X190326247Y-139614286D02*
X190183390Y-139614286D01*
X190183390Y-139614286D02*
X189992914Y-139661905D01*
X189992914Y-139661905D02*
X189897676Y-139709524D01*
X189897676Y-139709524D02*
X189802438Y-139804762D01*
X189802438Y-139804762D02*
X189754819Y-139947619D01*
X189754819Y-139947619D02*
X189754819Y-140042857D01*
X189754819Y-140042857D02*
X189802438Y-140185714D01*
X189802438Y-140185714D02*
X189850057Y-140233333D01*
X189754819Y-141138095D02*
X189754819Y-140661905D01*
X189754819Y-140661905D02*
X190231009Y-140614286D01*
X190231009Y-140614286D02*
X190183390Y-140661905D01*
X190183390Y-140661905D02*
X190135771Y-140757143D01*
X190135771Y-140757143D02*
X190135771Y-140995238D01*
X190135771Y-140995238D02*
X190183390Y-141090476D01*
X190183390Y-141090476D02*
X190231009Y-141138095D01*
X190231009Y-141138095D02*
X190326247Y-141185714D01*
X190326247Y-141185714D02*
X190564342Y-141185714D01*
X190564342Y-141185714D02*
X190659580Y-141138095D01*
X190659580Y-141138095D02*
X190707200Y-141090476D01*
X190707200Y-141090476D02*
X190754819Y-140995238D01*
X190754819Y-140995238D02*
X190754819Y-140757143D01*
X190754819Y-140757143D02*
X190707200Y-140661905D01*
X190707200Y-140661905D02*
X190659580Y-140614286D01*
X172154694Y-125334019D02*
X172154694Y-126143542D01*
X172154694Y-126143542D02*
X172107075Y-126238780D01*
X172107075Y-126238780D02*
X172059456Y-126286400D01*
X172059456Y-126286400D02*
X171964218Y-126334019D01*
X171964218Y-126334019D02*
X171773742Y-126334019D01*
X171773742Y-126334019D02*
X171678504Y-126286400D01*
X171678504Y-126286400D02*
X171630885Y-126238780D01*
X171630885Y-126238780D02*
X171583266Y-126143542D01*
X171583266Y-126143542D02*
X171583266Y-125334019D01*
X170583266Y-126334019D02*
X171154694Y-126334019D01*
X170868980Y-126334019D02*
X170868980Y-125334019D01*
X170868980Y-125334019D02*
X170964218Y-125476876D01*
X170964218Y-125476876D02*
X171059456Y-125572114D01*
X171059456Y-125572114D02*
X171154694Y-125619733D01*
X169964218Y-125334019D02*
X169868980Y-125334019D01*
X169868980Y-125334019D02*
X169773742Y-125381638D01*
X169773742Y-125381638D02*
X169726123Y-125429257D01*
X169726123Y-125429257D02*
X169678504Y-125524495D01*
X169678504Y-125524495D02*
X169630885Y-125714971D01*
X169630885Y-125714971D02*
X169630885Y-125953066D01*
X169630885Y-125953066D02*
X169678504Y-126143542D01*
X169678504Y-126143542D02*
X169726123Y-126238780D01*
X169726123Y-126238780D02*
X169773742Y-126286400D01*
X169773742Y-126286400D02*
X169868980Y-126334019D01*
X169868980Y-126334019D02*
X169964218Y-126334019D01*
X169964218Y-126334019D02*
X170059456Y-126286400D01*
X170059456Y-126286400D02*
X170107075Y-126238780D01*
X170107075Y-126238780D02*
X170154694Y-126143542D01*
X170154694Y-126143542D02*
X170202313Y-125953066D01*
X170202313Y-125953066D02*
X170202313Y-125714971D01*
X170202313Y-125714971D02*
X170154694Y-125524495D01*
X170154694Y-125524495D02*
X170107075Y-125429257D01*
X170107075Y-125429257D02*
X170059456Y-125381638D01*
X170059456Y-125381638D02*
X169964218Y-125334019D01*
X205459580Y-127183333D02*
X205507200Y-127135714D01*
X205507200Y-127135714D02*
X205554819Y-126992857D01*
X205554819Y-126992857D02*
X205554819Y-126897619D01*
X205554819Y-126897619D02*
X205507200Y-126754762D01*
X205507200Y-126754762D02*
X205411961Y-126659524D01*
X205411961Y-126659524D02*
X205316723Y-126611905D01*
X205316723Y-126611905D02*
X205126247Y-126564286D01*
X205126247Y-126564286D02*
X204983390Y-126564286D01*
X204983390Y-126564286D02*
X204792914Y-126611905D01*
X204792914Y-126611905D02*
X204697676Y-126659524D01*
X204697676Y-126659524D02*
X204602438Y-126754762D01*
X204602438Y-126754762D02*
X204554819Y-126897619D01*
X204554819Y-126897619D02*
X204554819Y-126992857D01*
X204554819Y-126992857D02*
X204602438Y-127135714D01*
X204602438Y-127135714D02*
X204650057Y-127183333D01*
X204554819Y-128040476D02*
X204554819Y-127850000D01*
X204554819Y-127850000D02*
X204602438Y-127754762D01*
X204602438Y-127754762D02*
X204650057Y-127707143D01*
X204650057Y-127707143D02*
X204792914Y-127611905D01*
X204792914Y-127611905D02*
X204983390Y-127564286D01*
X204983390Y-127564286D02*
X205364342Y-127564286D01*
X205364342Y-127564286D02*
X205459580Y-127611905D01*
X205459580Y-127611905D02*
X205507200Y-127659524D01*
X205507200Y-127659524D02*
X205554819Y-127754762D01*
X205554819Y-127754762D02*
X205554819Y-127945238D01*
X205554819Y-127945238D02*
X205507200Y-128040476D01*
X205507200Y-128040476D02*
X205459580Y-128088095D01*
X205459580Y-128088095D02*
X205364342Y-128135714D01*
X205364342Y-128135714D02*
X205126247Y-128135714D01*
X205126247Y-128135714D02*
X205031009Y-128088095D01*
X205031009Y-128088095D02*
X204983390Y-128040476D01*
X204983390Y-128040476D02*
X204935771Y-127945238D01*
X204935771Y-127945238D02*
X204935771Y-127754762D01*
X204935771Y-127754762D02*
X204983390Y-127659524D01*
X204983390Y-127659524D02*
X205031009Y-127611905D01*
X205031009Y-127611905D02*
X205126247Y-127564286D01*
X210254819Y-145407142D02*
X209778628Y-145073809D01*
X210254819Y-144835714D02*
X209254819Y-144835714D01*
X209254819Y-144835714D02*
X209254819Y-145216666D01*
X209254819Y-145216666D02*
X209302438Y-145311904D01*
X209302438Y-145311904D02*
X209350057Y-145359523D01*
X209350057Y-145359523D02*
X209445295Y-145407142D01*
X209445295Y-145407142D02*
X209588152Y-145407142D01*
X209588152Y-145407142D02*
X209683390Y-145359523D01*
X209683390Y-145359523D02*
X209731009Y-145311904D01*
X209731009Y-145311904D02*
X209778628Y-145216666D01*
X209778628Y-145216666D02*
X209778628Y-144835714D01*
X210254819Y-146359523D02*
X210254819Y-145788095D01*
X210254819Y-146073809D02*
X209254819Y-146073809D01*
X209254819Y-146073809D02*
X209397676Y-145978571D01*
X209397676Y-145978571D02*
X209492914Y-145883333D01*
X209492914Y-145883333D02*
X209540533Y-145788095D01*
X210254819Y-147311904D02*
X210254819Y-146740476D01*
X210254819Y-147026190D02*
X209254819Y-147026190D01*
X209254819Y-147026190D02*
X209397676Y-146930952D01*
X209397676Y-146930952D02*
X209492914Y-146835714D01*
X209492914Y-146835714D02*
X209540533Y-146740476D01*
X186538094Y-136954819D02*
X186538094Y-135954819D01*
X186538094Y-135954819D02*
X186299999Y-135954819D01*
X186299999Y-135954819D02*
X186157142Y-136002438D01*
X186157142Y-136002438D02*
X186061904Y-136097676D01*
X186061904Y-136097676D02*
X186014285Y-136192914D01*
X186014285Y-136192914D02*
X185966666Y-136383390D01*
X185966666Y-136383390D02*
X185966666Y-136526247D01*
X185966666Y-136526247D02*
X186014285Y-136716723D01*
X186014285Y-136716723D02*
X186061904Y-136811961D01*
X186061904Y-136811961D02*
X186157142Y-136907200D01*
X186157142Y-136907200D02*
X186299999Y-136954819D01*
X186299999Y-136954819D02*
X186538094Y-136954819D01*
X185585713Y-136050057D02*
X185538094Y-136002438D01*
X185538094Y-136002438D02*
X185442856Y-135954819D01*
X185442856Y-135954819D02*
X185204761Y-135954819D01*
X185204761Y-135954819D02*
X185109523Y-136002438D01*
X185109523Y-136002438D02*
X185061904Y-136050057D01*
X185061904Y-136050057D02*
X185014285Y-136145295D01*
X185014285Y-136145295D02*
X185014285Y-136240533D01*
X185014285Y-136240533D02*
X185061904Y-136383390D01*
X185061904Y-136383390D02*
X185633332Y-136954819D01*
X185633332Y-136954819D02*
X185014285Y-136954819D01*
X220039285Y-117554819D02*
X220039285Y-116554819D01*
X220039285Y-116554819D02*
X219801190Y-116554819D01*
X219801190Y-116554819D02*
X219658333Y-116602438D01*
X219658333Y-116602438D02*
X219563095Y-116697676D01*
X219563095Y-116697676D02*
X219515476Y-116792914D01*
X219515476Y-116792914D02*
X219467857Y-116983390D01*
X219467857Y-116983390D02*
X219467857Y-117126247D01*
X219467857Y-117126247D02*
X219515476Y-117316723D01*
X219515476Y-117316723D02*
X219563095Y-117411961D01*
X219563095Y-117411961D02*
X219658333Y-117507200D01*
X219658333Y-117507200D02*
X219801190Y-117554819D01*
X219801190Y-117554819D02*
X220039285Y-117554819D01*
X219086904Y-116650057D02*
X219039285Y-116602438D01*
X219039285Y-116602438D02*
X218944047Y-116554819D01*
X218944047Y-116554819D02*
X218705952Y-116554819D01*
X218705952Y-116554819D02*
X218610714Y-116602438D01*
X218610714Y-116602438D02*
X218563095Y-116650057D01*
X218563095Y-116650057D02*
X218515476Y-116745295D01*
X218515476Y-116745295D02*
X218515476Y-116840533D01*
X218515476Y-116840533D02*
X218563095Y-116983390D01*
X218563095Y-116983390D02*
X219134523Y-117554819D01*
X219134523Y-117554819D02*
X218515476Y-117554819D01*
X217944047Y-116983390D02*
X218039285Y-116935771D01*
X218039285Y-116935771D02*
X218086904Y-116888152D01*
X218086904Y-116888152D02*
X218134523Y-116792914D01*
X218134523Y-116792914D02*
X218134523Y-116745295D01*
X218134523Y-116745295D02*
X218086904Y-116650057D01*
X218086904Y-116650057D02*
X218039285Y-116602438D01*
X218039285Y-116602438D02*
X217944047Y-116554819D01*
X217944047Y-116554819D02*
X217753571Y-116554819D01*
X217753571Y-116554819D02*
X217658333Y-116602438D01*
X217658333Y-116602438D02*
X217610714Y-116650057D01*
X217610714Y-116650057D02*
X217563095Y-116745295D01*
X217563095Y-116745295D02*
X217563095Y-116792914D01*
X217563095Y-116792914D02*
X217610714Y-116888152D01*
X217610714Y-116888152D02*
X217658333Y-116935771D01*
X217658333Y-116935771D02*
X217753571Y-116983390D01*
X217753571Y-116983390D02*
X217944047Y-116983390D01*
X217944047Y-116983390D02*
X218039285Y-117031009D01*
X218039285Y-117031009D02*
X218086904Y-117078628D01*
X218086904Y-117078628D02*
X218134523Y-117173866D01*
X218134523Y-117173866D02*
X218134523Y-117364342D01*
X218134523Y-117364342D02*
X218086904Y-117459580D01*
X218086904Y-117459580D02*
X218039285Y-117507200D01*
X218039285Y-117507200D02*
X217944047Y-117554819D01*
X217944047Y-117554819D02*
X217753571Y-117554819D01*
X217753571Y-117554819D02*
X217658333Y-117507200D01*
X217658333Y-117507200D02*
X217610714Y-117459580D01*
X217610714Y-117459580D02*
X217563095Y-117364342D01*
X217563095Y-117364342D02*
X217563095Y-117173866D01*
X217563095Y-117173866D02*
X217610714Y-117078628D01*
X217610714Y-117078628D02*
X217658333Y-117031009D01*
X217658333Y-117031009D02*
X217753571Y-116983390D01*
X220014285Y-115704819D02*
X220014285Y-114704819D01*
X220014285Y-114704819D02*
X219776190Y-114704819D01*
X219776190Y-114704819D02*
X219633333Y-114752438D01*
X219633333Y-114752438D02*
X219538095Y-114847676D01*
X219538095Y-114847676D02*
X219490476Y-114942914D01*
X219490476Y-114942914D02*
X219442857Y-115133390D01*
X219442857Y-115133390D02*
X219442857Y-115276247D01*
X219442857Y-115276247D02*
X219490476Y-115466723D01*
X219490476Y-115466723D02*
X219538095Y-115561961D01*
X219538095Y-115561961D02*
X219633333Y-115657200D01*
X219633333Y-115657200D02*
X219776190Y-115704819D01*
X219776190Y-115704819D02*
X220014285Y-115704819D01*
X218490476Y-115704819D02*
X219061904Y-115704819D01*
X218776190Y-115704819D02*
X218776190Y-114704819D01*
X218776190Y-114704819D02*
X218871428Y-114847676D01*
X218871428Y-114847676D02*
X218966666Y-114942914D01*
X218966666Y-114942914D02*
X219061904Y-114990533D01*
X217633333Y-115038152D02*
X217633333Y-115704819D01*
X217871428Y-114657200D02*
X218109523Y-115371485D01*
X218109523Y-115371485D02*
X217490476Y-115371485D01*
X141866666Y-127359580D02*
X141914285Y-127407200D01*
X141914285Y-127407200D02*
X142057142Y-127454819D01*
X142057142Y-127454819D02*
X142152380Y-127454819D01*
X142152380Y-127454819D02*
X142295237Y-127407200D01*
X142295237Y-127407200D02*
X142390475Y-127311961D01*
X142390475Y-127311961D02*
X142438094Y-127216723D01*
X142438094Y-127216723D02*
X142485713Y-127026247D01*
X142485713Y-127026247D02*
X142485713Y-126883390D01*
X142485713Y-126883390D02*
X142438094Y-126692914D01*
X142438094Y-126692914D02*
X142390475Y-126597676D01*
X142390475Y-126597676D02*
X142295237Y-126502438D01*
X142295237Y-126502438D02*
X142152380Y-126454819D01*
X142152380Y-126454819D02*
X142057142Y-126454819D01*
X142057142Y-126454819D02*
X141914285Y-126502438D01*
X141914285Y-126502438D02*
X141866666Y-126550057D01*
X141009523Y-126788152D02*
X141009523Y-127454819D01*
X141247618Y-126407200D02*
X141485713Y-127121485D01*
X141485713Y-127121485D02*
X140866666Y-127121485D01*
X150854819Y-146285714D02*
X149854819Y-146285714D01*
X149854819Y-146285714D02*
X149854819Y-146523809D01*
X149854819Y-146523809D02*
X149902438Y-146666666D01*
X149902438Y-146666666D02*
X149997676Y-146761904D01*
X149997676Y-146761904D02*
X150092914Y-146809523D01*
X150092914Y-146809523D02*
X150283390Y-146857142D01*
X150283390Y-146857142D02*
X150426247Y-146857142D01*
X150426247Y-146857142D02*
X150616723Y-146809523D01*
X150616723Y-146809523D02*
X150711961Y-146761904D01*
X150711961Y-146761904D02*
X150807200Y-146666666D01*
X150807200Y-146666666D02*
X150854819Y-146523809D01*
X150854819Y-146523809D02*
X150854819Y-146285714D01*
X149854819Y-147761904D02*
X149854819Y-147285714D01*
X149854819Y-147285714D02*
X150331009Y-147238095D01*
X150331009Y-147238095D02*
X150283390Y-147285714D01*
X150283390Y-147285714D02*
X150235771Y-147380952D01*
X150235771Y-147380952D02*
X150235771Y-147619047D01*
X150235771Y-147619047D02*
X150283390Y-147714285D01*
X150283390Y-147714285D02*
X150331009Y-147761904D01*
X150331009Y-147761904D02*
X150426247Y-147809523D01*
X150426247Y-147809523D02*
X150664342Y-147809523D01*
X150664342Y-147809523D02*
X150759580Y-147761904D01*
X150759580Y-147761904D02*
X150807200Y-147714285D01*
X150807200Y-147714285D02*
X150854819Y-147619047D01*
X150854819Y-147619047D02*
X150854819Y-147380952D01*
X150854819Y-147380952D02*
X150807200Y-147285714D01*
X150807200Y-147285714D02*
X150759580Y-147238095D01*
X149854819Y-148666666D02*
X149854819Y-148476190D01*
X149854819Y-148476190D02*
X149902438Y-148380952D01*
X149902438Y-148380952D02*
X149950057Y-148333333D01*
X149950057Y-148333333D02*
X150092914Y-148238095D01*
X150092914Y-148238095D02*
X150283390Y-148190476D01*
X150283390Y-148190476D02*
X150664342Y-148190476D01*
X150664342Y-148190476D02*
X150759580Y-148238095D01*
X150759580Y-148238095D02*
X150807200Y-148285714D01*
X150807200Y-148285714D02*
X150854819Y-148380952D01*
X150854819Y-148380952D02*
X150854819Y-148571428D01*
X150854819Y-148571428D02*
X150807200Y-148666666D01*
X150807200Y-148666666D02*
X150759580Y-148714285D01*
X150759580Y-148714285D02*
X150664342Y-148761904D01*
X150664342Y-148761904D02*
X150426247Y-148761904D01*
X150426247Y-148761904D02*
X150331009Y-148714285D01*
X150331009Y-148714285D02*
X150283390Y-148666666D01*
X150283390Y-148666666D02*
X150235771Y-148571428D01*
X150235771Y-148571428D02*
X150235771Y-148380952D01*
X150235771Y-148380952D02*
X150283390Y-148285714D01*
X150283390Y-148285714D02*
X150331009Y-148238095D01*
X150331009Y-148238095D02*
X150426247Y-148190476D01*
X162554819Y-130785714D02*
X161554819Y-130785714D01*
X161554819Y-130785714D02*
X161554819Y-131023809D01*
X161554819Y-131023809D02*
X161602438Y-131166666D01*
X161602438Y-131166666D02*
X161697676Y-131261904D01*
X161697676Y-131261904D02*
X161792914Y-131309523D01*
X161792914Y-131309523D02*
X161983390Y-131357142D01*
X161983390Y-131357142D02*
X162126247Y-131357142D01*
X162126247Y-131357142D02*
X162316723Y-131309523D01*
X162316723Y-131309523D02*
X162411961Y-131261904D01*
X162411961Y-131261904D02*
X162507200Y-131166666D01*
X162507200Y-131166666D02*
X162554819Y-131023809D01*
X162554819Y-131023809D02*
X162554819Y-130785714D01*
X161554819Y-132261904D02*
X161554819Y-131785714D01*
X161554819Y-131785714D02*
X162031009Y-131738095D01*
X162031009Y-131738095D02*
X161983390Y-131785714D01*
X161983390Y-131785714D02*
X161935771Y-131880952D01*
X161935771Y-131880952D02*
X161935771Y-132119047D01*
X161935771Y-132119047D02*
X161983390Y-132214285D01*
X161983390Y-132214285D02*
X162031009Y-132261904D01*
X162031009Y-132261904D02*
X162126247Y-132309523D01*
X162126247Y-132309523D02*
X162364342Y-132309523D01*
X162364342Y-132309523D02*
X162459580Y-132261904D01*
X162459580Y-132261904D02*
X162507200Y-132214285D01*
X162507200Y-132214285D02*
X162554819Y-132119047D01*
X162554819Y-132119047D02*
X162554819Y-131880952D01*
X162554819Y-131880952D02*
X162507200Y-131785714D01*
X162507200Y-131785714D02*
X162459580Y-131738095D01*
X162554819Y-132785714D02*
X162554819Y-132976190D01*
X162554819Y-132976190D02*
X162507200Y-133071428D01*
X162507200Y-133071428D02*
X162459580Y-133119047D01*
X162459580Y-133119047D02*
X162316723Y-133214285D01*
X162316723Y-133214285D02*
X162126247Y-133261904D01*
X162126247Y-133261904D02*
X161745295Y-133261904D01*
X161745295Y-133261904D02*
X161650057Y-133214285D01*
X161650057Y-133214285D02*
X161602438Y-133166666D01*
X161602438Y-133166666D02*
X161554819Y-133071428D01*
X161554819Y-133071428D02*
X161554819Y-132880952D01*
X161554819Y-132880952D02*
X161602438Y-132785714D01*
X161602438Y-132785714D02*
X161650057Y-132738095D01*
X161650057Y-132738095D02*
X161745295Y-132690476D01*
X161745295Y-132690476D02*
X161983390Y-132690476D01*
X161983390Y-132690476D02*
X162078628Y-132738095D01*
X162078628Y-132738095D02*
X162126247Y-132785714D01*
X162126247Y-132785714D02*
X162173866Y-132880952D01*
X162173866Y-132880952D02*
X162173866Y-133071428D01*
X162173866Y-133071428D02*
X162126247Y-133166666D01*
X162126247Y-133166666D02*
X162078628Y-133214285D01*
X162078628Y-133214285D02*
X161983390Y-133261904D01*
X123786904Y-142989819D02*
X123786904Y-143799342D01*
X123786904Y-143799342D02*
X123739285Y-143894580D01*
X123739285Y-143894580D02*
X123691666Y-143942200D01*
X123691666Y-143942200D02*
X123596428Y-143989819D01*
X123596428Y-143989819D02*
X123405952Y-143989819D01*
X123405952Y-143989819D02*
X123310714Y-143942200D01*
X123310714Y-143942200D02*
X123263095Y-143894580D01*
X123263095Y-143894580D02*
X123215476Y-143799342D01*
X123215476Y-143799342D02*
X123215476Y-142989819D01*
X122215476Y-143989819D02*
X122786904Y-143989819D01*
X122501190Y-143989819D02*
X122501190Y-142989819D01*
X122501190Y-142989819D02*
X122596428Y-143132676D01*
X122596428Y-143132676D02*
X122691666Y-143227914D01*
X122691666Y-143227914D02*
X122786904Y-143275533D01*
X197964285Y-113654819D02*
X197964285Y-112654819D01*
X197964285Y-112654819D02*
X197726190Y-112654819D01*
X197726190Y-112654819D02*
X197583333Y-112702438D01*
X197583333Y-112702438D02*
X197488095Y-112797676D01*
X197488095Y-112797676D02*
X197440476Y-112892914D01*
X197440476Y-112892914D02*
X197392857Y-113083390D01*
X197392857Y-113083390D02*
X197392857Y-113226247D01*
X197392857Y-113226247D02*
X197440476Y-113416723D01*
X197440476Y-113416723D02*
X197488095Y-113511961D01*
X197488095Y-113511961D02*
X197583333Y-113607200D01*
X197583333Y-113607200D02*
X197726190Y-113654819D01*
X197726190Y-113654819D02*
X197964285Y-113654819D01*
X196440476Y-113654819D02*
X197011904Y-113654819D01*
X196726190Y-113654819D02*
X196726190Y-112654819D01*
X196726190Y-112654819D02*
X196821428Y-112797676D01*
X196821428Y-112797676D02*
X196916666Y-112892914D01*
X196916666Y-112892914D02*
X197011904Y-112940533D01*
X196059523Y-112750057D02*
X196011904Y-112702438D01*
X196011904Y-112702438D02*
X195916666Y-112654819D01*
X195916666Y-112654819D02*
X195678571Y-112654819D01*
X195678571Y-112654819D02*
X195583333Y-112702438D01*
X195583333Y-112702438D02*
X195535714Y-112750057D01*
X195535714Y-112750057D02*
X195488095Y-112845295D01*
X195488095Y-112845295D02*
X195488095Y-112940533D01*
X195488095Y-112940533D02*
X195535714Y-113083390D01*
X195535714Y-113083390D02*
X196107142Y-113654819D01*
X196107142Y-113654819D02*
X195488095Y-113654819D01*
X129159580Y-137333333D02*
X129207200Y-137285714D01*
X129207200Y-137285714D02*
X129254819Y-137142857D01*
X129254819Y-137142857D02*
X129254819Y-137047619D01*
X129254819Y-137047619D02*
X129207200Y-136904762D01*
X129207200Y-136904762D02*
X129111961Y-136809524D01*
X129111961Y-136809524D02*
X129016723Y-136761905D01*
X129016723Y-136761905D02*
X128826247Y-136714286D01*
X128826247Y-136714286D02*
X128683390Y-136714286D01*
X128683390Y-136714286D02*
X128492914Y-136761905D01*
X128492914Y-136761905D02*
X128397676Y-136809524D01*
X128397676Y-136809524D02*
X128302438Y-136904762D01*
X128302438Y-136904762D02*
X128254819Y-137047619D01*
X128254819Y-137047619D02*
X128254819Y-137142857D01*
X128254819Y-137142857D02*
X128302438Y-137285714D01*
X128302438Y-137285714D02*
X128350057Y-137333333D01*
X128350057Y-137714286D02*
X128302438Y-137761905D01*
X128302438Y-137761905D02*
X128254819Y-137857143D01*
X128254819Y-137857143D02*
X128254819Y-138095238D01*
X128254819Y-138095238D02*
X128302438Y-138190476D01*
X128302438Y-138190476D02*
X128350057Y-138238095D01*
X128350057Y-138238095D02*
X128445295Y-138285714D01*
X128445295Y-138285714D02*
X128540533Y-138285714D01*
X128540533Y-138285714D02*
X128683390Y-138238095D01*
X128683390Y-138238095D02*
X129254819Y-137666667D01*
X129254819Y-137666667D02*
X129254819Y-138285714D01*
D11*
%TO.C,U8*%
X138607800Y-144622499D02*
X140557800Y-144622499D01*
X138607800Y-144622499D02*
X136657800Y-144622499D01*
X138607800Y-135752499D02*
X142057800Y-135752499D01*
X138607800Y-135752499D02*
X136657800Y-135752499D01*
%TO.C,U5*%
X192240000Y-131062500D02*
X192240000Y-133262500D01*
X192240000Y-131062500D02*
X192240000Y-128862500D01*
X197710000Y-131062500D02*
X197710000Y-134662500D01*
X197710000Y-131062500D02*
X197710000Y-128862500D01*
%TO.C,U6*%
X160096200Y-125034200D02*
X162046200Y-125034200D01*
X160096200Y-125034200D02*
X158146200Y-125034200D01*
X160096200Y-116164200D02*
X163546200Y-116164200D01*
X160096200Y-116164200D02*
X158146200Y-116164200D01*
%TO.C,U9*%
X171424600Y-135752499D02*
X169474600Y-135752499D01*
X171424600Y-135752499D02*
X173374600Y-135752499D01*
X171424600Y-144622499D02*
X167974600Y-144622499D01*
X171424600Y-144622499D02*
X173374600Y-144622499D01*
%TO.C,R1*%
X127265000Y-141227064D02*
X127265000Y-140772936D01*
X128735000Y-141227064D02*
X128735000Y-140772936D01*
%TO.C,D13*%
X217135000Y-111610000D02*
X214275000Y-111610000D01*
X217135000Y-109690000D02*
X217135000Y-111610000D01*
X214275000Y-109690000D02*
X217135000Y-109690000D01*
%TO.C,R4*%
X169065000Y-110527064D02*
X169065000Y-110072936D01*
X170535000Y-110527064D02*
X170535000Y-110072936D01*
%TO.C,U11*%
X148971000Y-116164200D02*
X147021000Y-116164200D01*
X148971000Y-116164200D02*
X150921000Y-116164200D01*
X148971000Y-125034200D02*
X145521000Y-125034200D01*
X148971000Y-125034200D02*
X150921000Y-125034200D01*
%TO.C,Q2*%
X171700000Y-103820000D02*
X171700000Y-107420000D01*
X171688478Y-103781522D02*
G75*
G03*
X167250000Y-105620000I-1838478J-1838478D01*
G01*
X167250000Y-105620000D02*
G75*
G03*
X171688478Y-107458478I2600000J0D01*
G01*
%TO.C,U7*%
X138049000Y-125034200D02*
X139999000Y-125034200D01*
X138049000Y-125034200D02*
X136099000Y-125034200D01*
X138049000Y-116164200D02*
X141499000Y-116164200D01*
X138049000Y-116164200D02*
X136099000Y-116164200D01*
%TO.C,D18*%
X198440000Y-114090000D02*
X201300000Y-114090000D01*
X198440000Y-116010000D02*
X198440000Y-114090000D01*
X201300000Y-116010000D02*
X198440000Y-116010000D01*
%TO.C,U4*%
X185525000Y-128121250D02*
X183325000Y-128121250D01*
X185525000Y-128121250D02*
X187725000Y-128121250D01*
X185525000Y-133591250D02*
X181925000Y-133591250D01*
X185525000Y-133591250D02*
X187725000Y-133591250D01*
%TO.C,D35*%
X145960000Y-109390000D02*
X145960000Y-112250000D01*
X144040000Y-109390000D02*
X145960000Y-109390000D01*
X144040000Y-112250000D02*
X144040000Y-109390000D01*
%TO.C,D42*%
X154210000Y-109365000D02*
X154210000Y-112225000D01*
X152290000Y-109365000D02*
X154210000Y-109365000D01*
X152290000Y-112225000D02*
X152290000Y-109365000D01*
%TO.C,D27*%
X217135000Y-109410000D02*
X214275000Y-109410000D01*
X217135000Y-107490000D02*
X217135000Y-109410000D01*
X214275000Y-107490000D02*
X217135000Y-107490000D01*
%TO.C,U13*%
X160604200Y-135752499D02*
X158654200Y-135752499D01*
X160604200Y-135752499D02*
X162554200Y-135752499D01*
X160604200Y-144622499D02*
X157154200Y-144622499D01*
X160604200Y-144622499D02*
X162554200Y-144622499D01*
%TO.C,D40*%
X150960000Y-109390000D02*
X150960000Y-112250000D01*
X149040000Y-109390000D02*
X150960000Y-109390000D01*
X149040000Y-112250000D02*
X149040000Y-109390000D01*
%TO.C,C3*%
X206404437Y-110660000D02*
X207690000Y-110660000D01*
X206404437Y-110660000D02*
X205340000Y-109595563D01*
X211095563Y-110660000D02*
X209810000Y-110660000D01*
X211095563Y-110660000D02*
X212160000Y-109595563D01*
X205340000Y-109595563D02*
X205340000Y-103840000D01*
X212160000Y-109595563D02*
X212160000Y-103840000D01*
X205340000Y-103840000D02*
X207690000Y-103840000D01*
X212160000Y-103840000D02*
X209810000Y-103840000D01*
%TO.C,D30*%
X198390000Y-116190000D02*
X201250000Y-116190000D01*
X198390000Y-118110000D02*
X198390000Y-116190000D01*
X201250000Y-118110000D02*
X198390000Y-118110000D01*
%TO.C,U12*%
X149515600Y-144622499D02*
X151465600Y-144622499D01*
X149515600Y-144622499D02*
X147565600Y-144622499D01*
X149515600Y-135752499D02*
X152965600Y-135752499D01*
X149515600Y-135752499D02*
X147565600Y-135752499D01*
%TO.C,D41*%
X142710000Y-109390000D02*
X142710000Y-112250000D01*
X140790000Y-109390000D02*
X142710000Y-109390000D01*
X140790000Y-112250000D02*
X140790000Y-109390000D01*
%TO.C,D29*%
X217135000Y-120260000D02*
X214275000Y-120260000D01*
X217135000Y-118340000D02*
X217135000Y-120260000D01*
X214275000Y-118340000D02*
X217135000Y-118340000D01*
%TO.C,D11*%
X217135000Y-113760000D02*
X214275000Y-113760000D01*
X217135000Y-111840000D02*
X217135000Y-113760000D01*
X214275000Y-111840000D02*
X217135000Y-111840000D01*
%TO.C,U3*%
X157573400Y-130200400D02*
X157573400Y-128000400D01*
X157573400Y-130200400D02*
X157573400Y-132400400D01*
X152103400Y-130200400D02*
X152103400Y-126600400D01*
X152103400Y-130200400D02*
X152103400Y-132400400D01*
%TO.C,R13*%
X228235000Y-152022936D02*
X228235000Y-152477064D01*
X226765000Y-152022936D02*
X226765000Y-152477064D01*
%TO.C,D58*%
X145140000Y-131540000D02*
X148000000Y-131540000D01*
X145140000Y-133460000D02*
X145140000Y-131540000D01*
X148000000Y-133460000D02*
X145140000Y-133460000D01*
%TO.C,D57*%
X144540000Y-149385000D02*
X144540000Y-146525000D01*
X146460000Y-149385000D02*
X144540000Y-149385000D01*
X146460000Y-146525000D02*
X146460000Y-149385000D01*
%TO.C,R6*%
X125177064Y-154735000D02*
X124722936Y-154735000D01*
X125177064Y-153265000D02*
X124722936Y-153265000D01*
%TO.C,U2*%
X207500000Y-117485000D02*
X209700000Y-117485000D01*
X207500000Y-117485000D02*
X205300000Y-117485000D01*
X207500000Y-112015000D02*
X211100000Y-112015000D01*
X207500000Y-112015000D02*
X205300000Y-112015000D01*
%TO.C,D60*%
X165360000Y-149460000D02*
X162500000Y-149460000D01*
X165360000Y-147540000D02*
X165360000Y-149460000D01*
X162500000Y-147540000D02*
X165360000Y-147540000D01*
%TO.C,D15*%
X217135000Y-122410000D02*
X214275000Y-122410000D01*
X217135000Y-120490000D02*
X217135000Y-122410000D01*
X214275000Y-120490000D02*
X217135000Y-120490000D01*
%TO.C,R8*%
X188977064Y-153935000D02*
X188522936Y-153935000D01*
X188977064Y-152465000D02*
X188522936Y-152465000D01*
%TO.C,Q3*%
X121480000Y-159350000D02*
X117880000Y-159350000D01*
X121518478Y-159338478D02*
G75*
G03*
X119680000Y-154900000I-1838478J1838478D01*
G01*
X119680000Y-154900000D02*
G75*
G03*
X117841522Y-159338478I0J-2600000D01*
G01*
%TO.C,C1*%
X117761252Y-138985000D02*
X117238748Y-138985000D01*
X117761252Y-137515000D02*
X117238748Y-137515000D01*
%TO.C,D45*%
X151040000Y-149385000D02*
X151040000Y-146525000D01*
X152960000Y-149385000D02*
X151040000Y-149385000D01*
X152960000Y-146525000D02*
X152960000Y-149385000D01*
%TO.C,C5*%
X196995563Y-136990000D02*
X195710000Y-136990000D01*
X196995563Y-136990000D02*
X198060000Y-138054437D01*
X192304437Y-136990000D02*
X193590000Y-136990000D01*
X192304437Y-136990000D02*
X191240000Y-138054437D01*
X198060000Y-138054437D02*
X198060000Y-143810000D01*
X191240000Y-138054437D02*
X191240000Y-143810000D01*
X198060000Y-143810000D02*
X195710000Y-143810000D01*
X191240000Y-143810000D02*
X193590000Y-143810000D01*
%TO.C,U10*%
X170916600Y-116164200D02*
X168966600Y-116164200D01*
X170916600Y-116164200D02*
X172866600Y-116164200D01*
X170916600Y-125034200D02*
X167466600Y-125034200D01*
X170916600Y-125034200D02*
X172866600Y-125034200D01*
%TO.C,C6*%
X203695563Y-127752500D02*
X202410000Y-127752500D01*
X203695563Y-127752500D02*
X204760000Y-128816937D01*
X199004437Y-127752500D02*
X200290000Y-127752500D01*
X199004437Y-127752500D02*
X197940000Y-128816937D01*
X204760000Y-128816937D02*
X204760000Y-134572500D01*
X197940000Y-128816937D02*
X197940000Y-134572500D01*
X204760000Y-134572500D02*
X202410000Y-134572500D01*
X197940000Y-134572500D02*
X200290000Y-134572500D01*
%TO.C,R11*%
X207415000Y-146277064D02*
X207415000Y-145822936D01*
X208885000Y-146277064D02*
X208885000Y-145822936D01*
%TO.C,D2*%
X183940000Y-133890000D02*
X186800000Y-133890000D01*
X183940000Y-135810000D02*
X183940000Y-133890000D01*
X186800000Y-135810000D02*
X183940000Y-135810000D01*
%TO.C,D28*%
X217160000Y-118110000D02*
X214300000Y-118110000D01*
X217160000Y-116190000D02*
X217160000Y-118110000D01*
X214300000Y-116190000D02*
X217160000Y-116190000D01*
%TO.C,D14*%
X217160000Y-115960000D02*
X214300000Y-115960000D01*
X217160000Y-114040000D02*
X217160000Y-115960000D01*
X214300000Y-114040000D02*
X217160000Y-114040000D01*
%TO.C,C4*%
X143660000Y-133545563D02*
X143660000Y-132260000D01*
X143660000Y-133545563D02*
X142595563Y-134610000D01*
X143660000Y-128854437D02*
X143660000Y-130140000D01*
X143660000Y-128854437D02*
X142595563Y-127790000D01*
X142595563Y-134610000D02*
X136840000Y-134610000D01*
X142595563Y-127790000D02*
X136840000Y-127790000D01*
X136840000Y-134610000D02*
X136840000Y-132260000D01*
X136840000Y-127790000D02*
X136840000Y-130140000D01*
%TO.C,D56*%
X147790000Y-149360000D02*
X147790000Y-146500000D01*
X149710000Y-149360000D02*
X147790000Y-149360000D01*
X149710000Y-146500000D02*
X149710000Y-149360000D01*
%TO.C,D59*%
X164710000Y-130140000D02*
X164710000Y-133000000D01*
X162790000Y-130140000D02*
X164710000Y-130140000D01*
X162790000Y-133000000D02*
X162790000Y-130140000D01*
%TO.C,U1*%
X123025000Y-137575000D02*
X121075000Y-137575000D01*
X123025000Y-137575000D02*
X124975000Y-137575000D01*
X123025000Y-142695000D02*
X119575000Y-142695000D01*
X123025000Y-142695000D02*
X124975000Y-142695000D01*
%TO.C,D12*%
X198390000Y-111990000D02*
X201250000Y-111990000D01*
X198390000Y-113910000D02*
X198390000Y-111990000D01*
X201250000Y-113910000D02*
X198390000Y-113910000D01*
%TD*%
M02*
