M48
; DRILL file {KiCad 7.0.9} date Tue Feb 13 17:02:35 2024
; FORMAT={-:-/ absolute / inch / decimal}
; #@! TF.CreationDate,2024-02-13T17:02:35-03:00
; #@! TF.GenerationSoftware,Kicad,Pcbnew,7.0.9
; #@! TF.FileFunction,Plated,1,2,PTH
FMAT,2
INCH
; #@! TA.AperFunction,Plated,PTH,ViaDrill
T1C0.0118
; #@! TA.AperFunction,Plated,PTH,ViaDrill
T2C0.0157
; #@! TA.AperFunction,Plated,PTH,ComponentDrill
T3C0.0295
; #@! TA.AperFunction,Plated,PTH,ComponentDrill
T4C0.0394
; #@! TA.AperFunction,Plated,PTH,ComponentDrill
T5C0.0512
%
G90
G05
T1
X4.502Y-4.8819
X5.2854Y-5.2402
T2
X4.2291Y-5.7549
X4.3307Y-4.3406
X4.3346Y-5.2638
X4.4291Y-5.4626
X4.4488Y-4.2717
X4.5177Y-5.5315
X4.5551Y-5.7402
X4.626Y-5.5728
X4.6457Y-4.2323
X4.6614Y-5.9685
X4.8819Y-4.124
X4.9952Y-4.018
X4.9952Y-4.6969
X4.9954Y-5.369
X5.1441Y-5.645
X5.1441Y-5.8368
X5.2001Y-4.698
X5.328Y-4.189
X5.3376Y-4.598
X5.3402Y-5.0669
X5.3445Y-4.9409
X5.378Y-5.2894
X5.405Y-4.731
X5.498Y-4.2028
X5.502Y-5.2224
X5.5177Y-5.0315
X5.5413Y-5.2657
X5.5807Y-4.4203
X5.598Y-4.189
X5.5999Y-4.5969
X5.5999Y-4.6658
X5.6004Y-5.063
X5.6216Y-5.1654
X5.6417Y-5.2943
X5.6525Y-5.3799
X5.655Y-4.807
X5.6644Y-4.5758
X5.684Y-5.4119
X5.7087Y-4.4203
X5.7204Y-4.9784
X5.7461Y-5.2146
X5.759Y-5.017
X5.8051Y-5.9869
X5.819Y-4.469
X5.8278Y-5.2165
X5.833Y-5.014
X5.839Y-4.7661
X5.8445Y-4.5984
X5.8563Y-5.5118
X5.8622Y-6.0433
X5.872Y-5.3799
X5.875Y-4.8485
X5.8829Y-4.188
X5.8937Y-6.1083
X5.8963Y-4.5892
X5.9012Y-4.6854
X5.9055Y-4.3335
X5.9055Y-4.4203
X5.9114Y-5.4252
X5.9449Y-5.9449
X5.9626Y-4.9272
X5.9646Y-4.3307
X5.9705Y-5.189
X5.9705Y-5.2638
X5.9744Y-4.4665
X5.9843Y-5.7677
X6.0039Y-4.7539
X6.0335Y-4.4193
X6.037Y-4.8118
X6.063Y-5.5118
X6.0771Y-5.8183
X6.0846Y-5.287
X6.0861Y-4.4316
X6.1149Y-4.303
X6.1191Y-4.5049
X6.123Y-4.764
X6.1293Y-4.9081
X6.1339Y-5.0856
X6.1772Y-5.1664
X6.1772Y-5.0807
X6.2067Y-5.0133
X6.2067Y-5.2992
X6.2244Y-5.3681
X6.2913Y-5.4114
X6.2972Y-5.3425
X6.3386Y-5.2756
X6.3541Y-4.019
X6.3551Y-5.6529
X6.3551Y-5.9869
X6.3602Y-4.9449
X6.3602Y-5.0453
X6.3898Y-5.1358
X6.3967Y-5.8465
X6.4272Y-5.5217
X6.4331Y-6.0217
X6.4469Y-5.1565
X6.4469Y-5.2372
X6.4665Y-4.9055
X6.469Y-5.3125
X6.4764Y-4.7028
X6.4764Y-5.7776
X6.5157Y-4.9547
X6.5256Y-5.0866
X6.5462Y-4.8652
X6.5565Y-5.2795
X6.5728Y-5.1181
X6.5751Y-5.8753
X6.5751Y-6.0718
X6.6378Y-5.0571
X6.6437Y-5.8445
X6.6831Y-5.2165
X6.687Y-4.5394
X6.6975Y-4.872
X6.7343Y-5.3425
X6.7599Y-4.9646
X6.8011Y-5.856
X6.8327Y-6.2215
X6.8425Y-4.9902
X6.8917Y-4.9921
X6.9567Y-5.0492
X6.9734Y-6.0659
X6.9834Y-5.3819
X7.0276Y-4.9912
X7.0748Y-4.9317
X7.0906Y-4.6181
X7.1314Y-5.0684
X7.1591Y-5.793
X7.2059Y-5.481
X7.2323Y-4.8898
X7.2421Y-5.2187
X7.25Y-5.7441
X7.2633Y-4.9719
X7.2894Y-5.1004
X7.2953Y-5.189
X7.3036Y-5.0182
X7.3563Y-5.4075
X7.4002Y-4.532
X7.4134Y-5.4429
X7.4449Y-5.25
X7.4803Y-5.1931
X7.5031Y-5.4559
X7.5256Y-5.252
X7.5492Y-4.6811
X7.5984Y-5.7933
X7.6201Y-4.7028
X7.6341Y-4.2639
X7.6742Y-5.4277
X7.6752Y-4.7717
X7.6762Y-6.06
X7.6853Y-5.1262
X7.7185Y-5.8819
X7.7205Y-5.7008
X7.7756Y-5.439
X7.8051Y-4.2677
X7.8287Y-4.9961
X7.9108Y-4.87
X7.9671Y-5.4538
X8.0669Y-5.4055
X8.0851Y-4.3223
X8.1083Y-5.1762
X8.147Y-4.1038
X8.147Y-4.9969
X8.1535Y-5.313
X8.319Y-3.9338
X8.5157Y-4.4409
X8.5167Y-4.6122
X8.5177Y-4.1909
X8.5177Y-4.2697
X8.5177Y-4.7028
X8.5295Y-4.9469
X8.6165Y-3.8939
X8.6689Y-4.0789
X8.6714Y-6.131
X8.6864Y-5.732
X8.6894Y-5.883
X8.7912Y-5.597
T3
X4.6618Y-6.2008
X4.7118Y-6.2008
X4.7618Y-6.2008
X5.1488Y-3.9886
X5.1988Y-3.9886
X5.2488Y-3.9886
X6.687Y-4.1083
X6.687Y-4.1583
X6.687Y-4.2083
X7.3425Y-6.1831
X7.3925Y-6.1831
X7.4425Y-6.1831
X8.1122Y-5.6618
X8.1122Y-5.7118
X8.1122Y-5.7618
X8.8228Y-6.1634
X8.8728Y-6.1634
X8.9228Y-6.1634
T4
X4.135Y-4.753
X4.135Y-4.853
X4.138Y-5.076
X4.138Y-5.176
T5
X4.7111Y-4.9456
X4.7111Y-5.1424
X5.1049Y-5.044
T0
M30
