%TF.GenerationSoftware,KiCad,Pcbnew,7.0.9*%
%TF.CreationDate,2024-02-13T17:02:38-03:00*%
%TF.ProjectId,pedido_casamento_smd,70656469-646f-45f6-9361-73616d656e74,rev?*%
%TF.SameCoordinates,Original*%
%TF.FileFunction,Drillmap*%
%TF.FilePolarity,Positive*%
%FSLAX45Y45*%
G04 Gerber Fmt 4.5, Leading zero omitted, Abs format (unit mm)*
G04 Created by KiCad (PCBNEW 7.0.9) date 2024-02-13 17:02:38*
%MOMM*%
%LPD*%
G01*
G04 APERTURE LIST*
%ADD10C,0.100000*%
%ADD11C,0.200000*%
%ADD12C,0.130000*%
G04 APERTURE END LIST*
D10*
X10147300Y-9624060D02*
X23078440Y-9624060D01*
X23078440Y-16128100D01*
X10147300Y-16128100D01*
X10147300Y-9624060D01*
D11*
D10*
X11420000Y-12385000D02*
X11450000Y-12415000D01*
X11450000Y-12385000D02*
X11420000Y-12415000D01*
X13410000Y-13295000D02*
X13440000Y-13325000D01*
X13440000Y-13295000D02*
X13410000Y-13325000D01*
X10761960Y-14617400D02*
G75*
G03*
X10761960Y-14617400I-20000J0D01*
G01*
X11020000Y-11025000D02*
G75*
G03*
X11020000Y-11025000I-20000J0D01*
G01*
X11030000Y-13370000D02*
G75*
G03*
X11030000Y-13370000I-20000J0D01*
G01*
X11270000Y-13875000D02*
G75*
G03*
X11270000Y-13875000I-20000J0D01*
G01*
X11320000Y-10850000D02*
G75*
G03*
X11320000Y-10850000I-20000J0D01*
G01*
X11495000Y-14050000D02*
G75*
G03*
X11495000Y-14050000I-20000J0D01*
G01*
X11590000Y-14580000D02*
G75*
G03*
X11590000Y-14580000I-20000J0D01*
G01*
X11770000Y-14155000D02*
G75*
G03*
X11770000Y-14155000I-20000J0D01*
G01*
X11820000Y-10750000D02*
G75*
G03*
X11820000Y-10750000I-20000J0D01*
G01*
X11860000Y-15160000D02*
G75*
G03*
X11860000Y-15160000I-20000J0D01*
G01*
X12420000Y-10475000D02*
G75*
G03*
X12420000Y-10475000I-20000J0D01*
G01*
X12707900Y-10205720D02*
G75*
G03*
X12707900Y-10205720I-20000J0D01*
G01*
X12707900Y-11930000D02*
G75*
G03*
X12707900Y-11930000I-20000J0D01*
G01*
X12708200Y-13637260D02*
G75*
G03*
X12708200Y-13637260I-20000J0D01*
G01*
X13086060Y-14338300D02*
G75*
G03*
X13086060Y-14338300I-20000J0D01*
G01*
X13086060Y-14825440D02*
G75*
G03*
X13086060Y-14825440I-20000J0D01*
G01*
X13228300Y-11932920D02*
G75*
G03*
X13228300Y-11932920I-20000J0D01*
G01*
X13553120Y-10640060D02*
G75*
G03*
X13553120Y-10640060I-20000J0D01*
G01*
X13577400Y-11678920D02*
G75*
G03*
X13577400Y-11678920I-20000J0D01*
G01*
X13584200Y-12870000D02*
G75*
G03*
X13584200Y-12870000I-20000J0D01*
G01*
X13595000Y-12550000D02*
G75*
G03*
X13595000Y-12550000I-20000J0D01*
G01*
X13680000Y-13435000D02*
G75*
G03*
X13680000Y-13435000I-20000J0D01*
G01*
X13748700Y-12016740D02*
G75*
G03*
X13748700Y-12016740I-20000J0D01*
G01*
X13985000Y-10675000D02*
G75*
G03*
X13985000Y-10675000I-20000J0D01*
G01*
X13995000Y-13265000D02*
G75*
G03*
X13995000Y-13265000I-20000J0D01*
G01*
X14035000Y-12780000D02*
G75*
G03*
X14035000Y-12780000I-20000J0D01*
G01*
X14095000Y-13375000D02*
G75*
G03*
X14095000Y-13375000I-20000J0D01*
G01*
X14195000Y-11227500D02*
G75*
G03*
X14195000Y-11227500I-20000J0D01*
G01*
X14238920Y-10640060D02*
G75*
G03*
X14238920Y-10640060I-20000J0D01*
G01*
X14243770Y-11676230D02*
G75*
G03*
X14243770Y-11676230I-20000J0D01*
G01*
X14243770Y-11851230D02*
G75*
G03*
X14243770Y-11851230I-20000J0D01*
G01*
X14245000Y-12860000D02*
G75*
G03*
X14245000Y-12860000I-20000J0D01*
G01*
X14298750Y-13120000D02*
G75*
G03*
X14298750Y-13120000I-20000J0D01*
G01*
X14350000Y-13447550D02*
G75*
G03*
X14350000Y-13447550I-20000J0D01*
G01*
X14377450Y-13665037D02*
G75*
G03*
X14377450Y-13665037I-20000J0D01*
G01*
X14383700Y-12209780D02*
G75*
G03*
X14383700Y-12209780I-20000J0D01*
G01*
X14407450Y-11622450D02*
G75*
G03*
X14407450Y-11622450I-20000J0D01*
G01*
X14457410Y-13746270D02*
G75*
G03*
X14457410Y-13746270I-20000J0D01*
G01*
X14520000Y-11227500D02*
G75*
G03*
X14520000Y-11227500I-20000J0D01*
G01*
X14549805Y-12645195D02*
G75*
G03*
X14549805Y-12645195I-20000J0D01*
G01*
X14615000Y-13245000D02*
G75*
G03*
X14615000Y-13245000I-20000J0D01*
G01*
X14647860Y-12743180D02*
G75*
G03*
X14647860Y-12743180I-20000J0D01*
G01*
X14765000Y-15206680D02*
G75*
G03*
X14765000Y-15206680I-20000J0D01*
G01*
X14800260Y-11351260D02*
G75*
G03*
X14800260Y-11351260I-20000J0D01*
G01*
X14822500Y-13250000D02*
G75*
G03*
X14822500Y-13250000I-20000J0D01*
G01*
X14835820Y-12735560D02*
G75*
G03*
X14835820Y-12735560I-20000J0D01*
G01*
X14850985Y-12105985D02*
G75*
G03*
X14850985Y-12105985I-20000J0D01*
G01*
X14865000Y-11680000D02*
G75*
G03*
X14865000Y-11680000I-20000J0D01*
G01*
X14895000Y-14000000D02*
G75*
G03*
X14895000Y-14000000I-20000J0D01*
G01*
X14910000Y-15350000D02*
G75*
G03*
X14910000Y-15350000I-20000J0D01*
G01*
X14935000Y-13665000D02*
G75*
G03*
X14935000Y-13665000I-20000J0D01*
G01*
X14942550Y-12315119D02*
G75*
G03*
X14942550Y-12315119I-20000J0D01*
G01*
X14962500Y-10637500D02*
G75*
G03*
X14962500Y-10637500I-20000J0D01*
G01*
X14990000Y-15515000D02*
G75*
G03*
X14990000Y-15515000I-20000J0D01*
G01*
X14996660Y-11656626D02*
G75*
G03*
X14996660Y-11656626I-20000J0D01*
G01*
X15009079Y-11900838D02*
G75*
G03*
X15009079Y-11900838I-20000J0D01*
G01*
X15020000Y-11007030D02*
G75*
G03*
X15020000Y-11007030I-20000J0D01*
G01*
X15020000Y-11227500D02*
G75*
G03*
X15020000Y-11227500I-20000J0D01*
G01*
X15035000Y-13780000D02*
G75*
G03*
X15035000Y-13780000I-20000J0D01*
G01*
X15120000Y-15100000D02*
G75*
G03*
X15120000Y-15100000I-20000J0D01*
G01*
X15165000Y-12515000D02*
G75*
G03*
X15165000Y-12515000I-20000J0D01*
G01*
X15170000Y-11000000D02*
G75*
G03*
X15170000Y-11000000I-20000J0D01*
G01*
X15185000Y-13180000D02*
G75*
G03*
X15185000Y-13180000I-20000J0D01*
G01*
X15185000Y-13370000D02*
G75*
G03*
X15185000Y-13370000I-20000J0D01*
G01*
X15195000Y-11345000D02*
G75*
G03*
X15195000Y-11345000I-20000J0D01*
G01*
X15220000Y-14650000D02*
G75*
G03*
X15220000Y-14650000I-20000J0D01*
G01*
X15270000Y-12075000D02*
G75*
G03*
X15270000Y-12075000I-20000J0D01*
G01*
X15345000Y-11225000D02*
G75*
G03*
X15345000Y-11225000I-20000J0D01*
G01*
X15353980Y-12222040D02*
G75*
G03*
X15353980Y-12222040I-20000J0D01*
G01*
X15420000Y-14000000D02*
G75*
G03*
X15420000Y-14000000I-20000J0D01*
G01*
X15455880Y-14778440D02*
G75*
G03*
X15455880Y-14778440I-20000J0D01*
G01*
X15475000Y-13429030D02*
G75*
G03*
X15475000Y-13429030I-20000J0D01*
G01*
X15478770Y-11256230D02*
G75*
G03*
X15478770Y-11256230I-20000J0D01*
G01*
X15551800Y-10929620D02*
G75*
G03*
X15551800Y-10929620I-20000J0D01*
G01*
X15562535Y-11442465D02*
G75*
G03*
X15562535Y-11442465I-20000J0D01*
G01*
X15572420Y-12100560D02*
G75*
G03*
X15572420Y-12100560I-20000J0D01*
G01*
X15588344Y-12466609D02*
G75*
G03*
X15588344Y-12466609I-20000J0D01*
G01*
X15600000Y-12917550D02*
G75*
G03*
X15600000Y-12917550I-20000J0D01*
G01*
X15710000Y-13122550D02*
G75*
G03*
X15710000Y-13122550I-20000J0D01*
G01*
X15710050Y-12905000D02*
G75*
G03*
X15710050Y-12905000I-20000J0D01*
G01*
X15785000Y-12733790D02*
G75*
G03*
X15785000Y-12733790I-20000J0D01*
G01*
X15785000Y-13460000D02*
G75*
G03*
X15785000Y-13460000I-20000J0D01*
G01*
X15830000Y-13635000D02*
G75*
G03*
X15830000Y-13635000I-20000J0D01*
G01*
X16000000Y-13745000D02*
G75*
G03*
X16000000Y-13745000I-20000J0D01*
G01*
X16015000Y-13570000D02*
G75*
G03*
X16015000Y-13570000I-20000J0D01*
G01*
X16120000Y-13400000D02*
G75*
G03*
X16120000Y-13400000I-20000J0D01*
G01*
X16159460Y-10208260D02*
G75*
G03*
X16159460Y-10208260I-20000J0D01*
G01*
X16162000Y-14358320D02*
G75*
G03*
X16162000Y-14358320I-20000J0D01*
G01*
X16162000Y-15206680D02*
G75*
G03*
X16162000Y-15206680I-20000J0D01*
G01*
X16175000Y-12560000D02*
G75*
G03*
X16175000Y-12560000I-20000J0D01*
G01*
X16175000Y-12815000D02*
G75*
G03*
X16175000Y-12815000I-20000J0D01*
G01*
X16250000Y-13045000D02*
G75*
G03*
X16250000Y-13045000I-20000J0D01*
G01*
X16267500Y-14850000D02*
G75*
G03*
X16267500Y-14850000I-20000J0D01*
G01*
X16345000Y-14025000D02*
G75*
G03*
X16345000Y-14025000I-20000J0D01*
G01*
X16360000Y-15295000D02*
G75*
G03*
X16360000Y-15295000I-20000J0D01*
G01*
X16395000Y-13097500D02*
G75*
G03*
X16395000Y-13097500I-20000J0D01*
G01*
X16395000Y-13302500D02*
G75*
G03*
X16395000Y-13302500I-20000J0D01*
G01*
X16445000Y-12460000D02*
G75*
G03*
X16445000Y-12460000I-20000J0D01*
G01*
X16451360Y-13493640D02*
G75*
G03*
X16451360Y-13493640I-20000J0D01*
G01*
X16470000Y-11945000D02*
G75*
G03*
X16470000Y-11945000I-20000J0D01*
G01*
X16470000Y-14675000D02*
G75*
G03*
X16470000Y-14675000I-20000J0D01*
G01*
X16570000Y-12585000D02*
G75*
G03*
X16570000Y-12585000I-20000J0D01*
G01*
X16595000Y-12920000D02*
G75*
G03*
X16595000Y-12920000I-20000J0D01*
G01*
X16647370Y-12357630D02*
G75*
G03*
X16647370Y-12357630I-20000J0D01*
G01*
X16673450Y-13410000D02*
G75*
G03*
X16673450Y-13410000I-20000J0D01*
G01*
X16715000Y-13000000D02*
G75*
G03*
X16715000Y-13000000I-20000J0D01*
G01*
X16720800Y-14923240D02*
G75*
G03*
X16720800Y-14923240I-20000J0D01*
G01*
X16720800Y-15422280D02*
G75*
G03*
X16720800Y-15422280I-20000J0D01*
G01*
X16880000Y-12845000D02*
G75*
G03*
X16880000Y-12845000I-20000J0D01*
G01*
X16895000Y-14845000D02*
G75*
G03*
X16895000Y-14845000I-20000J0D01*
G01*
X16995000Y-13250000D02*
G75*
G03*
X16995000Y-13250000I-20000J0D01*
G01*
X17005000Y-11530000D02*
G75*
G03*
X17005000Y-11530000I-20000J0D01*
G01*
X17031590Y-12375000D02*
G75*
G03*
X17031590Y-12375000I-20000J0D01*
G01*
X17125000Y-13570000D02*
G75*
G03*
X17125000Y-13570000I-20000J0D01*
G01*
X17190040Y-12610040D02*
G75*
G03*
X17190040Y-12610040I-20000J0D01*
G01*
X17294840Y-14874240D02*
G75*
G03*
X17294840Y-14874240I-20000J0D01*
G01*
X17375000Y-15802550D02*
G75*
G03*
X17375000Y-15802550I-20000J0D01*
G01*
X17400000Y-12675000D02*
G75*
G03*
X17400000Y-12675000I-20000J0D01*
G01*
X17525000Y-12680000D02*
G75*
G03*
X17525000Y-12680000I-20000J0D01*
G01*
X17690000Y-12825000D02*
G75*
G03*
X17690000Y-12825000I-20000J0D01*
G01*
X17732320Y-15407400D02*
G75*
G03*
X17732320Y-15407400I-20000J0D01*
G01*
X17757720Y-13670040D02*
G75*
G03*
X17757720Y-13670040I-20000J0D01*
G01*
X17870000Y-12677550D02*
G75*
G03*
X17870000Y-12677550I-20000J0D01*
G01*
X17990000Y-12526530D02*
G75*
G03*
X17990000Y-12526530I-20000J0D01*
G01*
X18030000Y-11730000D02*
G75*
G03*
X18030000Y-11730000I-20000J0D01*
G01*
X18133730Y-12873730D02*
G75*
G03*
X18133730Y-12873730I-20000J0D01*
G01*
X18204160Y-14714220D02*
G75*
G03*
X18204160Y-14714220I-20000J0D01*
G01*
X18322940Y-13921740D02*
G75*
G03*
X18322940Y-13921740I-20000J0D01*
G01*
X18390000Y-12420000D02*
G75*
G03*
X18390000Y-12420000I-20000J0D01*
G01*
X18415000Y-13255575D02*
G75*
G03*
X18415000Y-13255575I-20000J0D01*
G01*
X18435000Y-14590000D02*
G75*
G03*
X18435000Y-14590000I-20000J0D01*
G01*
X18468730Y-12628730D02*
G75*
G03*
X18468730Y-12628730I-20000J0D01*
G01*
X18535000Y-12955000D02*
G75*
G03*
X18535000Y-12955000I-20000J0D01*
G01*
X18550000Y-13180000D02*
G75*
G03*
X18550000Y-13180000I-20000J0D01*
G01*
X18571270Y-12746270D02*
G75*
G03*
X18571270Y-12746270I-20000J0D01*
G01*
X18705000Y-13735000D02*
G75*
G03*
X18705000Y-13735000I-20000J0D01*
G01*
X18816600Y-11511280D02*
G75*
G03*
X18816600Y-11511280I-20000J0D01*
G01*
X18850000Y-13825000D02*
G75*
G03*
X18850000Y-13825000I-20000J0D01*
G01*
X18930000Y-13335000D02*
G75*
G03*
X18930000Y-13335000I-20000J0D01*
G01*
X19020000Y-13190575D02*
G75*
G03*
X19020000Y-13190575I-20000J0D01*
G01*
X19077920Y-13857940D02*
G75*
G03*
X19077920Y-13857940I-20000J0D01*
G01*
X19135000Y-13340000D02*
G75*
G03*
X19135000Y-13340000I-20000J0D01*
G01*
X19195000Y-11890000D02*
G75*
G03*
X19195000Y-11890000I-20000J0D01*
G01*
X19320000Y-14715000D02*
G75*
G03*
X19320000Y-14715000I-20000J0D01*
G01*
X19375000Y-11945000D02*
G75*
G03*
X19375000Y-11945000I-20000J0D01*
G01*
X19410660Y-10830260D02*
G75*
G03*
X19410660Y-10830260I-20000J0D01*
G01*
X19512450Y-13786250D02*
G75*
G03*
X19512450Y-13786250I-20000J0D01*
G01*
X19515000Y-12120000D02*
G75*
G03*
X19515000Y-12120000I-20000J0D01*
G01*
X19517620Y-15392380D02*
G75*
G03*
X19517620Y-15392380I-20000J0D01*
G01*
X19540625Y-13020625D02*
G75*
G03*
X19540625Y-13020625I-20000J0D01*
G01*
X19625000Y-14940000D02*
G75*
G03*
X19625000Y-14940000I-20000J0D01*
G01*
X19630000Y-14480000D02*
G75*
G03*
X19630000Y-14480000I-20000J0D01*
G01*
X19770000Y-13815000D02*
G75*
G03*
X19770000Y-13815000I-20000J0D01*
G01*
X19845000Y-10840000D02*
G75*
G03*
X19845000Y-10840000I-20000J0D01*
G01*
X19905000Y-12690000D02*
G75*
G03*
X19905000Y-12690000I-20000J0D01*
G01*
X20113340Y-12369800D02*
G75*
G03*
X20113340Y-12369800I-20000J0D01*
G01*
X20256480Y-13852620D02*
G75*
G03*
X20256480Y-13852620I-20000J0D01*
G01*
X20510000Y-13730000D02*
G75*
G03*
X20510000Y-13730000I-20000J0D01*
G01*
X20556250Y-10978750D02*
G75*
G03*
X20556250Y-10978750I-20000J0D01*
G01*
X20615000Y-13147450D02*
G75*
G03*
X20615000Y-13147450I-20000J0D01*
G01*
X20713380Y-10423560D02*
G75*
G03*
X20713380Y-10423560I-20000J0D01*
G01*
X20713380Y-12692080D02*
G75*
G03*
X20713380Y-12692080I-20000J0D01*
G01*
X20730000Y-13495000D02*
G75*
G03*
X20730000Y-13495000I-20000J0D01*
G01*
X21150260Y-9991760D02*
G75*
G03*
X21150260Y-9991760I-20000J0D01*
G01*
X21650000Y-11280000D02*
G75*
G03*
X21650000Y-11280000I-20000J0D01*
G01*
X21652500Y-11715000D02*
G75*
G03*
X21652500Y-11715000I-20000J0D01*
G01*
X21655000Y-10645000D02*
G75*
G03*
X21655000Y-10645000I-20000J0D01*
G01*
X21655000Y-10845000D02*
G75*
G03*
X21655000Y-10845000I-20000J0D01*
G01*
X21655000Y-11945000D02*
G75*
G03*
X21655000Y-11945000I-20000J0D01*
G01*
X21685000Y-12565000D02*
G75*
G03*
X21685000Y-12565000I-20000J0D01*
G01*
X21905960Y-9890460D02*
G75*
G03*
X21905960Y-9890460I-20000J0D01*
G01*
X22038960Y-10360360D02*
G75*
G03*
X22038960Y-10360360I-20000J0D01*
G01*
X22045240Y-15572740D02*
G75*
G03*
X22045240Y-15572740I-20000J0D01*
G01*
X22083340Y-14559280D02*
G75*
G03*
X22083340Y-14559280I-20000J0D01*
G01*
X22090960Y-14942820D02*
G75*
G03*
X22090960Y-14942820I-20000J0D01*
G01*
X22349740Y-14216380D02*
G75*
G03*
X22349740Y-14216380I-20000J0D01*
G01*
X11841000Y-15712500D02*
X11841000Y-15787500D01*
X11803500Y-15750000D02*
X11878500Y-15750000D01*
X11968000Y-15712500D02*
X11968000Y-15787500D01*
X11930500Y-15750000D02*
X12005500Y-15750000D01*
X12095000Y-15712500D02*
X12095000Y-15787500D01*
X12057500Y-15750000D02*
X12132500Y-15750000D01*
X13078000Y-10093500D02*
X13078000Y-10168500D01*
X13040500Y-10131000D02*
X13115500Y-10131000D01*
X13205000Y-10093500D02*
X13205000Y-10168500D01*
X13167500Y-10131000D02*
X13242500Y-10131000D01*
X13332000Y-10093500D02*
X13332000Y-10168500D01*
X13294500Y-10131000D02*
X13369500Y-10131000D01*
X16985000Y-10397500D02*
X16985000Y-10472500D01*
X16947500Y-10435000D02*
X17022500Y-10435000D01*
X16985000Y-10524500D02*
X16985000Y-10599500D01*
X16947500Y-10562000D02*
X17022500Y-10562000D01*
X16985000Y-10651500D02*
X16985000Y-10726500D01*
X16947500Y-10689000D02*
X17022500Y-10689000D01*
X18650000Y-15667500D02*
X18650000Y-15742500D01*
X18612500Y-15705000D02*
X18687500Y-15705000D01*
X18777000Y-15667500D02*
X18777000Y-15742500D01*
X18739500Y-15705000D02*
X18814500Y-15705000D01*
X18904000Y-15667500D02*
X18904000Y-15742500D01*
X18866500Y-15705000D02*
X18941500Y-15705000D01*
X20605000Y-14343500D02*
X20605000Y-14418500D01*
X20567500Y-14381000D02*
X20642500Y-14381000D01*
X20605000Y-14470500D02*
X20605000Y-14545500D01*
X20567500Y-14508000D02*
X20642500Y-14508000D01*
X20605000Y-14597500D02*
X20605000Y-14672500D01*
X20567500Y-14635000D02*
X20642500Y-14635000D01*
X22410000Y-15617500D02*
X22410000Y-15692500D01*
X22372500Y-15655000D02*
X22447500Y-15655000D01*
X22537000Y-15617500D02*
X22537000Y-15692500D01*
X22499500Y-15655000D02*
X22574500Y-15655000D01*
X22664000Y-15617500D02*
X22664000Y-15692500D01*
X22626500Y-15655000D02*
X22701500Y-15655000D01*
X10538256Y-12107976D02*
X10538256Y-12037264D01*
X10467544Y-12037264D01*
X10467544Y-12107976D01*
X10538256Y-12107976D01*
X10538256Y-12361976D02*
X10538256Y-12291264D01*
X10467544Y-12291264D01*
X10467544Y-12361976D01*
X10538256Y-12361976D01*
X10545876Y-12928396D02*
X10545876Y-12857684D01*
X10475164Y-12857684D01*
X10475164Y-12928396D01*
X10545876Y-12928396D01*
X10545876Y-13182396D02*
X10545876Y-13111684D01*
X10475164Y-13111684D01*
X10475164Y-13182396D01*
X10545876Y-13182396D01*
D12*
X11966320Y-12626800D02*
X12031320Y-12561800D01*
X11966320Y-12496800D01*
X11901320Y-12561800D01*
X11966320Y-12626800D01*
X11966320Y-13126800D02*
X12031320Y-13061800D01*
X11966320Y-12996800D01*
X11901320Y-13061800D01*
X11966320Y-13126800D01*
X12966320Y-12876800D02*
X13031320Y-12811800D01*
X12966320Y-12746800D01*
X12901320Y-12811800D01*
X12966320Y-12876800D01*
D11*
X10403077Y-16444584D02*
X10403077Y-16244584D01*
X10403077Y-16244584D02*
X10450696Y-16244584D01*
X10450696Y-16244584D02*
X10479267Y-16254108D01*
X10479267Y-16254108D02*
X10498315Y-16273155D01*
X10498315Y-16273155D02*
X10507839Y-16292203D01*
X10507839Y-16292203D02*
X10517363Y-16330298D01*
X10517363Y-16330298D02*
X10517363Y-16358869D01*
X10517363Y-16358869D02*
X10507839Y-16396965D01*
X10507839Y-16396965D02*
X10498315Y-16416012D01*
X10498315Y-16416012D02*
X10479267Y-16435060D01*
X10479267Y-16435060D02*
X10450696Y-16444584D01*
X10450696Y-16444584D02*
X10403077Y-16444584D01*
X10603077Y-16444584D02*
X10603077Y-16311250D01*
X10603077Y-16349346D02*
X10612601Y-16330298D01*
X10612601Y-16330298D02*
X10622124Y-16320774D01*
X10622124Y-16320774D02*
X10641172Y-16311250D01*
X10641172Y-16311250D02*
X10660220Y-16311250D01*
X10726886Y-16444584D02*
X10726886Y-16311250D01*
X10726886Y-16244584D02*
X10717363Y-16254108D01*
X10717363Y-16254108D02*
X10726886Y-16263631D01*
X10726886Y-16263631D02*
X10736410Y-16254108D01*
X10736410Y-16254108D02*
X10726886Y-16244584D01*
X10726886Y-16244584D02*
X10726886Y-16263631D01*
X10850696Y-16444584D02*
X10831648Y-16435060D01*
X10831648Y-16435060D02*
X10822124Y-16416012D01*
X10822124Y-16416012D02*
X10822124Y-16244584D01*
X10955458Y-16444584D02*
X10936410Y-16435060D01*
X10936410Y-16435060D02*
X10926886Y-16416012D01*
X10926886Y-16416012D02*
X10926886Y-16244584D01*
X11184029Y-16444584D02*
X11184029Y-16244584D01*
X11184029Y-16244584D02*
X11250696Y-16387441D01*
X11250696Y-16387441D02*
X11317362Y-16244584D01*
X11317362Y-16244584D02*
X11317362Y-16444584D01*
X11498315Y-16444584D02*
X11498315Y-16339822D01*
X11498315Y-16339822D02*
X11488791Y-16320774D01*
X11488791Y-16320774D02*
X11469743Y-16311250D01*
X11469743Y-16311250D02*
X11431648Y-16311250D01*
X11431648Y-16311250D02*
X11412601Y-16320774D01*
X11498315Y-16435060D02*
X11479267Y-16444584D01*
X11479267Y-16444584D02*
X11431648Y-16444584D01*
X11431648Y-16444584D02*
X11412601Y-16435060D01*
X11412601Y-16435060D02*
X11403077Y-16416012D01*
X11403077Y-16416012D02*
X11403077Y-16396965D01*
X11403077Y-16396965D02*
X11412601Y-16377917D01*
X11412601Y-16377917D02*
X11431648Y-16368393D01*
X11431648Y-16368393D02*
X11479267Y-16368393D01*
X11479267Y-16368393D02*
X11498315Y-16358869D01*
X11593553Y-16311250D02*
X11593553Y-16511250D01*
X11593553Y-16320774D02*
X11612601Y-16311250D01*
X11612601Y-16311250D02*
X11650696Y-16311250D01*
X11650696Y-16311250D02*
X11669743Y-16320774D01*
X11669743Y-16320774D02*
X11679267Y-16330298D01*
X11679267Y-16330298D02*
X11688791Y-16349346D01*
X11688791Y-16349346D02*
X11688791Y-16406488D01*
X11688791Y-16406488D02*
X11679267Y-16425536D01*
X11679267Y-16425536D02*
X11669743Y-16435060D01*
X11669743Y-16435060D02*
X11650696Y-16444584D01*
X11650696Y-16444584D02*
X11612601Y-16444584D01*
X11612601Y-16444584D02*
X11593553Y-16435060D01*
X11774505Y-16425536D02*
X11784029Y-16435060D01*
X11784029Y-16435060D02*
X11774505Y-16444584D01*
X11774505Y-16444584D02*
X11764982Y-16435060D01*
X11764982Y-16435060D02*
X11774505Y-16425536D01*
X11774505Y-16425536D02*
X11774505Y-16444584D01*
X11774505Y-16320774D02*
X11784029Y-16330298D01*
X11784029Y-16330298D02*
X11774505Y-16339822D01*
X11774505Y-16339822D02*
X11764982Y-16330298D01*
X11764982Y-16330298D02*
X11774505Y-16320774D01*
X11774505Y-16320774D02*
X11774505Y-16339822D01*
D10*
X10112300Y-16758100D02*
X10142300Y-16788100D01*
X10142300Y-16758100D02*
X10112300Y-16788100D01*
D11*
X10441172Y-16664584D02*
X10460220Y-16664584D01*
X10460220Y-16664584D02*
X10479267Y-16674108D01*
X10479267Y-16674108D02*
X10488791Y-16683631D01*
X10488791Y-16683631D02*
X10498315Y-16702679D01*
X10498315Y-16702679D02*
X10507839Y-16740774D01*
X10507839Y-16740774D02*
X10507839Y-16788393D01*
X10507839Y-16788393D02*
X10498315Y-16826489D01*
X10498315Y-16826489D02*
X10488791Y-16845536D01*
X10488791Y-16845536D02*
X10479267Y-16855060D01*
X10479267Y-16855060D02*
X10460220Y-16864584D01*
X10460220Y-16864584D02*
X10441172Y-16864584D01*
X10441172Y-16864584D02*
X10422124Y-16855060D01*
X10422124Y-16855060D02*
X10412601Y-16845536D01*
X10412601Y-16845536D02*
X10403077Y-16826489D01*
X10403077Y-16826489D02*
X10393553Y-16788393D01*
X10393553Y-16788393D02*
X10393553Y-16740774D01*
X10393553Y-16740774D02*
X10403077Y-16702679D01*
X10403077Y-16702679D02*
X10412601Y-16683631D01*
X10412601Y-16683631D02*
X10422124Y-16674108D01*
X10422124Y-16674108D02*
X10441172Y-16664584D01*
X10593553Y-16845536D02*
X10603077Y-16855060D01*
X10603077Y-16855060D02*
X10593553Y-16864584D01*
X10593553Y-16864584D02*
X10584029Y-16855060D01*
X10584029Y-16855060D02*
X10593553Y-16845536D01*
X10593553Y-16845536D02*
X10593553Y-16864584D01*
X10669744Y-16664584D02*
X10793553Y-16664584D01*
X10793553Y-16664584D02*
X10726886Y-16740774D01*
X10726886Y-16740774D02*
X10755458Y-16740774D01*
X10755458Y-16740774D02*
X10774505Y-16750298D01*
X10774505Y-16750298D02*
X10784029Y-16759822D01*
X10784029Y-16759822D02*
X10793553Y-16778870D01*
X10793553Y-16778870D02*
X10793553Y-16826489D01*
X10793553Y-16826489D02*
X10784029Y-16845536D01*
X10784029Y-16845536D02*
X10774505Y-16855060D01*
X10774505Y-16855060D02*
X10755458Y-16864584D01*
X10755458Y-16864584D02*
X10698315Y-16864584D01*
X10698315Y-16864584D02*
X10679267Y-16855060D01*
X10679267Y-16855060D02*
X10669744Y-16845536D01*
X10917363Y-16664584D02*
X10936410Y-16664584D01*
X10936410Y-16664584D02*
X10955458Y-16674108D01*
X10955458Y-16674108D02*
X10964982Y-16683631D01*
X10964982Y-16683631D02*
X10974505Y-16702679D01*
X10974505Y-16702679D02*
X10984029Y-16740774D01*
X10984029Y-16740774D02*
X10984029Y-16788393D01*
X10984029Y-16788393D02*
X10974505Y-16826489D01*
X10974505Y-16826489D02*
X10964982Y-16845536D01*
X10964982Y-16845536D02*
X10955458Y-16855060D01*
X10955458Y-16855060D02*
X10936410Y-16864584D01*
X10936410Y-16864584D02*
X10917363Y-16864584D01*
X10917363Y-16864584D02*
X10898315Y-16855060D01*
X10898315Y-16855060D02*
X10888791Y-16845536D01*
X10888791Y-16845536D02*
X10879267Y-16826489D01*
X10879267Y-16826489D02*
X10869744Y-16788393D01*
X10869744Y-16788393D02*
X10869744Y-16740774D01*
X10869744Y-16740774D02*
X10879267Y-16702679D01*
X10879267Y-16702679D02*
X10888791Y-16683631D01*
X10888791Y-16683631D02*
X10898315Y-16674108D01*
X10898315Y-16674108D02*
X10917363Y-16664584D01*
X11107839Y-16664584D02*
X11126886Y-16664584D01*
X11126886Y-16664584D02*
X11145934Y-16674108D01*
X11145934Y-16674108D02*
X11155458Y-16683631D01*
X11155458Y-16683631D02*
X11164982Y-16702679D01*
X11164982Y-16702679D02*
X11174505Y-16740774D01*
X11174505Y-16740774D02*
X11174505Y-16788393D01*
X11174505Y-16788393D02*
X11164982Y-16826489D01*
X11164982Y-16826489D02*
X11155458Y-16845536D01*
X11155458Y-16845536D02*
X11145934Y-16855060D01*
X11145934Y-16855060D02*
X11126886Y-16864584D01*
X11126886Y-16864584D02*
X11107839Y-16864584D01*
X11107839Y-16864584D02*
X11088791Y-16855060D01*
X11088791Y-16855060D02*
X11079267Y-16845536D01*
X11079267Y-16845536D02*
X11069744Y-16826489D01*
X11069744Y-16826489D02*
X11060220Y-16788393D01*
X11060220Y-16788393D02*
X11060220Y-16740774D01*
X11060220Y-16740774D02*
X11069744Y-16702679D01*
X11069744Y-16702679D02*
X11079267Y-16683631D01*
X11079267Y-16683631D02*
X11088791Y-16674108D01*
X11088791Y-16674108D02*
X11107839Y-16664584D01*
X11260220Y-16864584D02*
X11260220Y-16731250D01*
X11260220Y-16750298D02*
X11269743Y-16740774D01*
X11269743Y-16740774D02*
X11288791Y-16731250D01*
X11288791Y-16731250D02*
X11317363Y-16731250D01*
X11317363Y-16731250D02*
X11336410Y-16740774D01*
X11336410Y-16740774D02*
X11345934Y-16759822D01*
X11345934Y-16759822D02*
X11345934Y-16864584D01*
X11345934Y-16759822D02*
X11355458Y-16740774D01*
X11355458Y-16740774D02*
X11374505Y-16731250D01*
X11374505Y-16731250D02*
X11403077Y-16731250D01*
X11403077Y-16731250D02*
X11422124Y-16740774D01*
X11422124Y-16740774D02*
X11431648Y-16759822D01*
X11431648Y-16759822D02*
X11431648Y-16864584D01*
X11526886Y-16864584D02*
X11526886Y-16731250D01*
X11526886Y-16750298D02*
X11536410Y-16740774D01*
X11536410Y-16740774D02*
X11555458Y-16731250D01*
X11555458Y-16731250D02*
X11584029Y-16731250D01*
X11584029Y-16731250D02*
X11603077Y-16740774D01*
X11603077Y-16740774D02*
X11612601Y-16759822D01*
X11612601Y-16759822D02*
X11612601Y-16864584D01*
X11612601Y-16759822D02*
X11622124Y-16740774D01*
X11622124Y-16740774D02*
X11641172Y-16731250D01*
X11641172Y-16731250D02*
X11669743Y-16731250D01*
X11669743Y-16731250D02*
X11688791Y-16740774D01*
X11688791Y-16740774D02*
X11698315Y-16759822D01*
X11698315Y-16759822D02*
X11698315Y-16864584D01*
X12088791Y-16655060D02*
X11917363Y-16912203D01*
X12345934Y-16664584D02*
X12364982Y-16664584D01*
X12364982Y-16664584D02*
X12384029Y-16674108D01*
X12384029Y-16674108D02*
X12393553Y-16683631D01*
X12393553Y-16683631D02*
X12403077Y-16702679D01*
X12403077Y-16702679D02*
X12412601Y-16740774D01*
X12412601Y-16740774D02*
X12412601Y-16788393D01*
X12412601Y-16788393D02*
X12403077Y-16826489D01*
X12403077Y-16826489D02*
X12393553Y-16845536D01*
X12393553Y-16845536D02*
X12384029Y-16855060D01*
X12384029Y-16855060D02*
X12364982Y-16864584D01*
X12364982Y-16864584D02*
X12345934Y-16864584D01*
X12345934Y-16864584D02*
X12326886Y-16855060D01*
X12326886Y-16855060D02*
X12317363Y-16845536D01*
X12317363Y-16845536D02*
X12307839Y-16826489D01*
X12307839Y-16826489D02*
X12298315Y-16788393D01*
X12298315Y-16788393D02*
X12298315Y-16740774D01*
X12298315Y-16740774D02*
X12307839Y-16702679D01*
X12307839Y-16702679D02*
X12317363Y-16683631D01*
X12317363Y-16683631D02*
X12326886Y-16674108D01*
X12326886Y-16674108D02*
X12345934Y-16664584D01*
X12498315Y-16845536D02*
X12507839Y-16855060D01*
X12507839Y-16855060D02*
X12498315Y-16864584D01*
X12498315Y-16864584D02*
X12488791Y-16855060D01*
X12488791Y-16855060D02*
X12498315Y-16845536D01*
X12498315Y-16845536D02*
X12498315Y-16864584D01*
X12631648Y-16664584D02*
X12650696Y-16664584D01*
X12650696Y-16664584D02*
X12669744Y-16674108D01*
X12669744Y-16674108D02*
X12679267Y-16683631D01*
X12679267Y-16683631D02*
X12688791Y-16702679D01*
X12688791Y-16702679D02*
X12698315Y-16740774D01*
X12698315Y-16740774D02*
X12698315Y-16788393D01*
X12698315Y-16788393D02*
X12688791Y-16826489D01*
X12688791Y-16826489D02*
X12679267Y-16845536D01*
X12679267Y-16845536D02*
X12669744Y-16855060D01*
X12669744Y-16855060D02*
X12650696Y-16864584D01*
X12650696Y-16864584D02*
X12631648Y-16864584D01*
X12631648Y-16864584D02*
X12612601Y-16855060D01*
X12612601Y-16855060D02*
X12603077Y-16845536D01*
X12603077Y-16845536D02*
X12593553Y-16826489D01*
X12593553Y-16826489D02*
X12584029Y-16788393D01*
X12584029Y-16788393D02*
X12584029Y-16740774D01*
X12584029Y-16740774D02*
X12593553Y-16702679D01*
X12593553Y-16702679D02*
X12603077Y-16683631D01*
X12603077Y-16683631D02*
X12612601Y-16674108D01*
X12612601Y-16674108D02*
X12631648Y-16664584D01*
X12888791Y-16864584D02*
X12774506Y-16864584D01*
X12831648Y-16864584D02*
X12831648Y-16664584D01*
X12831648Y-16664584D02*
X12812601Y-16693155D01*
X12812601Y-16693155D02*
X12793553Y-16712203D01*
X12793553Y-16712203D02*
X12774506Y-16721727D01*
X13079267Y-16864584D02*
X12964982Y-16864584D01*
X13022125Y-16864584D02*
X13022125Y-16664584D01*
X13022125Y-16664584D02*
X13003077Y-16693155D01*
X13003077Y-16693155D02*
X12984029Y-16712203D01*
X12984029Y-16712203D02*
X12964982Y-16721727D01*
X13193553Y-16750298D02*
X13174506Y-16740774D01*
X13174506Y-16740774D02*
X13164982Y-16731250D01*
X13164982Y-16731250D02*
X13155458Y-16712203D01*
X13155458Y-16712203D02*
X13155458Y-16702679D01*
X13155458Y-16702679D02*
X13164982Y-16683631D01*
X13164982Y-16683631D02*
X13174506Y-16674108D01*
X13174506Y-16674108D02*
X13193553Y-16664584D01*
X13193553Y-16664584D02*
X13231648Y-16664584D01*
X13231648Y-16664584D02*
X13250696Y-16674108D01*
X13250696Y-16674108D02*
X13260220Y-16683631D01*
X13260220Y-16683631D02*
X13269744Y-16702679D01*
X13269744Y-16702679D02*
X13269744Y-16712203D01*
X13269744Y-16712203D02*
X13260220Y-16731250D01*
X13260220Y-16731250D02*
X13250696Y-16740774D01*
X13250696Y-16740774D02*
X13231648Y-16750298D01*
X13231648Y-16750298D02*
X13193553Y-16750298D01*
X13193553Y-16750298D02*
X13174506Y-16759822D01*
X13174506Y-16759822D02*
X13164982Y-16769346D01*
X13164982Y-16769346D02*
X13155458Y-16788393D01*
X13155458Y-16788393D02*
X13155458Y-16826489D01*
X13155458Y-16826489D02*
X13164982Y-16845536D01*
X13164982Y-16845536D02*
X13174506Y-16855060D01*
X13174506Y-16855060D02*
X13193553Y-16864584D01*
X13193553Y-16864584D02*
X13231648Y-16864584D01*
X13231648Y-16864584D02*
X13250696Y-16855060D01*
X13250696Y-16855060D02*
X13260220Y-16845536D01*
X13260220Y-16845536D02*
X13269744Y-16826489D01*
X13269744Y-16826489D02*
X13269744Y-16788393D01*
X13269744Y-16788393D02*
X13260220Y-16769346D01*
X13260220Y-16769346D02*
X13250696Y-16759822D01*
X13250696Y-16759822D02*
X13231648Y-16750298D01*
X13345934Y-16664584D02*
X13345934Y-16702679D01*
X13422125Y-16664584D02*
X13422125Y-16702679D01*
X13717363Y-16940774D02*
X13707839Y-16931250D01*
X13707839Y-16931250D02*
X13688791Y-16902679D01*
X13688791Y-16902679D02*
X13679268Y-16883631D01*
X13679268Y-16883631D02*
X13669744Y-16855060D01*
X13669744Y-16855060D02*
X13660220Y-16807441D01*
X13660220Y-16807441D02*
X13660220Y-16769346D01*
X13660220Y-16769346D02*
X13669744Y-16721727D01*
X13669744Y-16721727D02*
X13679268Y-16693155D01*
X13679268Y-16693155D02*
X13688791Y-16674108D01*
X13688791Y-16674108D02*
X13707839Y-16645536D01*
X13707839Y-16645536D02*
X13717363Y-16636012D01*
X13784029Y-16683631D02*
X13793553Y-16674108D01*
X13793553Y-16674108D02*
X13812601Y-16664584D01*
X13812601Y-16664584D02*
X13860220Y-16664584D01*
X13860220Y-16664584D02*
X13879268Y-16674108D01*
X13879268Y-16674108D02*
X13888791Y-16683631D01*
X13888791Y-16683631D02*
X13898315Y-16702679D01*
X13898315Y-16702679D02*
X13898315Y-16721727D01*
X13898315Y-16721727D02*
X13888791Y-16750298D01*
X13888791Y-16750298D02*
X13774506Y-16864584D01*
X13774506Y-16864584D02*
X13898315Y-16864584D01*
X14136410Y-16864584D02*
X14136410Y-16664584D01*
X14222125Y-16864584D02*
X14222125Y-16759822D01*
X14222125Y-16759822D02*
X14212601Y-16740774D01*
X14212601Y-16740774D02*
X14193553Y-16731250D01*
X14193553Y-16731250D02*
X14164982Y-16731250D01*
X14164982Y-16731250D02*
X14145934Y-16740774D01*
X14145934Y-16740774D02*
X14136410Y-16750298D01*
X14345934Y-16864584D02*
X14326887Y-16855060D01*
X14326887Y-16855060D02*
X14317363Y-16845536D01*
X14317363Y-16845536D02*
X14307839Y-16826489D01*
X14307839Y-16826489D02*
X14307839Y-16769346D01*
X14307839Y-16769346D02*
X14317363Y-16750298D01*
X14317363Y-16750298D02*
X14326887Y-16740774D01*
X14326887Y-16740774D02*
X14345934Y-16731250D01*
X14345934Y-16731250D02*
X14374506Y-16731250D01*
X14374506Y-16731250D02*
X14393553Y-16740774D01*
X14393553Y-16740774D02*
X14403077Y-16750298D01*
X14403077Y-16750298D02*
X14412601Y-16769346D01*
X14412601Y-16769346D02*
X14412601Y-16826489D01*
X14412601Y-16826489D02*
X14403077Y-16845536D01*
X14403077Y-16845536D02*
X14393553Y-16855060D01*
X14393553Y-16855060D02*
X14374506Y-16864584D01*
X14374506Y-16864584D02*
X14345934Y-16864584D01*
X14526887Y-16864584D02*
X14507839Y-16855060D01*
X14507839Y-16855060D02*
X14498315Y-16836012D01*
X14498315Y-16836012D02*
X14498315Y-16664584D01*
X14679268Y-16855060D02*
X14660220Y-16864584D01*
X14660220Y-16864584D02*
X14622125Y-16864584D01*
X14622125Y-16864584D02*
X14603077Y-16855060D01*
X14603077Y-16855060D02*
X14593553Y-16836012D01*
X14593553Y-16836012D02*
X14593553Y-16759822D01*
X14593553Y-16759822D02*
X14603077Y-16740774D01*
X14603077Y-16740774D02*
X14622125Y-16731250D01*
X14622125Y-16731250D02*
X14660220Y-16731250D01*
X14660220Y-16731250D02*
X14679268Y-16740774D01*
X14679268Y-16740774D02*
X14688791Y-16759822D01*
X14688791Y-16759822D02*
X14688791Y-16778870D01*
X14688791Y-16778870D02*
X14593553Y-16797917D01*
X14764982Y-16855060D02*
X14784030Y-16864584D01*
X14784030Y-16864584D02*
X14822125Y-16864584D01*
X14822125Y-16864584D02*
X14841172Y-16855060D01*
X14841172Y-16855060D02*
X14850696Y-16836012D01*
X14850696Y-16836012D02*
X14850696Y-16826489D01*
X14850696Y-16826489D02*
X14841172Y-16807441D01*
X14841172Y-16807441D02*
X14822125Y-16797917D01*
X14822125Y-16797917D02*
X14793553Y-16797917D01*
X14793553Y-16797917D02*
X14774506Y-16788393D01*
X14774506Y-16788393D02*
X14764982Y-16769346D01*
X14764982Y-16769346D02*
X14764982Y-16759822D01*
X14764982Y-16759822D02*
X14774506Y-16740774D01*
X14774506Y-16740774D02*
X14793553Y-16731250D01*
X14793553Y-16731250D02*
X14822125Y-16731250D01*
X14822125Y-16731250D02*
X14841172Y-16740774D01*
X14917363Y-16940774D02*
X14926887Y-16931250D01*
X14926887Y-16931250D02*
X14945934Y-16902679D01*
X14945934Y-16902679D02*
X14955458Y-16883631D01*
X14955458Y-16883631D02*
X14964982Y-16855060D01*
X14964982Y-16855060D02*
X14974506Y-16807441D01*
X14974506Y-16807441D02*
X14974506Y-16769346D01*
X14974506Y-16769346D02*
X14964982Y-16721727D01*
X14964982Y-16721727D02*
X14955458Y-16693155D01*
X14955458Y-16693155D02*
X14945934Y-16674108D01*
X14945934Y-16674108D02*
X14926887Y-16645536D01*
X14926887Y-16645536D02*
X14917363Y-16636012D01*
D10*
X10142300Y-17037100D02*
G75*
G03*
X10142300Y-17037100I-20000J0D01*
G01*
D11*
X10441172Y-16928584D02*
X10460220Y-16928584D01*
X10460220Y-16928584D02*
X10479267Y-16938108D01*
X10479267Y-16938108D02*
X10488791Y-16947631D01*
X10488791Y-16947631D02*
X10498315Y-16966679D01*
X10498315Y-16966679D02*
X10507839Y-17004774D01*
X10507839Y-17004774D02*
X10507839Y-17052393D01*
X10507839Y-17052393D02*
X10498315Y-17090489D01*
X10498315Y-17090489D02*
X10488791Y-17109536D01*
X10488791Y-17109536D02*
X10479267Y-17119060D01*
X10479267Y-17119060D02*
X10460220Y-17128584D01*
X10460220Y-17128584D02*
X10441172Y-17128584D01*
X10441172Y-17128584D02*
X10422124Y-17119060D01*
X10422124Y-17119060D02*
X10412601Y-17109536D01*
X10412601Y-17109536D02*
X10403077Y-17090489D01*
X10403077Y-17090489D02*
X10393553Y-17052393D01*
X10393553Y-17052393D02*
X10393553Y-17004774D01*
X10393553Y-17004774D02*
X10403077Y-16966679D01*
X10403077Y-16966679D02*
X10412601Y-16947631D01*
X10412601Y-16947631D02*
X10422124Y-16938108D01*
X10422124Y-16938108D02*
X10441172Y-16928584D01*
X10593553Y-17109536D02*
X10603077Y-17119060D01*
X10603077Y-17119060D02*
X10593553Y-17128584D01*
X10593553Y-17128584D02*
X10584029Y-17119060D01*
X10584029Y-17119060D02*
X10593553Y-17109536D01*
X10593553Y-17109536D02*
X10593553Y-17128584D01*
X10774505Y-16995250D02*
X10774505Y-17128584D01*
X10726886Y-16919060D02*
X10679267Y-17061917D01*
X10679267Y-17061917D02*
X10803077Y-17061917D01*
X10917363Y-16928584D02*
X10936410Y-16928584D01*
X10936410Y-16928584D02*
X10955458Y-16938108D01*
X10955458Y-16938108D02*
X10964982Y-16947631D01*
X10964982Y-16947631D02*
X10974505Y-16966679D01*
X10974505Y-16966679D02*
X10984029Y-17004774D01*
X10984029Y-17004774D02*
X10984029Y-17052393D01*
X10984029Y-17052393D02*
X10974505Y-17090489D01*
X10974505Y-17090489D02*
X10964982Y-17109536D01*
X10964982Y-17109536D02*
X10955458Y-17119060D01*
X10955458Y-17119060D02*
X10936410Y-17128584D01*
X10936410Y-17128584D02*
X10917363Y-17128584D01*
X10917363Y-17128584D02*
X10898315Y-17119060D01*
X10898315Y-17119060D02*
X10888791Y-17109536D01*
X10888791Y-17109536D02*
X10879267Y-17090489D01*
X10879267Y-17090489D02*
X10869744Y-17052393D01*
X10869744Y-17052393D02*
X10869744Y-17004774D01*
X10869744Y-17004774D02*
X10879267Y-16966679D01*
X10879267Y-16966679D02*
X10888791Y-16947631D01*
X10888791Y-16947631D02*
X10898315Y-16938108D01*
X10898315Y-16938108D02*
X10917363Y-16928584D01*
X11107839Y-16928584D02*
X11126886Y-16928584D01*
X11126886Y-16928584D02*
X11145934Y-16938108D01*
X11145934Y-16938108D02*
X11155458Y-16947631D01*
X11155458Y-16947631D02*
X11164982Y-16966679D01*
X11164982Y-16966679D02*
X11174505Y-17004774D01*
X11174505Y-17004774D02*
X11174505Y-17052393D01*
X11174505Y-17052393D02*
X11164982Y-17090489D01*
X11164982Y-17090489D02*
X11155458Y-17109536D01*
X11155458Y-17109536D02*
X11145934Y-17119060D01*
X11145934Y-17119060D02*
X11126886Y-17128584D01*
X11126886Y-17128584D02*
X11107839Y-17128584D01*
X11107839Y-17128584D02*
X11088791Y-17119060D01*
X11088791Y-17119060D02*
X11079267Y-17109536D01*
X11079267Y-17109536D02*
X11069744Y-17090489D01*
X11069744Y-17090489D02*
X11060220Y-17052393D01*
X11060220Y-17052393D02*
X11060220Y-17004774D01*
X11060220Y-17004774D02*
X11069744Y-16966679D01*
X11069744Y-16966679D02*
X11079267Y-16947631D01*
X11079267Y-16947631D02*
X11088791Y-16938108D01*
X11088791Y-16938108D02*
X11107839Y-16928584D01*
X11260220Y-17128584D02*
X11260220Y-16995250D01*
X11260220Y-17014298D02*
X11269743Y-17004774D01*
X11269743Y-17004774D02*
X11288791Y-16995250D01*
X11288791Y-16995250D02*
X11317363Y-16995250D01*
X11317363Y-16995250D02*
X11336410Y-17004774D01*
X11336410Y-17004774D02*
X11345934Y-17023822D01*
X11345934Y-17023822D02*
X11345934Y-17128584D01*
X11345934Y-17023822D02*
X11355458Y-17004774D01*
X11355458Y-17004774D02*
X11374505Y-16995250D01*
X11374505Y-16995250D02*
X11403077Y-16995250D01*
X11403077Y-16995250D02*
X11422124Y-17004774D01*
X11422124Y-17004774D02*
X11431648Y-17023822D01*
X11431648Y-17023822D02*
X11431648Y-17128584D01*
X11526886Y-17128584D02*
X11526886Y-16995250D01*
X11526886Y-17014298D02*
X11536410Y-17004774D01*
X11536410Y-17004774D02*
X11555458Y-16995250D01*
X11555458Y-16995250D02*
X11584029Y-16995250D01*
X11584029Y-16995250D02*
X11603077Y-17004774D01*
X11603077Y-17004774D02*
X11612601Y-17023822D01*
X11612601Y-17023822D02*
X11612601Y-17128584D01*
X11612601Y-17023822D02*
X11622124Y-17004774D01*
X11622124Y-17004774D02*
X11641172Y-16995250D01*
X11641172Y-16995250D02*
X11669743Y-16995250D01*
X11669743Y-16995250D02*
X11688791Y-17004774D01*
X11688791Y-17004774D02*
X11698315Y-17023822D01*
X11698315Y-17023822D02*
X11698315Y-17128584D01*
X12088791Y-16919060D02*
X11917363Y-17176203D01*
X12345934Y-16928584D02*
X12364982Y-16928584D01*
X12364982Y-16928584D02*
X12384029Y-16938108D01*
X12384029Y-16938108D02*
X12393553Y-16947631D01*
X12393553Y-16947631D02*
X12403077Y-16966679D01*
X12403077Y-16966679D02*
X12412601Y-17004774D01*
X12412601Y-17004774D02*
X12412601Y-17052393D01*
X12412601Y-17052393D02*
X12403077Y-17090489D01*
X12403077Y-17090489D02*
X12393553Y-17109536D01*
X12393553Y-17109536D02*
X12384029Y-17119060D01*
X12384029Y-17119060D02*
X12364982Y-17128584D01*
X12364982Y-17128584D02*
X12345934Y-17128584D01*
X12345934Y-17128584D02*
X12326886Y-17119060D01*
X12326886Y-17119060D02*
X12317363Y-17109536D01*
X12317363Y-17109536D02*
X12307839Y-17090489D01*
X12307839Y-17090489D02*
X12298315Y-17052393D01*
X12298315Y-17052393D02*
X12298315Y-17004774D01*
X12298315Y-17004774D02*
X12307839Y-16966679D01*
X12307839Y-16966679D02*
X12317363Y-16947631D01*
X12317363Y-16947631D02*
X12326886Y-16938108D01*
X12326886Y-16938108D02*
X12345934Y-16928584D01*
X12498315Y-17109536D02*
X12507839Y-17119060D01*
X12507839Y-17119060D02*
X12498315Y-17128584D01*
X12498315Y-17128584D02*
X12488791Y-17119060D01*
X12488791Y-17119060D02*
X12498315Y-17109536D01*
X12498315Y-17109536D02*
X12498315Y-17128584D01*
X12631648Y-16928584D02*
X12650696Y-16928584D01*
X12650696Y-16928584D02*
X12669744Y-16938108D01*
X12669744Y-16938108D02*
X12679267Y-16947631D01*
X12679267Y-16947631D02*
X12688791Y-16966679D01*
X12688791Y-16966679D02*
X12698315Y-17004774D01*
X12698315Y-17004774D02*
X12698315Y-17052393D01*
X12698315Y-17052393D02*
X12688791Y-17090489D01*
X12688791Y-17090489D02*
X12679267Y-17109536D01*
X12679267Y-17109536D02*
X12669744Y-17119060D01*
X12669744Y-17119060D02*
X12650696Y-17128584D01*
X12650696Y-17128584D02*
X12631648Y-17128584D01*
X12631648Y-17128584D02*
X12612601Y-17119060D01*
X12612601Y-17119060D02*
X12603077Y-17109536D01*
X12603077Y-17109536D02*
X12593553Y-17090489D01*
X12593553Y-17090489D02*
X12584029Y-17052393D01*
X12584029Y-17052393D02*
X12584029Y-17004774D01*
X12584029Y-17004774D02*
X12593553Y-16966679D01*
X12593553Y-16966679D02*
X12603077Y-16947631D01*
X12603077Y-16947631D02*
X12612601Y-16938108D01*
X12612601Y-16938108D02*
X12631648Y-16928584D01*
X12888791Y-17128584D02*
X12774506Y-17128584D01*
X12831648Y-17128584D02*
X12831648Y-16928584D01*
X12831648Y-16928584D02*
X12812601Y-16957155D01*
X12812601Y-16957155D02*
X12793553Y-16976203D01*
X12793553Y-16976203D02*
X12774506Y-16985727D01*
X13069744Y-16928584D02*
X12974506Y-16928584D01*
X12974506Y-16928584D02*
X12964982Y-17023822D01*
X12964982Y-17023822D02*
X12974506Y-17014298D01*
X12974506Y-17014298D02*
X12993553Y-17004774D01*
X12993553Y-17004774D02*
X13041172Y-17004774D01*
X13041172Y-17004774D02*
X13060220Y-17014298D01*
X13060220Y-17014298D02*
X13069744Y-17023822D01*
X13069744Y-17023822D02*
X13079267Y-17042870D01*
X13079267Y-17042870D02*
X13079267Y-17090489D01*
X13079267Y-17090489D02*
X13069744Y-17109536D01*
X13069744Y-17109536D02*
X13060220Y-17119060D01*
X13060220Y-17119060D02*
X13041172Y-17128584D01*
X13041172Y-17128584D02*
X12993553Y-17128584D01*
X12993553Y-17128584D02*
X12974506Y-17119060D01*
X12974506Y-17119060D02*
X12964982Y-17109536D01*
X13145934Y-16928584D02*
X13279267Y-16928584D01*
X13279267Y-16928584D02*
X13193553Y-17128584D01*
X13345934Y-16928584D02*
X13345934Y-16966679D01*
X13422125Y-16928584D02*
X13422125Y-16966679D01*
X13717363Y-17204774D02*
X13707839Y-17195250D01*
X13707839Y-17195250D02*
X13688791Y-17166679D01*
X13688791Y-17166679D02*
X13679268Y-17147631D01*
X13679268Y-17147631D02*
X13669744Y-17119060D01*
X13669744Y-17119060D02*
X13660220Y-17071441D01*
X13660220Y-17071441D02*
X13660220Y-17033346D01*
X13660220Y-17033346D02*
X13669744Y-16985727D01*
X13669744Y-16985727D02*
X13679268Y-16957155D01*
X13679268Y-16957155D02*
X13688791Y-16938108D01*
X13688791Y-16938108D02*
X13707839Y-16909536D01*
X13707839Y-16909536D02*
X13717363Y-16900012D01*
X13898315Y-17128584D02*
X13784029Y-17128584D01*
X13841172Y-17128584D02*
X13841172Y-16928584D01*
X13841172Y-16928584D02*
X13822125Y-16957155D01*
X13822125Y-16957155D02*
X13803077Y-16976203D01*
X13803077Y-16976203D02*
X13784029Y-16985727D01*
X13964982Y-16928584D02*
X14098315Y-16928584D01*
X14098315Y-16928584D02*
X14012601Y-17128584D01*
X14260220Y-16928584D02*
X14222125Y-16928584D01*
X14222125Y-16928584D02*
X14203077Y-16938108D01*
X14203077Y-16938108D02*
X14193553Y-16947631D01*
X14193553Y-16947631D02*
X14174506Y-16976203D01*
X14174506Y-16976203D02*
X14164982Y-17014298D01*
X14164982Y-17014298D02*
X14164982Y-17090489D01*
X14164982Y-17090489D02*
X14174506Y-17109536D01*
X14174506Y-17109536D02*
X14184029Y-17119060D01*
X14184029Y-17119060D02*
X14203077Y-17128584D01*
X14203077Y-17128584D02*
X14241172Y-17128584D01*
X14241172Y-17128584D02*
X14260220Y-17119060D01*
X14260220Y-17119060D02*
X14269744Y-17109536D01*
X14269744Y-17109536D02*
X14279268Y-17090489D01*
X14279268Y-17090489D02*
X14279268Y-17042870D01*
X14279268Y-17042870D02*
X14269744Y-17023822D01*
X14269744Y-17023822D02*
X14260220Y-17014298D01*
X14260220Y-17014298D02*
X14241172Y-17004774D01*
X14241172Y-17004774D02*
X14203077Y-17004774D01*
X14203077Y-17004774D02*
X14184029Y-17014298D01*
X14184029Y-17014298D02*
X14174506Y-17023822D01*
X14174506Y-17023822D02*
X14164982Y-17042870D01*
X14517363Y-17128584D02*
X14517363Y-16928584D01*
X14603077Y-17128584D02*
X14603077Y-17023822D01*
X14603077Y-17023822D02*
X14593553Y-17004774D01*
X14593553Y-17004774D02*
X14574506Y-16995250D01*
X14574506Y-16995250D02*
X14545934Y-16995250D01*
X14545934Y-16995250D02*
X14526887Y-17004774D01*
X14526887Y-17004774D02*
X14517363Y-17014298D01*
X14726887Y-17128584D02*
X14707839Y-17119060D01*
X14707839Y-17119060D02*
X14698315Y-17109536D01*
X14698315Y-17109536D02*
X14688791Y-17090489D01*
X14688791Y-17090489D02*
X14688791Y-17033346D01*
X14688791Y-17033346D02*
X14698315Y-17014298D01*
X14698315Y-17014298D02*
X14707839Y-17004774D01*
X14707839Y-17004774D02*
X14726887Y-16995250D01*
X14726887Y-16995250D02*
X14755458Y-16995250D01*
X14755458Y-16995250D02*
X14774506Y-17004774D01*
X14774506Y-17004774D02*
X14784030Y-17014298D01*
X14784030Y-17014298D02*
X14793553Y-17033346D01*
X14793553Y-17033346D02*
X14793553Y-17090489D01*
X14793553Y-17090489D02*
X14784030Y-17109536D01*
X14784030Y-17109536D02*
X14774506Y-17119060D01*
X14774506Y-17119060D02*
X14755458Y-17128584D01*
X14755458Y-17128584D02*
X14726887Y-17128584D01*
X14907839Y-17128584D02*
X14888791Y-17119060D01*
X14888791Y-17119060D02*
X14879268Y-17100012D01*
X14879268Y-17100012D02*
X14879268Y-16928584D01*
X15060220Y-17119060D02*
X15041172Y-17128584D01*
X15041172Y-17128584D02*
X15003077Y-17128584D01*
X15003077Y-17128584D02*
X14984030Y-17119060D01*
X14984030Y-17119060D02*
X14974506Y-17100012D01*
X14974506Y-17100012D02*
X14974506Y-17023822D01*
X14974506Y-17023822D02*
X14984030Y-17004774D01*
X14984030Y-17004774D02*
X15003077Y-16995250D01*
X15003077Y-16995250D02*
X15041172Y-16995250D01*
X15041172Y-16995250D02*
X15060220Y-17004774D01*
X15060220Y-17004774D02*
X15069744Y-17023822D01*
X15069744Y-17023822D02*
X15069744Y-17042870D01*
X15069744Y-17042870D02*
X14974506Y-17061917D01*
X15145934Y-17119060D02*
X15164982Y-17128584D01*
X15164982Y-17128584D02*
X15203077Y-17128584D01*
X15203077Y-17128584D02*
X15222125Y-17119060D01*
X15222125Y-17119060D02*
X15231649Y-17100012D01*
X15231649Y-17100012D02*
X15231649Y-17090489D01*
X15231649Y-17090489D02*
X15222125Y-17071441D01*
X15222125Y-17071441D02*
X15203077Y-17061917D01*
X15203077Y-17061917D02*
X15174506Y-17061917D01*
X15174506Y-17061917D02*
X15155458Y-17052393D01*
X15155458Y-17052393D02*
X15145934Y-17033346D01*
X15145934Y-17033346D02*
X15145934Y-17023822D01*
X15145934Y-17023822D02*
X15155458Y-17004774D01*
X15155458Y-17004774D02*
X15174506Y-16995250D01*
X15174506Y-16995250D02*
X15203077Y-16995250D01*
X15203077Y-16995250D02*
X15222125Y-17004774D01*
X15298315Y-17204774D02*
X15307839Y-17195250D01*
X15307839Y-17195250D02*
X15326887Y-17166679D01*
X15326887Y-17166679D02*
X15336411Y-17147631D01*
X15336411Y-17147631D02*
X15345934Y-17119060D01*
X15345934Y-17119060D02*
X15355458Y-17071441D01*
X15355458Y-17071441D02*
X15355458Y-17033346D01*
X15355458Y-17033346D02*
X15345934Y-16985727D01*
X15345934Y-16985727D02*
X15336411Y-16957155D01*
X15336411Y-16957155D02*
X15326887Y-16938108D01*
X15326887Y-16938108D02*
X15307839Y-16909536D01*
X15307839Y-16909536D02*
X15298315Y-16900012D01*
D10*
X10104800Y-17263600D02*
X10104800Y-17338600D01*
X10067300Y-17301100D02*
X10142300Y-17301100D01*
D11*
X10441172Y-17192584D02*
X10460220Y-17192584D01*
X10460220Y-17192584D02*
X10479267Y-17202108D01*
X10479267Y-17202108D02*
X10488791Y-17211631D01*
X10488791Y-17211631D02*
X10498315Y-17230679D01*
X10498315Y-17230679D02*
X10507839Y-17268774D01*
X10507839Y-17268774D02*
X10507839Y-17316393D01*
X10507839Y-17316393D02*
X10498315Y-17354489D01*
X10498315Y-17354489D02*
X10488791Y-17373536D01*
X10488791Y-17373536D02*
X10479267Y-17383060D01*
X10479267Y-17383060D02*
X10460220Y-17392584D01*
X10460220Y-17392584D02*
X10441172Y-17392584D01*
X10441172Y-17392584D02*
X10422124Y-17383060D01*
X10422124Y-17383060D02*
X10412601Y-17373536D01*
X10412601Y-17373536D02*
X10403077Y-17354489D01*
X10403077Y-17354489D02*
X10393553Y-17316393D01*
X10393553Y-17316393D02*
X10393553Y-17268774D01*
X10393553Y-17268774D02*
X10403077Y-17230679D01*
X10403077Y-17230679D02*
X10412601Y-17211631D01*
X10412601Y-17211631D02*
X10422124Y-17202108D01*
X10422124Y-17202108D02*
X10441172Y-17192584D01*
X10593553Y-17373536D02*
X10603077Y-17383060D01*
X10603077Y-17383060D02*
X10593553Y-17392584D01*
X10593553Y-17392584D02*
X10584029Y-17383060D01*
X10584029Y-17383060D02*
X10593553Y-17373536D01*
X10593553Y-17373536D02*
X10593553Y-17392584D01*
X10669744Y-17192584D02*
X10803077Y-17192584D01*
X10803077Y-17192584D02*
X10717363Y-17392584D01*
X10974505Y-17192584D02*
X10879267Y-17192584D01*
X10879267Y-17192584D02*
X10869744Y-17287822D01*
X10869744Y-17287822D02*
X10879267Y-17278298D01*
X10879267Y-17278298D02*
X10898315Y-17268774D01*
X10898315Y-17268774D02*
X10945934Y-17268774D01*
X10945934Y-17268774D02*
X10964982Y-17278298D01*
X10964982Y-17278298D02*
X10974505Y-17287822D01*
X10974505Y-17287822D02*
X10984029Y-17306870D01*
X10984029Y-17306870D02*
X10984029Y-17354489D01*
X10984029Y-17354489D02*
X10974505Y-17373536D01*
X10974505Y-17373536D02*
X10964982Y-17383060D01*
X10964982Y-17383060D02*
X10945934Y-17392584D01*
X10945934Y-17392584D02*
X10898315Y-17392584D01*
X10898315Y-17392584D02*
X10879267Y-17383060D01*
X10879267Y-17383060D02*
X10869744Y-17373536D01*
X11107839Y-17192584D02*
X11126886Y-17192584D01*
X11126886Y-17192584D02*
X11145934Y-17202108D01*
X11145934Y-17202108D02*
X11155458Y-17211631D01*
X11155458Y-17211631D02*
X11164982Y-17230679D01*
X11164982Y-17230679D02*
X11174505Y-17268774D01*
X11174505Y-17268774D02*
X11174505Y-17316393D01*
X11174505Y-17316393D02*
X11164982Y-17354489D01*
X11164982Y-17354489D02*
X11155458Y-17373536D01*
X11155458Y-17373536D02*
X11145934Y-17383060D01*
X11145934Y-17383060D02*
X11126886Y-17392584D01*
X11126886Y-17392584D02*
X11107839Y-17392584D01*
X11107839Y-17392584D02*
X11088791Y-17383060D01*
X11088791Y-17383060D02*
X11079267Y-17373536D01*
X11079267Y-17373536D02*
X11069744Y-17354489D01*
X11069744Y-17354489D02*
X11060220Y-17316393D01*
X11060220Y-17316393D02*
X11060220Y-17268774D01*
X11060220Y-17268774D02*
X11069744Y-17230679D01*
X11069744Y-17230679D02*
X11079267Y-17211631D01*
X11079267Y-17211631D02*
X11088791Y-17202108D01*
X11088791Y-17202108D02*
X11107839Y-17192584D01*
X11260220Y-17392584D02*
X11260220Y-17259250D01*
X11260220Y-17278298D02*
X11269743Y-17268774D01*
X11269743Y-17268774D02*
X11288791Y-17259250D01*
X11288791Y-17259250D02*
X11317363Y-17259250D01*
X11317363Y-17259250D02*
X11336410Y-17268774D01*
X11336410Y-17268774D02*
X11345934Y-17287822D01*
X11345934Y-17287822D02*
X11345934Y-17392584D01*
X11345934Y-17287822D02*
X11355458Y-17268774D01*
X11355458Y-17268774D02*
X11374505Y-17259250D01*
X11374505Y-17259250D02*
X11403077Y-17259250D01*
X11403077Y-17259250D02*
X11422124Y-17268774D01*
X11422124Y-17268774D02*
X11431648Y-17287822D01*
X11431648Y-17287822D02*
X11431648Y-17392584D01*
X11526886Y-17392584D02*
X11526886Y-17259250D01*
X11526886Y-17278298D02*
X11536410Y-17268774D01*
X11536410Y-17268774D02*
X11555458Y-17259250D01*
X11555458Y-17259250D02*
X11584029Y-17259250D01*
X11584029Y-17259250D02*
X11603077Y-17268774D01*
X11603077Y-17268774D02*
X11612601Y-17287822D01*
X11612601Y-17287822D02*
X11612601Y-17392584D01*
X11612601Y-17287822D02*
X11622124Y-17268774D01*
X11622124Y-17268774D02*
X11641172Y-17259250D01*
X11641172Y-17259250D02*
X11669743Y-17259250D01*
X11669743Y-17259250D02*
X11688791Y-17268774D01*
X11688791Y-17268774D02*
X11698315Y-17287822D01*
X11698315Y-17287822D02*
X11698315Y-17392584D01*
X12088791Y-17183060D02*
X11917363Y-17440203D01*
X12345934Y-17192584D02*
X12364982Y-17192584D01*
X12364982Y-17192584D02*
X12384029Y-17202108D01*
X12384029Y-17202108D02*
X12393553Y-17211631D01*
X12393553Y-17211631D02*
X12403077Y-17230679D01*
X12403077Y-17230679D02*
X12412601Y-17268774D01*
X12412601Y-17268774D02*
X12412601Y-17316393D01*
X12412601Y-17316393D02*
X12403077Y-17354489D01*
X12403077Y-17354489D02*
X12393553Y-17373536D01*
X12393553Y-17373536D02*
X12384029Y-17383060D01*
X12384029Y-17383060D02*
X12364982Y-17392584D01*
X12364982Y-17392584D02*
X12345934Y-17392584D01*
X12345934Y-17392584D02*
X12326886Y-17383060D01*
X12326886Y-17383060D02*
X12317363Y-17373536D01*
X12317363Y-17373536D02*
X12307839Y-17354489D01*
X12307839Y-17354489D02*
X12298315Y-17316393D01*
X12298315Y-17316393D02*
X12298315Y-17268774D01*
X12298315Y-17268774D02*
X12307839Y-17230679D01*
X12307839Y-17230679D02*
X12317363Y-17211631D01*
X12317363Y-17211631D02*
X12326886Y-17202108D01*
X12326886Y-17202108D02*
X12345934Y-17192584D01*
X12498315Y-17373536D02*
X12507839Y-17383060D01*
X12507839Y-17383060D02*
X12498315Y-17392584D01*
X12498315Y-17392584D02*
X12488791Y-17383060D01*
X12488791Y-17383060D02*
X12498315Y-17373536D01*
X12498315Y-17373536D02*
X12498315Y-17392584D01*
X12631648Y-17192584D02*
X12650696Y-17192584D01*
X12650696Y-17192584D02*
X12669744Y-17202108D01*
X12669744Y-17202108D02*
X12679267Y-17211631D01*
X12679267Y-17211631D02*
X12688791Y-17230679D01*
X12688791Y-17230679D02*
X12698315Y-17268774D01*
X12698315Y-17268774D02*
X12698315Y-17316393D01*
X12698315Y-17316393D02*
X12688791Y-17354489D01*
X12688791Y-17354489D02*
X12679267Y-17373536D01*
X12679267Y-17373536D02*
X12669744Y-17383060D01*
X12669744Y-17383060D02*
X12650696Y-17392584D01*
X12650696Y-17392584D02*
X12631648Y-17392584D01*
X12631648Y-17392584D02*
X12612601Y-17383060D01*
X12612601Y-17383060D02*
X12603077Y-17373536D01*
X12603077Y-17373536D02*
X12593553Y-17354489D01*
X12593553Y-17354489D02*
X12584029Y-17316393D01*
X12584029Y-17316393D02*
X12584029Y-17268774D01*
X12584029Y-17268774D02*
X12593553Y-17230679D01*
X12593553Y-17230679D02*
X12603077Y-17211631D01*
X12603077Y-17211631D02*
X12612601Y-17202108D01*
X12612601Y-17202108D02*
X12631648Y-17192584D01*
X12774506Y-17211631D02*
X12784029Y-17202108D01*
X12784029Y-17202108D02*
X12803077Y-17192584D01*
X12803077Y-17192584D02*
X12850696Y-17192584D01*
X12850696Y-17192584D02*
X12869744Y-17202108D01*
X12869744Y-17202108D02*
X12879267Y-17211631D01*
X12879267Y-17211631D02*
X12888791Y-17230679D01*
X12888791Y-17230679D02*
X12888791Y-17249727D01*
X12888791Y-17249727D02*
X12879267Y-17278298D01*
X12879267Y-17278298D02*
X12764982Y-17392584D01*
X12764982Y-17392584D02*
X12888791Y-17392584D01*
X12984029Y-17392584D02*
X13022125Y-17392584D01*
X13022125Y-17392584D02*
X13041172Y-17383060D01*
X13041172Y-17383060D02*
X13050696Y-17373536D01*
X13050696Y-17373536D02*
X13069744Y-17344965D01*
X13069744Y-17344965D02*
X13079267Y-17306870D01*
X13079267Y-17306870D02*
X13079267Y-17230679D01*
X13079267Y-17230679D02*
X13069744Y-17211631D01*
X13069744Y-17211631D02*
X13060220Y-17202108D01*
X13060220Y-17202108D02*
X13041172Y-17192584D01*
X13041172Y-17192584D02*
X13003077Y-17192584D01*
X13003077Y-17192584D02*
X12984029Y-17202108D01*
X12984029Y-17202108D02*
X12974506Y-17211631D01*
X12974506Y-17211631D02*
X12964982Y-17230679D01*
X12964982Y-17230679D02*
X12964982Y-17278298D01*
X12964982Y-17278298D02*
X12974506Y-17297346D01*
X12974506Y-17297346D02*
X12984029Y-17306870D01*
X12984029Y-17306870D02*
X13003077Y-17316393D01*
X13003077Y-17316393D02*
X13041172Y-17316393D01*
X13041172Y-17316393D02*
X13060220Y-17306870D01*
X13060220Y-17306870D02*
X13069744Y-17297346D01*
X13069744Y-17297346D02*
X13079267Y-17278298D01*
X13260220Y-17192584D02*
X13164982Y-17192584D01*
X13164982Y-17192584D02*
X13155458Y-17287822D01*
X13155458Y-17287822D02*
X13164982Y-17278298D01*
X13164982Y-17278298D02*
X13184029Y-17268774D01*
X13184029Y-17268774D02*
X13231648Y-17268774D01*
X13231648Y-17268774D02*
X13250696Y-17278298D01*
X13250696Y-17278298D02*
X13260220Y-17287822D01*
X13260220Y-17287822D02*
X13269744Y-17306870D01*
X13269744Y-17306870D02*
X13269744Y-17354489D01*
X13269744Y-17354489D02*
X13260220Y-17373536D01*
X13260220Y-17373536D02*
X13250696Y-17383060D01*
X13250696Y-17383060D02*
X13231648Y-17392584D01*
X13231648Y-17392584D02*
X13184029Y-17392584D01*
X13184029Y-17392584D02*
X13164982Y-17383060D01*
X13164982Y-17383060D02*
X13155458Y-17373536D01*
X13345934Y-17192584D02*
X13345934Y-17230679D01*
X13422125Y-17192584D02*
X13422125Y-17230679D01*
X13717363Y-17468774D02*
X13707839Y-17459250D01*
X13707839Y-17459250D02*
X13688791Y-17430679D01*
X13688791Y-17430679D02*
X13679268Y-17411631D01*
X13679268Y-17411631D02*
X13669744Y-17383060D01*
X13669744Y-17383060D02*
X13660220Y-17335441D01*
X13660220Y-17335441D02*
X13660220Y-17297346D01*
X13660220Y-17297346D02*
X13669744Y-17249727D01*
X13669744Y-17249727D02*
X13679268Y-17221155D01*
X13679268Y-17221155D02*
X13688791Y-17202108D01*
X13688791Y-17202108D02*
X13707839Y-17173536D01*
X13707839Y-17173536D02*
X13717363Y-17164012D01*
X13898315Y-17392584D02*
X13784029Y-17392584D01*
X13841172Y-17392584D02*
X13841172Y-17192584D01*
X13841172Y-17192584D02*
X13822125Y-17221155D01*
X13822125Y-17221155D02*
X13803077Y-17240203D01*
X13803077Y-17240203D02*
X13784029Y-17249727D01*
X14012601Y-17278298D02*
X13993553Y-17268774D01*
X13993553Y-17268774D02*
X13984029Y-17259250D01*
X13984029Y-17259250D02*
X13974506Y-17240203D01*
X13974506Y-17240203D02*
X13974506Y-17230679D01*
X13974506Y-17230679D02*
X13984029Y-17211631D01*
X13984029Y-17211631D02*
X13993553Y-17202108D01*
X13993553Y-17202108D02*
X14012601Y-17192584D01*
X14012601Y-17192584D02*
X14050696Y-17192584D01*
X14050696Y-17192584D02*
X14069744Y-17202108D01*
X14069744Y-17202108D02*
X14079268Y-17211631D01*
X14079268Y-17211631D02*
X14088791Y-17230679D01*
X14088791Y-17230679D02*
X14088791Y-17240203D01*
X14088791Y-17240203D02*
X14079268Y-17259250D01*
X14079268Y-17259250D02*
X14069744Y-17268774D01*
X14069744Y-17268774D02*
X14050696Y-17278298D01*
X14050696Y-17278298D02*
X14012601Y-17278298D01*
X14012601Y-17278298D02*
X13993553Y-17287822D01*
X13993553Y-17287822D02*
X13984029Y-17297346D01*
X13984029Y-17297346D02*
X13974506Y-17316393D01*
X13974506Y-17316393D02*
X13974506Y-17354489D01*
X13974506Y-17354489D02*
X13984029Y-17373536D01*
X13984029Y-17373536D02*
X13993553Y-17383060D01*
X13993553Y-17383060D02*
X14012601Y-17392584D01*
X14012601Y-17392584D02*
X14050696Y-17392584D01*
X14050696Y-17392584D02*
X14069744Y-17383060D01*
X14069744Y-17383060D02*
X14079268Y-17373536D01*
X14079268Y-17373536D02*
X14088791Y-17354489D01*
X14088791Y-17354489D02*
X14088791Y-17316393D01*
X14088791Y-17316393D02*
X14079268Y-17297346D01*
X14079268Y-17297346D02*
X14069744Y-17287822D01*
X14069744Y-17287822D02*
X14050696Y-17278298D01*
X14326887Y-17392584D02*
X14326887Y-17192584D01*
X14412601Y-17392584D02*
X14412601Y-17287822D01*
X14412601Y-17287822D02*
X14403077Y-17268774D01*
X14403077Y-17268774D02*
X14384030Y-17259250D01*
X14384030Y-17259250D02*
X14355458Y-17259250D01*
X14355458Y-17259250D02*
X14336410Y-17268774D01*
X14336410Y-17268774D02*
X14326887Y-17278298D01*
X14536410Y-17392584D02*
X14517363Y-17383060D01*
X14517363Y-17383060D02*
X14507839Y-17373536D01*
X14507839Y-17373536D02*
X14498315Y-17354489D01*
X14498315Y-17354489D02*
X14498315Y-17297346D01*
X14498315Y-17297346D02*
X14507839Y-17278298D01*
X14507839Y-17278298D02*
X14517363Y-17268774D01*
X14517363Y-17268774D02*
X14536410Y-17259250D01*
X14536410Y-17259250D02*
X14564982Y-17259250D01*
X14564982Y-17259250D02*
X14584030Y-17268774D01*
X14584030Y-17268774D02*
X14593553Y-17278298D01*
X14593553Y-17278298D02*
X14603077Y-17297346D01*
X14603077Y-17297346D02*
X14603077Y-17354489D01*
X14603077Y-17354489D02*
X14593553Y-17373536D01*
X14593553Y-17373536D02*
X14584030Y-17383060D01*
X14584030Y-17383060D02*
X14564982Y-17392584D01*
X14564982Y-17392584D02*
X14536410Y-17392584D01*
X14717363Y-17392584D02*
X14698315Y-17383060D01*
X14698315Y-17383060D02*
X14688791Y-17364012D01*
X14688791Y-17364012D02*
X14688791Y-17192584D01*
X14869744Y-17383060D02*
X14850696Y-17392584D01*
X14850696Y-17392584D02*
X14812601Y-17392584D01*
X14812601Y-17392584D02*
X14793553Y-17383060D01*
X14793553Y-17383060D02*
X14784030Y-17364012D01*
X14784030Y-17364012D02*
X14784030Y-17287822D01*
X14784030Y-17287822D02*
X14793553Y-17268774D01*
X14793553Y-17268774D02*
X14812601Y-17259250D01*
X14812601Y-17259250D02*
X14850696Y-17259250D01*
X14850696Y-17259250D02*
X14869744Y-17268774D01*
X14869744Y-17268774D02*
X14879268Y-17287822D01*
X14879268Y-17287822D02*
X14879268Y-17306870D01*
X14879268Y-17306870D02*
X14784030Y-17325917D01*
X14955458Y-17383060D02*
X14974506Y-17392584D01*
X14974506Y-17392584D02*
X15012601Y-17392584D01*
X15012601Y-17392584D02*
X15031649Y-17383060D01*
X15031649Y-17383060D02*
X15041172Y-17364012D01*
X15041172Y-17364012D02*
X15041172Y-17354489D01*
X15041172Y-17354489D02*
X15031649Y-17335441D01*
X15031649Y-17335441D02*
X15012601Y-17325917D01*
X15012601Y-17325917D02*
X14984030Y-17325917D01*
X14984030Y-17325917D02*
X14964982Y-17316393D01*
X14964982Y-17316393D02*
X14955458Y-17297346D01*
X14955458Y-17297346D02*
X14955458Y-17287822D01*
X14955458Y-17287822D02*
X14964982Y-17268774D01*
X14964982Y-17268774D02*
X14984030Y-17259250D01*
X14984030Y-17259250D02*
X15012601Y-17259250D01*
X15012601Y-17259250D02*
X15031649Y-17268774D01*
X15107839Y-17468774D02*
X15117363Y-17459250D01*
X15117363Y-17459250D02*
X15136411Y-17430679D01*
X15136411Y-17430679D02*
X15145934Y-17411631D01*
X15145934Y-17411631D02*
X15155458Y-17383060D01*
X15155458Y-17383060D02*
X15164982Y-17335441D01*
X15164982Y-17335441D02*
X15164982Y-17297346D01*
X15164982Y-17297346D02*
X15155458Y-17249727D01*
X15155458Y-17249727D02*
X15145934Y-17221155D01*
X15145934Y-17221155D02*
X15136411Y-17202108D01*
X15136411Y-17202108D02*
X15117363Y-17173536D01*
X15117363Y-17173536D02*
X15107839Y-17164012D01*
D10*
X10127656Y-17600456D02*
X10127656Y-17529744D01*
X10056944Y-17529744D01*
X10056944Y-17600456D01*
X10127656Y-17600456D01*
D11*
X10507839Y-17656584D02*
X10393553Y-17656584D01*
X10450696Y-17656584D02*
X10450696Y-17456584D01*
X10450696Y-17456584D02*
X10431648Y-17485155D01*
X10431648Y-17485155D02*
X10412601Y-17504203D01*
X10412601Y-17504203D02*
X10393553Y-17513727D01*
X10593553Y-17637536D02*
X10603077Y-17647060D01*
X10603077Y-17647060D02*
X10593553Y-17656584D01*
X10593553Y-17656584D02*
X10584029Y-17647060D01*
X10584029Y-17647060D02*
X10593553Y-17637536D01*
X10593553Y-17637536D02*
X10593553Y-17656584D01*
X10726886Y-17456584D02*
X10745934Y-17456584D01*
X10745934Y-17456584D02*
X10764982Y-17466108D01*
X10764982Y-17466108D02*
X10774505Y-17475631D01*
X10774505Y-17475631D02*
X10784029Y-17494679D01*
X10784029Y-17494679D02*
X10793553Y-17532774D01*
X10793553Y-17532774D02*
X10793553Y-17580393D01*
X10793553Y-17580393D02*
X10784029Y-17618489D01*
X10784029Y-17618489D02*
X10774505Y-17637536D01*
X10774505Y-17637536D02*
X10764982Y-17647060D01*
X10764982Y-17647060D02*
X10745934Y-17656584D01*
X10745934Y-17656584D02*
X10726886Y-17656584D01*
X10726886Y-17656584D02*
X10707839Y-17647060D01*
X10707839Y-17647060D02*
X10698315Y-17637536D01*
X10698315Y-17637536D02*
X10688791Y-17618489D01*
X10688791Y-17618489D02*
X10679267Y-17580393D01*
X10679267Y-17580393D02*
X10679267Y-17532774D01*
X10679267Y-17532774D02*
X10688791Y-17494679D01*
X10688791Y-17494679D02*
X10698315Y-17475631D01*
X10698315Y-17475631D02*
X10707839Y-17466108D01*
X10707839Y-17466108D02*
X10726886Y-17456584D01*
X10917363Y-17456584D02*
X10936410Y-17456584D01*
X10936410Y-17456584D02*
X10955458Y-17466108D01*
X10955458Y-17466108D02*
X10964982Y-17475631D01*
X10964982Y-17475631D02*
X10974505Y-17494679D01*
X10974505Y-17494679D02*
X10984029Y-17532774D01*
X10984029Y-17532774D02*
X10984029Y-17580393D01*
X10984029Y-17580393D02*
X10974505Y-17618489D01*
X10974505Y-17618489D02*
X10964982Y-17637536D01*
X10964982Y-17637536D02*
X10955458Y-17647060D01*
X10955458Y-17647060D02*
X10936410Y-17656584D01*
X10936410Y-17656584D02*
X10917363Y-17656584D01*
X10917363Y-17656584D02*
X10898315Y-17647060D01*
X10898315Y-17647060D02*
X10888791Y-17637536D01*
X10888791Y-17637536D02*
X10879267Y-17618489D01*
X10879267Y-17618489D02*
X10869744Y-17580393D01*
X10869744Y-17580393D02*
X10869744Y-17532774D01*
X10869744Y-17532774D02*
X10879267Y-17494679D01*
X10879267Y-17494679D02*
X10888791Y-17475631D01*
X10888791Y-17475631D02*
X10898315Y-17466108D01*
X10898315Y-17466108D02*
X10917363Y-17456584D01*
X11107839Y-17456584D02*
X11126886Y-17456584D01*
X11126886Y-17456584D02*
X11145934Y-17466108D01*
X11145934Y-17466108D02*
X11155458Y-17475631D01*
X11155458Y-17475631D02*
X11164982Y-17494679D01*
X11164982Y-17494679D02*
X11174505Y-17532774D01*
X11174505Y-17532774D02*
X11174505Y-17580393D01*
X11174505Y-17580393D02*
X11164982Y-17618489D01*
X11164982Y-17618489D02*
X11155458Y-17637536D01*
X11155458Y-17637536D02*
X11145934Y-17647060D01*
X11145934Y-17647060D02*
X11126886Y-17656584D01*
X11126886Y-17656584D02*
X11107839Y-17656584D01*
X11107839Y-17656584D02*
X11088791Y-17647060D01*
X11088791Y-17647060D02*
X11079267Y-17637536D01*
X11079267Y-17637536D02*
X11069744Y-17618489D01*
X11069744Y-17618489D02*
X11060220Y-17580393D01*
X11060220Y-17580393D02*
X11060220Y-17532774D01*
X11060220Y-17532774D02*
X11069744Y-17494679D01*
X11069744Y-17494679D02*
X11079267Y-17475631D01*
X11079267Y-17475631D02*
X11088791Y-17466108D01*
X11088791Y-17466108D02*
X11107839Y-17456584D01*
X11260220Y-17656584D02*
X11260220Y-17523250D01*
X11260220Y-17542298D02*
X11269743Y-17532774D01*
X11269743Y-17532774D02*
X11288791Y-17523250D01*
X11288791Y-17523250D02*
X11317363Y-17523250D01*
X11317363Y-17523250D02*
X11336410Y-17532774D01*
X11336410Y-17532774D02*
X11345934Y-17551822D01*
X11345934Y-17551822D02*
X11345934Y-17656584D01*
X11345934Y-17551822D02*
X11355458Y-17532774D01*
X11355458Y-17532774D02*
X11374505Y-17523250D01*
X11374505Y-17523250D02*
X11403077Y-17523250D01*
X11403077Y-17523250D02*
X11422124Y-17532774D01*
X11422124Y-17532774D02*
X11431648Y-17551822D01*
X11431648Y-17551822D02*
X11431648Y-17656584D01*
X11526886Y-17656584D02*
X11526886Y-17523250D01*
X11526886Y-17542298D02*
X11536410Y-17532774D01*
X11536410Y-17532774D02*
X11555458Y-17523250D01*
X11555458Y-17523250D02*
X11584029Y-17523250D01*
X11584029Y-17523250D02*
X11603077Y-17532774D01*
X11603077Y-17532774D02*
X11612601Y-17551822D01*
X11612601Y-17551822D02*
X11612601Y-17656584D01*
X11612601Y-17551822D02*
X11622124Y-17532774D01*
X11622124Y-17532774D02*
X11641172Y-17523250D01*
X11641172Y-17523250D02*
X11669743Y-17523250D01*
X11669743Y-17523250D02*
X11688791Y-17532774D01*
X11688791Y-17532774D02*
X11698315Y-17551822D01*
X11698315Y-17551822D02*
X11698315Y-17656584D01*
X12088791Y-17447060D02*
X11917363Y-17704203D01*
X12345934Y-17456584D02*
X12364982Y-17456584D01*
X12364982Y-17456584D02*
X12384029Y-17466108D01*
X12384029Y-17466108D02*
X12393553Y-17475631D01*
X12393553Y-17475631D02*
X12403077Y-17494679D01*
X12403077Y-17494679D02*
X12412601Y-17532774D01*
X12412601Y-17532774D02*
X12412601Y-17580393D01*
X12412601Y-17580393D02*
X12403077Y-17618489D01*
X12403077Y-17618489D02*
X12393553Y-17637536D01*
X12393553Y-17637536D02*
X12384029Y-17647060D01*
X12384029Y-17647060D02*
X12364982Y-17656584D01*
X12364982Y-17656584D02*
X12345934Y-17656584D01*
X12345934Y-17656584D02*
X12326886Y-17647060D01*
X12326886Y-17647060D02*
X12317363Y-17637536D01*
X12317363Y-17637536D02*
X12307839Y-17618489D01*
X12307839Y-17618489D02*
X12298315Y-17580393D01*
X12298315Y-17580393D02*
X12298315Y-17532774D01*
X12298315Y-17532774D02*
X12307839Y-17494679D01*
X12307839Y-17494679D02*
X12317363Y-17475631D01*
X12317363Y-17475631D02*
X12326886Y-17466108D01*
X12326886Y-17466108D02*
X12345934Y-17456584D01*
X12498315Y-17637536D02*
X12507839Y-17647060D01*
X12507839Y-17647060D02*
X12498315Y-17656584D01*
X12498315Y-17656584D02*
X12488791Y-17647060D01*
X12488791Y-17647060D02*
X12498315Y-17637536D01*
X12498315Y-17637536D02*
X12498315Y-17656584D01*
X12631648Y-17456584D02*
X12650696Y-17456584D01*
X12650696Y-17456584D02*
X12669744Y-17466108D01*
X12669744Y-17466108D02*
X12679267Y-17475631D01*
X12679267Y-17475631D02*
X12688791Y-17494679D01*
X12688791Y-17494679D02*
X12698315Y-17532774D01*
X12698315Y-17532774D02*
X12698315Y-17580393D01*
X12698315Y-17580393D02*
X12688791Y-17618489D01*
X12688791Y-17618489D02*
X12679267Y-17637536D01*
X12679267Y-17637536D02*
X12669744Y-17647060D01*
X12669744Y-17647060D02*
X12650696Y-17656584D01*
X12650696Y-17656584D02*
X12631648Y-17656584D01*
X12631648Y-17656584D02*
X12612601Y-17647060D01*
X12612601Y-17647060D02*
X12603077Y-17637536D01*
X12603077Y-17637536D02*
X12593553Y-17618489D01*
X12593553Y-17618489D02*
X12584029Y-17580393D01*
X12584029Y-17580393D02*
X12584029Y-17532774D01*
X12584029Y-17532774D02*
X12593553Y-17494679D01*
X12593553Y-17494679D02*
X12603077Y-17475631D01*
X12603077Y-17475631D02*
X12612601Y-17466108D01*
X12612601Y-17466108D02*
X12631648Y-17456584D01*
X12764982Y-17456584D02*
X12888791Y-17456584D01*
X12888791Y-17456584D02*
X12822125Y-17532774D01*
X12822125Y-17532774D02*
X12850696Y-17532774D01*
X12850696Y-17532774D02*
X12869744Y-17542298D01*
X12869744Y-17542298D02*
X12879267Y-17551822D01*
X12879267Y-17551822D02*
X12888791Y-17570870D01*
X12888791Y-17570870D02*
X12888791Y-17618489D01*
X12888791Y-17618489D02*
X12879267Y-17637536D01*
X12879267Y-17637536D02*
X12869744Y-17647060D01*
X12869744Y-17647060D02*
X12850696Y-17656584D01*
X12850696Y-17656584D02*
X12793553Y-17656584D01*
X12793553Y-17656584D02*
X12774506Y-17647060D01*
X12774506Y-17647060D02*
X12764982Y-17637536D01*
X12984029Y-17656584D02*
X13022125Y-17656584D01*
X13022125Y-17656584D02*
X13041172Y-17647060D01*
X13041172Y-17647060D02*
X13050696Y-17637536D01*
X13050696Y-17637536D02*
X13069744Y-17608965D01*
X13069744Y-17608965D02*
X13079267Y-17570870D01*
X13079267Y-17570870D02*
X13079267Y-17494679D01*
X13079267Y-17494679D02*
X13069744Y-17475631D01*
X13069744Y-17475631D02*
X13060220Y-17466108D01*
X13060220Y-17466108D02*
X13041172Y-17456584D01*
X13041172Y-17456584D02*
X13003077Y-17456584D01*
X13003077Y-17456584D02*
X12984029Y-17466108D01*
X12984029Y-17466108D02*
X12974506Y-17475631D01*
X12974506Y-17475631D02*
X12964982Y-17494679D01*
X12964982Y-17494679D02*
X12964982Y-17542298D01*
X12964982Y-17542298D02*
X12974506Y-17561346D01*
X12974506Y-17561346D02*
X12984029Y-17570870D01*
X12984029Y-17570870D02*
X13003077Y-17580393D01*
X13003077Y-17580393D02*
X13041172Y-17580393D01*
X13041172Y-17580393D02*
X13060220Y-17570870D01*
X13060220Y-17570870D02*
X13069744Y-17561346D01*
X13069744Y-17561346D02*
X13079267Y-17542298D01*
X13250696Y-17523250D02*
X13250696Y-17656584D01*
X13203077Y-17447060D02*
X13155458Y-17589917D01*
X13155458Y-17589917D02*
X13279267Y-17589917D01*
X13345934Y-17456584D02*
X13345934Y-17494679D01*
X13422125Y-17456584D02*
X13422125Y-17494679D01*
X13717363Y-17732774D02*
X13707839Y-17723250D01*
X13707839Y-17723250D02*
X13688791Y-17694679D01*
X13688791Y-17694679D02*
X13679268Y-17675631D01*
X13679268Y-17675631D02*
X13669744Y-17647060D01*
X13669744Y-17647060D02*
X13660220Y-17599441D01*
X13660220Y-17599441D02*
X13660220Y-17561346D01*
X13660220Y-17561346D02*
X13669744Y-17513727D01*
X13669744Y-17513727D02*
X13679268Y-17485155D01*
X13679268Y-17485155D02*
X13688791Y-17466108D01*
X13688791Y-17466108D02*
X13707839Y-17437536D01*
X13707839Y-17437536D02*
X13717363Y-17428012D01*
X13879268Y-17523250D02*
X13879268Y-17656584D01*
X13831648Y-17447060D02*
X13784029Y-17589917D01*
X13784029Y-17589917D02*
X13907839Y-17589917D01*
X14136410Y-17656584D02*
X14136410Y-17456584D01*
X14222125Y-17656584D02*
X14222125Y-17551822D01*
X14222125Y-17551822D02*
X14212601Y-17532774D01*
X14212601Y-17532774D02*
X14193553Y-17523250D01*
X14193553Y-17523250D02*
X14164982Y-17523250D01*
X14164982Y-17523250D02*
X14145934Y-17532774D01*
X14145934Y-17532774D02*
X14136410Y-17542298D01*
X14345934Y-17656584D02*
X14326887Y-17647060D01*
X14326887Y-17647060D02*
X14317363Y-17637536D01*
X14317363Y-17637536D02*
X14307839Y-17618489D01*
X14307839Y-17618489D02*
X14307839Y-17561346D01*
X14307839Y-17561346D02*
X14317363Y-17542298D01*
X14317363Y-17542298D02*
X14326887Y-17532774D01*
X14326887Y-17532774D02*
X14345934Y-17523250D01*
X14345934Y-17523250D02*
X14374506Y-17523250D01*
X14374506Y-17523250D02*
X14393553Y-17532774D01*
X14393553Y-17532774D02*
X14403077Y-17542298D01*
X14403077Y-17542298D02*
X14412601Y-17561346D01*
X14412601Y-17561346D02*
X14412601Y-17618489D01*
X14412601Y-17618489D02*
X14403077Y-17637536D01*
X14403077Y-17637536D02*
X14393553Y-17647060D01*
X14393553Y-17647060D02*
X14374506Y-17656584D01*
X14374506Y-17656584D02*
X14345934Y-17656584D01*
X14526887Y-17656584D02*
X14507839Y-17647060D01*
X14507839Y-17647060D02*
X14498315Y-17628012D01*
X14498315Y-17628012D02*
X14498315Y-17456584D01*
X14679268Y-17647060D02*
X14660220Y-17656584D01*
X14660220Y-17656584D02*
X14622125Y-17656584D01*
X14622125Y-17656584D02*
X14603077Y-17647060D01*
X14603077Y-17647060D02*
X14593553Y-17628012D01*
X14593553Y-17628012D02*
X14593553Y-17551822D01*
X14593553Y-17551822D02*
X14603077Y-17532774D01*
X14603077Y-17532774D02*
X14622125Y-17523250D01*
X14622125Y-17523250D02*
X14660220Y-17523250D01*
X14660220Y-17523250D02*
X14679268Y-17532774D01*
X14679268Y-17532774D02*
X14688791Y-17551822D01*
X14688791Y-17551822D02*
X14688791Y-17570870D01*
X14688791Y-17570870D02*
X14593553Y-17589917D01*
X14764982Y-17647060D02*
X14784030Y-17656584D01*
X14784030Y-17656584D02*
X14822125Y-17656584D01*
X14822125Y-17656584D02*
X14841172Y-17647060D01*
X14841172Y-17647060D02*
X14850696Y-17628012D01*
X14850696Y-17628012D02*
X14850696Y-17618489D01*
X14850696Y-17618489D02*
X14841172Y-17599441D01*
X14841172Y-17599441D02*
X14822125Y-17589917D01*
X14822125Y-17589917D02*
X14793553Y-17589917D01*
X14793553Y-17589917D02*
X14774506Y-17580393D01*
X14774506Y-17580393D02*
X14764982Y-17561346D01*
X14764982Y-17561346D02*
X14764982Y-17551822D01*
X14764982Y-17551822D02*
X14774506Y-17532774D01*
X14774506Y-17532774D02*
X14793553Y-17523250D01*
X14793553Y-17523250D02*
X14822125Y-17523250D01*
X14822125Y-17523250D02*
X14841172Y-17532774D01*
X14917363Y-17732774D02*
X14926887Y-17723250D01*
X14926887Y-17723250D02*
X14945934Y-17694679D01*
X14945934Y-17694679D02*
X14955458Y-17675631D01*
X14955458Y-17675631D02*
X14964982Y-17647060D01*
X14964982Y-17647060D02*
X14974506Y-17599441D01*
X14974506Y-17599441D02*
X14974506Y-17561346D01*
X14974506Y-17561346D02*
X14964982Y-17513727D01*
X14964982Y-17513727D02*
X14955458Y-17485155D01*
X14955458Y-17485155D02*
X14945934Y-17466108D01*
X14945934Y-17466108D02*
X14926887Y-17437536D01*
X14926887Y-17437536D02*
X14917363Y-17428012D01*
D12*
X10077300Y-17894100D02*
X10142300Y-17829100D01*
X10077300Y-17764100D01*
X10012300Y-17829100D01*
X10077300Y-17894100D01*
D11*
X10507839Y-17920584D02*
X10393553Y-17920584D01*
X10450696Y-17920584D02*
X10450696Y-17720584D01*
X10450696Y-17720584D02*
X10431648Y-17749155D01*
X10431648Y-17749155D02*
X10412601Y-17768203D01*
X10412601Y-17768203D02*
X10393553Y-17777727D01*
X10593553Y-17901536D02*
X10603077Y-17911060D01*
X10603077Y-17911060D02*
X10593553Y-17920584D01*
X10593553Y-17920584D02*
X10584029Y-17911060D01*
X10584029Y-17911060D02*
X10593553Y-17901536D01*
X10593553Y-17901536D02*
X10593553Y-17920584D01*
X10669744Y-17720584D02*
X10793553Y-17720584D01*
X10793553Y-17720584D02*
X10726886Y-17796774D01*
X10726886Y-17796774D02*
X10755458Y-17796774D01*
X10755458Y-17796774D02*
X10774505Y-17806298D01*
X10774505Y-17806298D02*
X10784029Y-17815822D01*
X10784029Y-17815822D02*
X10793553Y-17834870D01*
X10793553Y-17834870D02*
X10793553Y-17882489D01*
X10793553Y-17882489D02*
X10784029Y-17901536D01*
X10784029Y-17901536D02*
X10774505Y-17911060D01*
X10774505Y-17911060D02*
X10755458Y-17920584D01*
X10755458Y-17920584D02*
X10698315Y-17920584D01*
X10698315Y-17920584D02*
X10679267Y-17911060D01*
X10679267Y-17911060D02*
X10669744Y-17901536D01*
X10917363Y-17720584D02*
X10936410Y-17720584D01*
X10936410Y-17720584D02*
X10955458Y-17730108D01*
X10955458Y-17730108D02*
X10964982Y-17739631D01*
X10964982Y-17739631D02*
X10974505Y-17758679D01*
X10974505Y-17758679D02*
X10984029Y-17796774D01*
X10984029Y-17796774D02*
X10984029Y-17844393D01*
X10984029Y-17844393D02*
X10974505Y-17882489D01*
X10974505Y-17882489D02*
X10964982Y-17901536D01*
X10964982Y-17901536D02*
X10955458Y-17911060D01*
X10955458Y-17911060D02*
X10936410Y-17920584D01*
X10936410Y-17920584D02*
X10917363Y-17920584D01*
X10917363Y-17920584D02*
X10898315Y-17911060D01*
X10898315Y-17911060D02*
X10888791Y-17901536D01*
X10888791Y-17901536D02*
X10879267Y-17882489D01*
X10879267Y-17882489D02*
X10869744Y-17844393D01*
X10869744Y-17844393D02*
X10869744Y-17796774D01*
X10869744Y-17796774D02*
X10879267Y-17758679D01*
X10879267Y-17758679D02*
X10888791Y-17739631D01*
X10888791Y-17739631D02*
X10898315Y-17730108D01*
X10898315Y-17730108D02*
X10917363Y-17720584D01*
X11107839Y-17720584D02*
X11126886Y-17720584D01*
X11126886Y-17720584D02*
X11145934Y-17730108D01*
X11145934Y-17730108D02*
X11155458Y-17739631D01*
X11155458Y-17739631D02*
X11164982Y-17758679D01*
X11164982Y-17758679D02*
X11174505Y-17796774D01*
X11174505Y-17796774D02*
X11174505Y-17844393D01*
X11174505Y-17844393D02*
X11164982Y-17882489D01*
X11164982Y-17882489D02*
X11155458Y-17901536D01*
X11155458Y-17901536D02*
X11145934Y-17911060D01*
X11145934Y-17911060D02*
X11126886Y-17920584D01*
X11126886Y-17920584D02*
X11107839Y-17920584D01*
X11107839Y-17920584D02*
X11088791Y-17911060D01*
X11088791Y-17911060D02*
X11079267Y-17901536D01*
X11079267Y-17901536D02*
X11069744Y-17882489D01*
X11069744Y-17882489D02*
X11060220Y-17844393D01*
X11060220Y-17844393D02*
X11060220Y-17796774D01*
X11060220Y-17796774D02*
X11069744Y-17758679D01*
X11069744Y-17758679D02*
X11079267Y-17739631D01*
X11079267Y-17739631D02*
X11088791Y-17730108D01*
X11088791Y-17730108D02*
X11107839Y-17720584D01*
X11260220Y-17920584D02*
X11260220Y-17787250D01*
X11260220Y-17806298D02*
X11269743Y-17796774D01*
X11269743Y-17796774D02*
X11288791Y-17787250D01*
X11288791Y-17787250D02*
X11317363Y-17787250D01*
X11317363Y-17787250D02*
X11336410Y-17796774D01*
X11336410Y-17796774D02*
X11345934Y-17815822D01*
X11345934Y-17815822D02*
X11345934Y-17920584D01*
X11345934Y-17815822D02*
X11355458Y-17796774D01*
X11355458Y-17796774D02*
X11374505Y-17787250D01*
X11374505Y-17787250D02*
X11403077Y-17787250D01*
X11403077Y-17787250D02*
X11422124Y-17796774D01*
X11422124Y-17796774D02*
X11431648Y-17815822D01*
X11431648Y-17815822D02*
X11431648Y-17920584D01*
X11526886Y-17920584D02*
X11526886Y-17787250D01*
X11526886Y-17806298D02*
X11536410Y-17796774D01*
X11536410Y-17796774D02*
X11555458Y-17787250D01*
X11555458Y-17787250D02*
X11584029Y-17787250D01*
X11584029Y-17787250D02*
X11603077Y-17796774D01*
X11603077Y-17796774D02*
X11612601Y-17815822D01*
X11612601Y-17815822D02*
X11612601Y-17920584D01*
X11612601Y-17815822D02*
X11622124Y-17796774D01*
X11622124Y-17796774D02*
X11641172Y-17787250D01*
X11641172Y-17787250D02*
X11669743Y-17787250D01*
X11669743Y-17787250D02*
X11688791Y-17796774D01*
X11688791Y-17796774D02*
X11698315Y-17815822D01*
X11698315Y-17815822D02*
X11698315Y-17920584D01*
X12088791Y-17711060D02*
X11917363Y-17968203D01*
X12345934Y-17720584D02*
X12364982Y-17720584D01*
X12364982Y-17720584D02*
X12384029Y-17730108D01*
X12384029Y-17730108D02*
X12393553Y-17739631D01*
X12393553Y-17739631D02*
X12403077Y-17758679D01*
X12403077Y-17758679D02*
X12412601Y-17796774D01*
X12412601Y-17796774D02*
X12412601Y-17844393D01*
X12412601Y-17844393D02*
X12403077Y-17882489D01*
X12403077Y-17882489D02*
X12393553Y-17901536D01*
X12393553Y-17901536D02*
X12384029Y-17911060D01*
X12384029Y-17911060D02*
X12364982Y-17920584D01*
X12364982Y-17920584D02*
X12345934Y-17920584D01*
X12345934Y-17920584D02*
X12326886Y-17911060D01*
X12326886Y-17911060D02*
X12317363Y-17901536D01*
X12317363Y-17901536D02*
X12307839Y-17882489D01*
X12307839Y-17882489D02*
X12298315Y-17844393D01*
X12298315Y-17844393D02*
X12298315Y-17796774D01*
X12298315Y-17796774D02*
X12307839Y-17758679D01*
X12307839Y-17758679D02*
X12317363Y-17739631D01*
X12317363Y-17739631D02*
X12326886Y-17730108D01*
X12326886Y-17730108D02*
X12345934Y-17720584D01*
X12498315Y-17901536D02*
X12507839Y-17911060D01*
X12507839Y-17911060D02*
X12498315Y-17920584D01*
X12498315Y-17920584D02*
X12488791Y-17911060D01*
X12488791Y-17911060D02*
X12498315Y-17901536D01*
X12498315Y-17901536D02*
X12498315Y-17920584D01*
X12631648Y-17720584D02*
X12650696Y-17720584D01*
X12650696Y-17720584D02*
X12669744Y-17730108D01*
X12669744Y-17730108D02*
X12679267Y-17739631D01*
X12679267Y-17739631D02*
X12688791Y-17758679D01*
X12688791Y-17758679D02*
X12698315Y-17796774D01*
X12698315Y-17796774D02*
X12698315Y-17844393D01*
X12698315Y-17844393D02*
X12688791Y-17882489D01*
X12688791Y-17882489D02*
X12679267Y-17901536D01*
X12679267Y-17901536D02*
X12669744Y-17911060D01*
X12669744Y-17911060D02*
X12650696Y-17920584D01*
X12650696Y-17920584D02*
X12631648Y-17920584D01*
X12631648Y-17920584D02*
X12612601Y-17911060D01*
X12612601Y-17911060D02*
X12603077Y-17901536D01*
X12603077Y-17901536D02*
X12593553Y-17882489D01*
X12593553Y-17882489D02*
X12584029Y-17844393D01*
X12584029Y-17844393D02*
X12584029Y-17796774D01*
X12584029Y-17796774D02*
X12593553Y-17758679D01*
X12593553Y-17758679D02*
X12603077Y-17739631D01*
X12603077Y-17739631D02*
X12612601Y-17730108D01*
X12612601Y-17730108D02*
X12631648Y-17720584D01*
X12879267Y-17720584D02*
X12784029Y-17720584D01*
X12784029Y-17720584D02*
X12774506Y-17815822D01*
X12774506Y-17815822D02*
X12784029Y-17806298D01*
X12784029Y-17806298D02*
X12803077Y-17796774D01*
X12803077Y-17796774D02*
X12850696Y-17796774D01*
X12850696Y-17796774D02*
X12869744Y-17806298D01*
X12869744Y-17806298D02*
X12879267Y-17815822D01*
X12879267Y-17815822D02*
X12888791Y-17834870D01*
X12888791Y-17834870D02*
X12888791Y-17882489D01*
X12888791Y-17882489D02*
X12879267Y-17901536D01*
X12879267Y-17901536D02*
X12869744Y-17911060D01*
X12869744Y-17911060D02*
X12850696Y-17920584D01*
X12850696Y-17920584D02*
X12803077Y-17920584D01*
X12803077Y-17920584D02*
X12784029Y-17911060D01*
X12784029Y-17911060D02*
X12774506Y-17901536D01*
X13079267Y-17920584D02*
X12964982Y-17920584D01*
X13022125Y-17920584D02*
X13022125Y-17720584D01*
X13022125Y-17720584D02*
X13003077Y-17749155D01*
X13003077Y-17749155D02*
X12984029Y-17768203D01*
X12984029Y-17768203D02*
X12964982Y-17777727D01*
X13155458Y-17739631D02*
X13164982Y-17730108D01*
X13164982Y-17730108D02*
X13184029Y-17720584D01*
X13184029Y-17720584D02*
X13231648Y-17720584D01*
X13231648Y-17720584D02*
X13250696Y-17730108D01*
X13250696Y-17730108D02*
X13260220Y-17739631D01*
X13260220Y-17739631D02*
X13269744Y-17758679D01*
X13269744Y-17758679D02*
X13269744Y-17777727D01*
X13269744Y-17777727D02*
X13260220Y-17806298D01*
X13260220Y-17806298D02*
X13145934Y-17920584D01*
X13145934Y-17920584D02*
X13269744Y-17920584D01*
X13345934Y-17720584D02*
X13345934Y-17758679D01*
X13422125Y-17720584D02*
X13422125Y-17758679D01*
X13717363Y-17996774D02*
X13707839Y-17987250D01*
X13707839Y-17987250D02*
X13688791Y-17958679D01*
X13688791Y-17958679D02*
X13679268Y-17939631D01*
X13679268Y-17939631D02*
X13669744Y-17911060D01*
X13669744Y-17911060D02*
X13660220Y-17863441D01*
X13660220Y-17863441D02*
X13660220Y-17825346D01*
X13660220Y-17825346D02*
X13669744Y-17777727D01*
X13669744Y-17777727D02*
X13679268Y-17749155D01*
X13679268Y-17749155D02*
X13688791Y-17730108D01*
X13688791Y-17730108D02*
X13707839Y-17701536D01*
X13707839Y-17701536D02*
X13717363Y-17692012D01*
X13774506Y-17720584D02*
X13898315Y-17720584D01*
X13898315Y-17720584D02*
X13831648Y-17796774D01*
X13831648Y-17796774D02*
X13860220Y-17796774D01*
X13860220Y-17796774D02*
X13879268Y-17806298D01*
X13879268Y-17806298D02*
X13888791Y-17815822D01*
X13888791Y-17815822D02*
X13898315Y-17834870D01*
X13898315Y-17834870D02*
X13898315Y-17882489D01*
X13898315Y-17882489D02*
X13888791Y-17901536D01*
X13888791Y-17901536D02*
X13879268Y-17911060D01*
X13879268Y-17911060D02*
X13860220Y-17920584D01*
X13860220Y-17920584D02*
X13803077Y-17920584D01*
X13803077Y-17920584D02*
X13784029Y-17911060D01*
X13784029Y-17911060D02*
X13774506Y-17901536D01*
X14136410Y-17920584D02*
X14136410Y-17720584D01*
X14222125Y-17920584D02*
X14222125Y-17815822D01*
X14222125Y-17815822D02*
X14212601Y-17796774D01*
X14212601Y-17796774D02*
X14193553Y-17787250D01*
X14193553Y-17787250D02*
X14164982Y-17787250D01*
X14164982Y-17787250D02*
X14145934Y-17796774D01*
X14145934Y-17796774D02*
X14136410Y-17806298D01*
X14345934Y-17920584D02*
X14326887Y-17911060D01*
X14326887Y-17911060D02*
X14317363Y-17901536D01*
X14317363Y-17901536D02*
X14307839Y-17882489D01*
X14307839Y-17882489D02*
X14307839Y-17825346D01*
X14307839Y-17825346D02*
X14317363Y-17806298D01*
X14317363Y-17806298D02*
X14326887Y-17796774D01*
X14326887Y-17796774D02*
X14345934Y-17787250D01*
X14345934Y-17787250D02*
X14374506Y-17787250D01*
X14374506Y-17787250D02*
X14393553Y-17796774D01*
X14393553Y-17796774D02*
X14403077Y-17806298D01*
X14403077Y-17806298D02*
X14412601Y-17825346D01*
X14412601Y-17825346D02*
X14412601Y-17882489D01*
X14412601Y-17882489D02*
X14403077Y-17901536D01*
X14403077Y-17901536D02*
X14393553Y-17911060D01*
X14393553Y-17911060D02*
X14374506Y-17920584D01*
X14374506Y-17920584D02*
X14345934Y-17920584D01*
X14526887Y-17920584D02*
X14507839Y-17911060D01*
X14507839Y-17911060D02*
X14498315Y-17892012D01*
X14498315Y-17892012D02*
X14498315Y-17720584D01*
X14679268Y-17911060D02*
X14660220Y-17920584D01*
X14660220Y-17920584D02*
X14622125Y-17920584D01*
X14622125Y-17920584D02*
X14603077Y-17911060D01*
X14603077Y-17911060D02*
X14593553Y-17892012D01*
X14593553Y-17892012D02*
X14593553Y-17815822D01*
X14593553Y-17815822D02*
X14603077Y-17796774D01*
X14603077Y-17796774D02*
X14622125Y-17787250D01*
X14622125Y-17787250D02*
X14660220Y-17787250D01*
X14660220Y-17787250D02*
X14679268Y-17796774D01*
X14679268Y-17796774D02*
X14688791Y-17815822D01*
X14688791Y-17815822D02*
X14688791Y-17834870D01*
X14688791Y-17834870D02*
X14593553Y-17853917D01*
X14764982Y-17911060D02*
X14784030Y-17920584D01*
X14784030Y-17920584D02*
X14822125Y-17920584D01*
X14822125Y-17920584D02*
X14841172Y-17911060D01*
X14841172Y-17911060D02*
X14850696Y-17892012D01*
X14850696Y-17892012D02*
X14850696Y-17882489D01*
X14850696Y-17882489D02*
X14841172Y-17863441D01*
X14841172Y-17863441D02*
X14822125Y-17853917D01*
X14822125Y-17853917D02*
X14793553Y-17853917D01*
X14793553Y-17853917D02*
X14774506Y-17844393D01*
X14774506Y-17844393D02*
X14764982Y-17825346D01*
X14764982Y-17825346D02*
X14764982Y-17815822D01*
X14764982Y-17815822D02*
X14774506Y-17796774D01*
X14774506Y-17796774D02*
X14793553Y-17787250D01*
X14793553Y-17787250D02*
X14822125Y-17787250D01*
X14822125Y-17787250D02*
X14841172Y-17796774D01*
X14917363Y-17996774D02*
X14926887Y-17987250D01*
X14926887Y-17987250D02*
X14945934Y-17958679D01*
X14945934Y-17958679D02*
X14955458Y-17939631D01*
X14955458Y-17939631D02*
X14964982Y-17911060D01*
X14964982Y-17911060D02*
X14974506Y-17863441D01*
X14974506Y-17863441D02*
X14974506Y-17825346D01*
X14974506Y-17825346D02*
X14964982Y-17777727D01*
X14964982Y-17777727D02*
X14955458Y-17749155D01*
X14955458Y-17749155D02*
X14945934Y-17730108D01*
X14945934Y-17730108D02*
X14926887Y-17701536D01*
X14926887Y-17701536D02*
X14917363Y-17692012D01*
M02*
