%TF.GenerationSoftware,KiCad,Pcbnew,7.0.9*%
%TF.CreationDate,2024-02-13T17:02:04-03:00*%
%TF.ProjectId,pedido_casamento_smd,70656469-646f-45f6-9361-73616d656e74,rev?*%
%TF.SameCoordinates,Original*%
%TF.FileFunction,Soldermask,Bot*%
%TF.FilePolarity,Negative*%
%FSLAX46Y46*%
G04 Gerber Fmt 4.6, Leading zero omitted, Abs format (unit mm)*
G04 Created by KiCad (PCBNEW 7.0.9) date 2024-02-13 17:02:04*
%MOMM*%
%LPD*%
G01*
G04 APERTURE LIST*
G04 Aperture macros list*
%AMRoundRect*
0 Rectangle with rounded corners*
0 $1 Rounding radius*
0 $2 $3 $4 $5 $6 $7 $8 $9 X,Y pos of 4 corners*
0 Add a 4 corners polygon primitive as box body*
4,1,4,$2,$3,$4,$5,$6,$7,$8,$9,$2,$3,0*
0 Add four circle primitives for the rounded corners*
1,1,$1+$1,$2,$3*
1,1,$1+$1,$4,$5*
1,1,$1+$1,$6,$7*
1,1,$1+$1,$8,$9*
0 Add four rect primitives between the rounded corners*
20,1,$1+$1,$2,$3,$4,$5,0*
20,1,$1+$1,$4,$5,$6,$7,0*
20,1,$1+$1,$6,$7,$8,$9,0*
20,1,$1+$1,$8,$9,$2,$3,0*%
G04 Aperture macros list end*
%ADD10C,3.200000*%
%ADD11R,1.050000X1.500000*%
%ADD12O,1.050000X1.500000*%
%ADD13R,1.700000X1.700000*%
%ADD14O,1.700000X1.700000*%
%ADD15C,2.340000*%
%ADD16R,1.500000X1.050000*%
%ADD17O,1.500000X1.050000*%
%ADD18RoundRect,0.150000X0.825000X0.150000X-0.825000X0.150000X-0.825000X-0.150000X0.825000X-0.150000X0*%
%ADD19RoundRect,0.100000X0.100000X-0.637500X0.100000X0.637500X-0.100000X0.637500X-0.100000X-0.637500X0*%
%ADD20RoundRect,0.150000X-0.825000X-0.150000X0.825000X-0.150000X0.825000X0.150000X-0.825000X0.150000X0*%
%ADD21RoundRect,0.250000X0.450000X-0.350000X0.450000X0.350000X-0.450000X0.350000X-0.450000X-0.350000X0*%
%ADD22RoundRect,0.250000X0.325000X0.450000X-0.325000X0.450000X-0.325000X-0.450000X0.325000X-0.450000X0*%
%ADD23RoundRect,0.250000X-0.325000X-0.450000X0.325000X-0.450000X0.325000X0.450000X-0.325000X0.450000X0*%
%ADD24RoundRect,0.100000X-0.637500X-0.100000X0.637500X-0.100000X0.637500X0.100000X-0.637500X0.100000X0*%
%ADD25RoundRect,0.250000X-0.450000X0.325000X-0.450000X-0.325000X0.450000X-0.325000X0.450000X0.325000X0*%
%ADD26RoundRect,0.250000X0.550000X-1.412500X0.550000X1.412500X-0.550000X1.412500X-0.550000X-1.412500X0*%
%ADD27RoundRect,0.100000X-0.100000X0.637500X-0.100000X-0.637500X0.100000X-0.637500X0.100000X0.637500X0*%
%ADD28RoundRect,0.250000X-0.450000X0.350000X-0.450000X-0.350000X0.450000X-0.350000X0.450000X0.350000X0*%
%ADD29RoundRect,0.250000X0.450000X-0.325000X0.450000X0.325000X-0.450000X0.325000X-0.450000X-0.325000X0*%
%ADD30RoundRect,0.250000X0.350000X0.450000X-0.350000X0.450000X-0.350000X-0.450000X0.350000X-0.450000X0*%
%ADD31RoundRect,0.100000X0.637500X0.100000X-0.637500X0.100000X-0.637500X-0.100000X0.637500X-0.100000X0*%
%ADD32RoundRect,0.250000X0.250000X0.475000X-0.250000X0.475000X-0.250000X-0.475000X0.250000X-0.475000X0*%
%ADD33RoundRect,0.250000X-0.550000X1.412500X-0.550000X-1.412500X0.550000X-1.412500X0.550000X1.412500X0*%
%ADD34RoundRect,0.250000X1.412500X0.550000X-1.412500X0.550000X-1.412500X-0.550000X1.412500X-0.550000X0*%
%ADD35RoundRect,0.100000X0.100000X-0.217500X0.100000X0.217500X-0.100000X0.217500X-0.100000X-0.217500X0*%
G04 APERTURE END LIST*
D10*
%TO.C,REF\u002A\u002A*%
X226700000Y-99950000D03*
%TD*%
%TO.C,REF\u002A\u002A*%
X227050000Y-125300000D03*
%TD*%
%TO.C,REF\u002A\u002A*%
X104900000Y-99700000D03*
%TD*%
D11*
%TO.C,Q1*%
X130780000Y-101310000D03*
D12*
X132050000Y-101310000D03*
X133320000Y-101310000D03*
%TD*%
D13*
%TO.C,J2*%
X105105200Y-131470400D03*
D14*
X105105200Y-128930400D03*
%TD*%
D13*
%TO.C,J1*%
X105029000Y-120726200D03*
D14*
X105029000Y-123266200D03*
%TD*%
D15*
%TO.C,RV1*%
X119663200Y-130618000D03*
X129663200Y-128118000D03*
X119663200Y-125618000D03*
%TD*%
D11*
%TO.C,Q6*%
X224100000Y-156550000D03*
D12*
X225370000Y-156550000D03*
X226640000Y-156550000D03*
%TD*%
D10*
%TO.C,REF\u002A\u002A*%
X105650000Y-157000000D03*
%TD*%
D11*
%TO.C,Q4*%
X186500000Y-157050000D03*
D12*
X187770000Y-157050000D03*
X189040000Y-157050000D03*
%TD*%
D16*
%TO.C,Q5*%
X206050000Y-143810000D03*
D17*
X206050000Y-145080000D03*
X206050000Y-146350000D03*
%TD*%
D18*
%TO.C,U8*%
X141082800Y-136377499D03*
X141082800Y-137647499D03*
X141082800Y-138917499D03*
X141082800Y-140187499D03*
X141082800Y-141457499D03*
X141082800Y-142727499D03*
X141082800Y-143997499D03*
X136132800Y-143997499D03*
X136132800Y-142727499D03*
X136132800Y-141457499D03*
X136132800Y-140187499D03*
X136132800Y-138917499D03*
X136132800Y-137647499D03*
X136132800Y-136377499D03*
%TD*%
D19*
%TO.C,U5*%
X197250000Y-133925000D03*
X196600000Y-133925000D03*
X195950000Y-133925000D03*
X195300000Y-133925000D03*
X194650000Y-133925000D03*
X194000000Y-133925000D03*
X193350000Y-133925000D03*
X192700000Y-133925000D03*
X192700000Y-128200000D03*
X193350000Y-128200000D03*
X194000000Y-128200000D03*
X194650000Y-128200000D03*
X195300000Y-128200000D03*
X195950000Y-128200000D03*
X196600000Y-128200000D03*
X197250000Y-128200000D03*
%TD*%
D18*
%TO.C,U6*%
X162571200Y-116789200D03*
X162571200Y-118059200D03*
X162571200Y-119329200D03*
X162571200Y-120599200D03*
X162571200Y-121869200D03*
X162571200Y-123139200D03*
X162571200Y-124409200D03*
X157621200Y-124409200D03*
X157621200Y-123139200D03*
X157621200Y-121869200D03*
X157621200Y-120599200D03*
X157621200Y-119329200D03*
X157621200Y-118059200D03*
X157621200Y-116789200D03*
%TD*%
D20*
%TO.C,U9*%
X168949600Y-143997499D03*
X168949600Y-142727499D03*
X168949600Y-141457499D03*
X168949600Y-140187499D03*
X168949600Y-138917499D03*
X168949600Y-137647499D03*
X168949600Y-136377499D03*
X173899600Y-136377499D03*
X173899600Y-137647499D03*
X173899600Y-138917499D03*
X173899600Y-140187499D03*
X173899600Y-141457499D03*
X173899600Y-142727499D03*
X173899600Y-143997499D03*
%TD*%
D21*
%TO.C,R1*%
X128000000Y-142000000D03*
X128000000Y-140000000D03*
%TD*%
D22*
%TO.C,D13*%
X216300000Y-110650000D03*
X214250000Y-110650000D03*
%TD*%
D21*
%TO.C,R4*%
X169800000Y-111300000D03*
X169800000Y-109300000D03*
%TD*%
D20*
%TO.C,U11*%
X146496000Y-124409200D03*
X146496000Y-123139200D03*
X146496000Y-121869200D03*
X146496000Y-120599200D03*
X146496000Y-119329200D03*
X146496000Y-118059200D03*
X146496000Y-116789200D03*
X151446000Y-116789200D03*
X151446000Y-118059200D03*
X151446000Y-119329200D03*
X151446000Y-120599200D03*
X151446000Y-121869200D03*
X151446000Y-123139200D03*
X151446000Y-124409200D03*
%TD*%
D16*
%TO.C,Q2*%
X169850000Y-104350000D03*
D17*
X169850000Y-105620000D03*
X169850000Y-106890000D03*
%TD*%
D18*
%TO.C,U7*%
X140524000Y-116789200D03*
X140524000Y-118059200D03*
X140524000Y-119329200D03*
X140524000Y-120599200D03*
X140524000Y-121869200D03*
X140524000Y-123139200D03*
X140524000Y-124409200D03*
X135574000Y-124409200D03*
X135574000Y-123139200D03*
X135574000Y-121869200D03*
X135574000Y-120599200D03*
X135574000Y-119329200D03*
X135574000Y-118059200D03*
X135574000Y-116789200D03*
%TD*%
D23*
%TO.C,D18*%
X199275000Y-115050000D03*
X201325000Y-115050000D03*
%TD*%
D24*
%TO.C,U4*%
X182662500Y-133131250D03*
X182662500Y-132481250D03*
X182662500Y-131831250D03*
X182662500Y-131181250D03*
X182662500Y-130531250D03*
X182662500Y-129881250D03*
X182662500Y-129231250D03*
X182662500Y-128581250D03*
X188387500Y-128581250D03*
X188387500Y-129231250D03*
X188387500Y-129881250D03*
X188387500Y-130531250D03*
X188387500Y-131181250D03*
X188387500Y-131831250D03*
X188387500Y-132481250D03*
X188387500Y-133131250D03*
%TD*%
D25*
%TO.C,D35*%
X145000000Y-110225000D03*
X145000000Y-112275000D03*
%TD*%
%TO.C,D42*%
X153250000Y-110200000D03*
X153250000Y-112250000D03*
%TD*%
D22*
%TO.C,D27*%
X216300000Y-108450000D03*
X214250000Y-108450000D03*
%TD*%
D20*
%TO.C,U13*%
X158129200Y-143997499D03*
X158129200Y-142727499D03*
X158129200Y-141457499D03*
X158129200Y-140187499D03*
X158129200Y-138917499D03*
X158129200Y-137647499D03*
X158129200Y-136377499D03*
X163079200Y-136377499D03*
X163079200Y-137647499D03*
X163079200Y-138917499D03*
X163079200Y-140187499D03*
X163079200Y-141457499D03*
X163079200Y-142727499D03*
X163079200Y-143997499D03*
%TD*%
D25*
%TO.C,D40*%
X150000000Y-110225000D03*
X150000000Y-112275000D03*
%TD*%
D26*
%TO.C,C3*%
X208750000Y-109787500D03*
X208750000Y-104712500D03*
%TD*%
D23*
%TO.C,D30*%
X199225000Y-117150000D03*
X201275000Y-117150000D03*
%TD*%
D18*
%TO.C,U12*%
X151990600Y-136377499D03*
X151990600Y-137647499D03*
X151990600Y-138917499D03*
X151990600Y-140187499D03*
X151990600Y-141457499D03*
X151990600Y-142727499D03*
X151990600Y-143997499D03*
X147040600Y-143997499D03*
X147040600Y-142727499D03*
X147040600Y-141457499D03*
X147040600Y-140187499D03*
X147040600Y-138917499D03*
X147040600Y-137647499D03*
X147040600Y-136377499D03*
%TD*%
D25*
%TO.C,D41*%
X141750000Y-110225000D03*
X141750000Y-112275000D03*
%TD*%
D22*
%TO.C,D29*%
X216300000Y-119300000D03*
X214250000Y-119300000D03*
%TD*%
%TO.C,D11*%
X216300000Y-112800000D03*
X214250000Y-112800000D03*
%TD*%
D27*
%TO.C,U3*%
X152563400Y-127337900D03*
X153213400Y-127337900D03*
X153863400Y-127337900D03*
X154513400Y-127337900D03*
X155163400Y-127337900D03*
X155813400Y-127337900D03*
X156463400Y-127337900D03*
X157113400Y-127337900D03*
X157113400Y-133062900D03*
X156463400Y-133062900D03*
X155813400Y-133062900D03*
X155163400Y-133062900D03*
X154513400Y-133062900D03*
X153863400Y-133062900D03*
X153213400Y-133062900D03*
X152563400Y-133062900D03*
%TD*%
D28*
%TO.C,R13*%
X227500000Y-151250000D03*
X227500000Y-153250000D03*
%TD*%
D23*
%TO.C,D58*%
X145975000Y-132500000D03*
X148025000Y-132500000D03*
%TD*%
D29*
%TO.C,D57*%
X145500000Y-148550000D03*
X145500000Y-146500000D03*
%TD*%
D30*
%TO.C,R6*%
X125950000Y-154000000D03*
X123950000Y-154000000D03*
%TD*%
D31*
%TO.C,U2*%
X210362500Y-112475000D03*
X210362500Y-113125000D03*
X210362500Y-113775000D03*
X210362500Y-114425000D03*
X210362500Y-115075000D03*
X210362500Y-115725000D03*
X210362500Y-116375000D03*
X210362500Y-117025000D03*
X204637500Y-117025000D03*
X204637500Y-116375000D03*
X204637500Y-115725000D03*
X204637500Y-115075000D03*
X204637500Y-114425000D03*
X204637500Y-113775000D03*
X204637500Y-113125000D03*
X204637500Y-112475000D03*
%TD*%
D22*
%TO.C,D60*%
X164525000Y-148500000D03*
X162475000Y-148500000D03*
%TD*%
%TO.C,D15*%
X216300000Y-121450000D03*
X214250000Y-121450000D03*
%TD*%
D30*
%TO.C,R8*%
X189750000Y-153200000D03*
X187750000Y-153200000D03*
%TD*%
D11*
%TO.C,Q3*%
X120950000Y-157500000D03*
D12*
X119680000Y-157500000D03*
X118410000Y-157500000D03*
%TD*%
D32*
%TO.C,C1*%
X118450000Y-138250000D03*
X116550000Y-138250000D03*
%TD*%
D29*
%TO.C,D45*%
X152000000Y-148550000D03*
X152000000Y-146500000D03*
%TD*%
D33*
%TO.C,C5*%
X194650000Y-137862500D03*
X194650000Y-142937500D03*
%TD*%
D20*
%TO.C,U10*%
X168441600Y-124409200D03*
X168441600Y-123139200D03*
X168441600Y-121869200D03*
X168441600Y-120599200D03*
X168441600Y-119329200D03*
X168441600Y-118059200D03*
X168441600Y-116789200D03*
X173391600Y-116789200D03*
X173391600Y-118059200D03*
X173391600Y-119329200D03*
X173391600Y-120599200D03*
X173391600Y-121869200D03*
X173391600Y-123139200D03*
X173391600Y-124409200D03*
%TD*%
D33*
%TO.C,C6*%
X201350000Y-128625000D03*
X201350000Y-133700000D03*
%TD*%
D21*
%TO.C,R11*%
X208150000Y-147050000D03*
X208150000Y-145050000D03*
%TD*%
D23*
%TO.C,D2*%
X184775000Y-134850000D03*
X186825000Y-134850000D03*
%TD*%
D22*
%TO.C,D28*%
X216325000Y-117150000D03*
X214275000Y-117150000D03*
%TD*%
%TO.C,D14*%
X216325000Y-115000000D03*
X214275000Y-115000000D03*
%TD*%
D34*
%TO.C,C4*%
X142787500Y-131200000D03*
X137712500Y-131200000D03*
%TD*%
D29*
%TO.C,D56*%
X148750000Y-148525000D03*
X148750000Y-146475000D03*
%TD*%
D25*
%TO.C,D59*%
X163750000Y-130975000D03*
X163750000Y-133025000D03*
%TD*%
D20*
%TO.C,U1*%
X120550000Y-142040000D03*
X120550000Y-140770000D03*
X120550000Y-139500000D03*
X120550000Y-138230000D03*
X125500000Y-138230000D03*
X125500000Y-139500000D03*
X125500000Y-140770000D03*
X125500000Y-142040000D03*
%TD*%
D23*
%TO.C,D12*%
X199225000Y-112950000D03*
X201275000Y-112950000D03*
%TD*%
D35*
%TO.C,C2*%
X127750000Y-137907500D03*
X127750000Y-137092500D03*
%TD*%
M02*
